<svg width="458" height="355" viewBox="0 0 458 355" fill="none" xmlns="http://www.w3.org/2000/svg">
<rect width="313" height="102" transform="matrix(-1 -8.74228e-08 -8.74228e-08 1 494 161)" fill="#F2DEC0"/>
<path d="M28.829 -6.04241e-05L604.518 -1.00958e-05C620.441 -8.70375e-06 633.347 14.0713 633.347 31.4322C633.347 48.793 620.441 62.8644 604.518 62.8644L561.879 62.8644C545.651 62.8644 532.493 74.4556 532.493 88.75C532.493 103.044 545.646 114.636 561.879 114.636L691.171 114.636C707.094 114.636 720 128.707 720 146.068C720 163.429 707.094 177.5 691.171 177.5L284.373 177.5C268.145 177.5 254.987 189.091 254.987 203.386C254.987 217.68 268.141 229.271 284.373 229.271L456.842 229.271C472.765 229.271 485.671 243.343 485.671 260.703C485.671 278.064 472.765 292.136 456.842 292.136L533.054 292.136C548.978 292.136 561.883 306.207 561.883 323.568C561.883 340.929 548.977 355 533.054 355L257.219 355C241.296 355 228.39 340.929 228.39 323.568C228.39 306.207 241.296 292.136 257.219 292.136L57.0345 292.136C41.1115 292.136 28.2056 278.064 28.2056 260.703C28.2056 243.343 41.1115 229.271 57.0345 229.271L143.507 229.271C159.735 229.271 172.893 217.68 172.893 203.386C172.893 189.091 159.735 177.5 143.507 177.5L100.192 177.5C84.2693 177.5 71.3633 163.429 71.3633 146.068C71.3633 128.707 84.2693 114.636 100.192 114.636L421.013 114.636C437.24 114.636 450.399 103.044 450.399 88.75C450.399 74.4556 437.245 62.8644 421.013 62.8644L28.829 62.8643C12.906 62.8643 6.60939e-05 48.793 6.76116e-05 31.4321C6.91294e-05 14.0713 12.906 -6.18161e-05 28.829 -6.04241e-05Z" fill="#F2DEC0"/>
</svg>
