<svg width="505" height="356" viewBox="0 0 505 356" fill="none" xmlns="http://www.w3.org/2000/svg">
<rect width="327" height="130" transform="matrix(1 0 0 -1 -73.8975 193)" fill="#F2DEC0"/>
<path d="M472.905 355.352H-155.869C-173.26 355.352 -187.356 341.27 -187.356 323.896C-187.356 306.522 -173.26 292.44 -155.869 292.44H-109.298C-91.5742 292.44 -77.2028 280.841 -77.2028 266.536C-77.2028 252.23 -91.569 240.631 -109.298 240.631H-250.513C-267.904 240.631 -282 226.549 -282 209.175C-282 191.801 -267.904 177.72 -250.513 177.72H193.797C211.521 177.72 225.892 166.12 225.892 151.815C225.892 137.51 211.526 125.91 193.797 125.91H5.42403C-11.9673 125.91 -26.0632 111.828 -26.0632 94.4542C-26.0632 77.0805 -11.9673 62.9987 5.42403 62.9987H-77.8161C-95.2074 62.9987 -109.303 48.9169 -109.303 31.5431C-109.303 14.1693 -95.2074 0.0875333 -77.8161 0.0875333H223.454C240.846 0.0875333 254.942 14.1693 254.942 31.5431C254.942 48.9169 240.846 62.9987 223.454 62.9987H442.098C459.489 62.9987 473.585 77.0805 473.585 94.4542C473.585 111.828 459.489 125.91 442.098 125.91H347.652C329.928 125.91 315.557 137.51 315.557 151.815C315.557 166.12 329.928 177.72 347.652 177.72H394.961C412.352 177.72 426.448 191.801 426.448 209.175C426.448 226.549 412.352 240.631 394.961 240.631H44.557C26.8331 240.631 12.4616 252.23 12.4616 266.536C12.4616 280.841 26.8279 292.44 44.557 292.44H472.905C490.296 292.44 504.392 306.522 504.392 323.896C504.392 341.27 490.296 355.352 472.905 355.352Z" fill="#F2DEC0"/>
</svg>
