<svg width="40" height="40" viewBox="0 0 40 40" fill="none" xmlns="http://www.w3.org/2000/svg">
<g clip-path="url(#clip0_359_4401)">
<path d="M19.9999 3.60153C25.3436 3.60153 25.9764 3.62497 28.0779 3.71872C30.031 3.80466 31.0857 4.13278 31.7888 4.40622C32.7185 4.76559 33.3904 5.20309 34.0857 5.89839C34.7888 6.60151 35.2185 7.26557 35.5779 8.19525C35.8513 8.89837 36.1794 9.96086 36.2654 11.9062C36.3591 14.0155 36.3825 14.6483 36.3825 19.9842C36.3825 25.3279 36.3591 25.9607 36.2654 28.0623C36.1794 30.0154 35.8513 31.0701 35.5779 31.7732C35.2185 32.7029 34.781 33.3747 34.0857 34.0701C33.3826 34.7732 32.7185 35.2029 31.7888 35.5622C31.0857 35.8357 30.0232 36.1638 28.0779 36.2497C25.9686 36.3435 25.3357 36.3669 19.9999 36.3669C14.6561 36.3669 14.0233 36.3435 11.9218 36.2497C9.96868 36.1638 8.914 35.8357 8.21088 35.5622C7.2812 35.2029 6.60933 34.7654 5.91402 34.0701C5.2109 33.3669 4.78121 32.7029 4.42184 31.7732C4.14841 31.0701 3.82028 30.0076 3.73435 28.0623C3.6406 25.9529 3.61716 25.3201 3.61716 19.9842C3.61716 14.6405 3.6406 14.0077 3.73435 11.9062C3.82028 9.95305 4.14841 8.89837 4.42184 8.19525C4.78121 7.26557 5.21871 6.5937 5.91402 5.89839C6.61714 5.19527 7.2812 4.76559 8.21088 4.40622C8.914 4.13278 9.97649 3.80466 11.9218 3.71872C14.0233 3.62497 14.6561 3.60153 19.9999 3.60153ZM19.9999 0C14.5702 0 13.8905 0.0234373 11.7577 0.117187C9.63274 0.210936 8.17181 0.554683 6.9062 1.04687C5.5859 1.56249 4.46872 2.24217 3.35935 3.35935C2.24217 4.46872 1.56249 5.5859 1.04687 6.89839C0.554683 8.17181 0.210936 9.62493 0.117187 11.7499C0.0234373 13.8905 0 14.5702 0 19.9998C0 25.4295 0.0234373 26.1092 0.117187 28.242C0.210936 30.367 0.554683 31.8279 1.04687 33.0935C1.56249 34.4138 2.24217 35.531 3.35935 36.6403C4.46872 37.7497 5.5859 38.4372 6.89839 38.945C8.17181 39.4372 9.62493 39.7809 11.7499 39.8747C13.8827 39.9684 14.5624 39.9919 19.992 39.9919C25.4217 39.9919 26.1014 39.9684 28.2342 39.8747C30.3591 39.7809 31.8201 39.4372 33.0857 38.945C34.3982 38.4372 35.5154 37.7497 36.6247 36.6403C37.7341 35.531 38.4216 34.4138 38.9294 33.1013C39.4216 31.8279 39.7653 30.3748 39.8591 28.2498C39.9528 26.117 39.9763 25.4373 39.9763 20.0077C39.9763 14.578 39.9528 13.8983 39.8591 11.7655C39.7653 9.64055 39.4216 8.17963 38.9294 6.91401C38.4372 5.5859 37.7575 4.46872 36.6404 3.35935C35.531 2.24998 34.4138 1.56249 33.1013 1.05468C31.8279 0.562496 30.3748 0.218748 28.2498 0.124999C26.1092 0.0234373 25.4295 0 19.9999 0Z" fill="#A1894B"/>
<path d="M19.9999 9.72656C14.3281 9.72656 9.72656 14.3281 9.72656 19.9999C9.72656 25.6718 14.3281 30.2733 19.9999 30.2733C25.6718 30.2733 30.2733 25.6718 30.2733 19.9999C30.2733 14.3281 25.6718 9.72656 19.9999 9.72656ZM19.9999 26.6639C16.3203 26.6639 13.3359 23.6796 13.3359 19.9999C13.3359 16.3203 16.3203 13.3359 19.9999 13.3359C23.6796 13.3359 26.6639 16.3203 26.6639 19.9999C26.6639 23.6796 23.6796 26.6639 19.9999 26.6639Z" fill="#A1894B"/>
<path d="M33.0781 9.3203C33.0781 10.6484 32 11.7187 30.6797 11.7187C29.3516 11.7187 28.2812 10.6406 28.2812 9.3203C28.2812 7.99218 29.3594 6.92188 30.6797 6.92188C32 6.92188 33.0781 7.99999 33.0781 9.3203Z" fill="#A1894B"/>
</g>
<defs>
<clipPath id="clip0_359_4401">
<rect width="39.9997" height="39.9997" fill="white"/>
</clipPath>
</defs>
</svg>
