<svg width="44" height="42" viewBox="0 0 44 42" fill="none" xmlns="http://www.w3.org/2000/svg">
<path fill-rule="evenodd" clip-rule="evenodd" d="M22 0C34.1302 0 44 8.008 44 17.853C44 21.7937 42.4738 25.3412 39.2837 28.8365C34.6693 34.1495 24.3485 40.6202 22 41.6102C19.7175 42.5727 19.9815 41.0685 20.086 40.4745L20.0942 40.425L20.4077 38.5412C20.482 37.9802 20.559 37.1085 20.3363 36.553C20.0888 35.9397 19.1152 35.6207 18.4002 35.4667C7.8265 34.0725 0 26.6777 0 17.853C0 8.008 9.8725 0 22 0ZM13.8105 21.1365H9.61675V13.5245C9.61675 13.4112 9.57193 13.3025 9.49207 13.2221C9.41221 13.1417 9.3038 13.0962 9.1905 13.0955H7.645C7.58866 13.0955 7.53288 13.1066 7.48083 13.1282C7.42878 13.1497 7.38149 13.1813 7.34165 13.2211C7.30182 13.261 7.27022 13.3083 7.24866 13.3603C7.2271 13.4124 7.216 13.4682 7.216 13.5245L7.216 23.111C7.216 23.2237 7.26275 23.331 7.337 23.4052V23.408L7.3425 23.4135L7.348 23.419C7.42775 23.4957 7.53435 23.5381 7.645 23.5372H13.8105C14.047 23.5372 14.2367 23.3447 14.2367 23.1082V21.5682C14.2371 21.5119 14.2264 21.4561 14.2051 21.4039C14.1839 21.3517 14.1526 21.3042 14.113 21.2641C14.0735 21.224 14.0264 21.1921 13.9745 21.1702C13.9226 21.1483 13.8668 21.1369 13.8105 21.1365ZM15.9858 13.0955H17.5312C17.7677 13.0955 17.9575 13.288 17.9575 13.5245V23.111C17.9575 23.3475 17.765 23.5372 17.5312 23.5372H15.9858C15.8724 23.5372 15.7637 23.4924 15.6834 23.4126C15.603 23.3327 15.5575 23.2243 15.5568 23.111V13.5245C15.5568 13.288 15.7493 13.0955 15.9858 13.0955ZM26.609 13.0955H28.149C28.3883 13.0955 28.5807 13.288 28.5807 13.5245V23.111C28.5807 23.3475 28.3883 23.5372 28.1518 23.5372H26.609C26.5719 23.5375 26.5349 23.5328 26.499 23.5235H26.4935C26.4833 23.5202 26.4732 23.5165 26.4633 23.5125L26.4495 23.507L26.4303 23.4987C26.4227 23.4956 26.4153 23.4919 26.4082 23.4877L26.4 23.485L26.3725 23.4685L26.3697 23.4657C26.3269 23.437 26.2896 23.4007 26.2598 23.3585L21.8597 17.4185V23.111C21.8601 23.1672 21.8494 23.2229 21.8281 23.275C21.8068 23.327 21.7755 23.3743 21.7359 23.4142C21.6963 23.4541 21.6492 23.4857 21.5973 23.5073C21.5454 23.5289 21.4897 23.54 21.4335 23.54H19.8907C19.7774 23.54 19.6687 23.4952 19.5884 23.4153C19.508 23.3355 19.4625 23.227 19.4618 23.1137V13.5245C19.4618 13.288 19.6542 13.0955 19.8907 13.0955H21.45L21.4637 13.0982H21.4802L21.4885 13.101H21.505L21.5325 13.1092H21.538L21.5435 13.112L21.571 13.1202L21.5847 13.1257C21.5932 13.129 21.6015 13.1326 21.6095 13.1367L21.6178 13.1395L21.6232 13.1422C21.6356 13.1488 21.6476 13.1561 21.659 13.1642L21.6672 13.1697L21.681 13.178V13.1807C21.6865 13.1807 21.6893 13.1862 21.692 13.189C21.6996 13.1941 21.707 13.1996 21.714 13.2055L21.7222 13.2137C21.7457 13.2354 21.7669 13.2593 21.7855 13.2852L26.18 19.2225V13.5245C26.18 13.288 26.3725 13.0955 26.609 13.0955ZM37.1003 15.0672C37.1003 15.3037 36.9078 15.4962 36.674 15.4962H32.4775V17.1187H36.6712C36.9077 17.1187 37.0975 17.3112 37.0975 17.545V19.0877C37.0975 19.3242 36.905 19.5167 36.6712 19.5167H32.4775V21.1392H36.6712C36.9077 21.1392 37.0975 21.3317 37.0975 21.5655V23.1082C37.0975 23.3447 36.905 23.5372 36.6712 23.5372H30.5058C30.4497 23.5375 30.3941 23.5268 30.3422 23.5055C30.2903 23.4843 30.2431 23.453 30.2032 23.4135L30.1978 23.4052C30.121 23.3265 30.0776 23.221 30.0768 23.111V13.5245C30.0768 13.409 30.1235 13.3045 30.195 13.2302L30.2032 13.222L30.206 13.2192C30.2857 13.1401 30.3934 13.0956 30.5058 13.0955L36.6712 13.0955C36.9077 13.0955 37.0975 13.288 37.0975 13.5245V15.0672H37.1003Z" fill="#00B900"/>
</svg>
