<svg width="15" height="16" viewBox="0 0 15 16" fill="none" xmlns="http://www.w3.org/2000/svg">
<path d="M8.45189 15.3893C8.50842 15.388 8.56563 15.3867 8.62216 15.3854L8.79311 15.382C8.85032 15.3801 8.90685 15.3761 8.96406 15.3728C9.07848 15.3655 9.19289 15.3589 9.30663 15.341C9.42038 15.3245 9.53479 15.3093 9.64651 15.2802C9.73535 15.2584 9.82487 15.2359 9.91303 15.2114C10.0005 15.1843 10.088 15.1572 10.1755 15.1287L10.2408 15.1076C10.2623 15.1003 10.2839 15.0917 10.3054 15.0837L10.434 15.0348L10.5625 14.9852C10.6056 14.9687 10.6466 14.9488 10.689 14.9303C11.0269 14.7861 11.3499 14.6095 11.6616 14.4177L11.6306 14.3489C11.57 14.3595 11.5115 14.3714 11.4448 14.3806C11.3782 14.3899 11.3049 14.3998 11.2194 14.4104C11.3291 14.3489 11.4347 14.2867 11.5323 14.2186C11.5815 14.1849 11.6306 14.1518 11.6784 14.1194C11.7268 14.087 11.7719 14.0513 11.8177 14.0188C11.9092 13.9527 11.9994 13.8905 12.0856 13.8284C12.1293 13.7979 12.1731 13.7688 12.2175 13.7417C12.2397 13.7285 12.2619 13.7152 12.2841 13.702C12.3056 13.6888 12.3279 13.6756 12.3494 13.663C12.4382 13.6114 12.5277 13.5605 12.6119 13.5043C12.6953 13.4467 12.7768 13.3878 12.8569 13.3257C12.9349 13.2615 13.0103 13.1934 13.0843 13.1226C13.122 13.0876 13.157 13.0499 13.192 13.0108C13.227 12.9725 13.2613 12.9328 13.2957 12.8924C13.3529 12.8263 13.4067 12.7555 13.4619 12.6867C13.5171 12.6173 13.5743 12.5498 13.6281 12.479C13.6827 12.4089 13.7379 12.3401 13.7951 12.2733C13.8489 12.2045 13.9041 12.1371 13.9613 12.0723C14.283 11.6992 14.5118 11.2567 14.672 10.7957C14.8335 10.3334 14.9278 9.85316 14.9998 9.37561C15.0031 9.35246 14.9675 9.32402 14.917 9.25722C14.8026 9.64349 14.6767 10.0198 14.5327 10.3876C14.3893 10.7554 14.2231 11.1125 14.0347 11.4565C13.9142 11.6767 13.7836 11.891 13.643 12.0981C13.6268 12.1172 13.61 12.1364 13.5932 12.1556C13.5588 12.1959 13.5258 12.2363 13.4929 12.2773C13.2378 12.5895 12.9854 12.9123 12.698 13.2046C12.665 13.2357 12.6314 13.2661 12.5977 13.2959C12.7889 13.0763 12.9652 12.8468 13.1368 12.616L13.2607 12.4394C13.2809 12.4102 13.3024 12.3811 13.3226 12.3514L13.3811 12.2614L13.4983 12.0815L13.6086 11.897C13.9014 11.4062 14.137 10.8817 14.3018 10.3367L14.1881 10.5424C14.1477 10.6098 14.106 10.676 14.0649 10.7415L14.003 10.84L13.9371 10.9359C13.8926 10.9994 13.8496 11.0629 13.8045 11.1251C13.82 11.0589 13.8287 10.9935 13.8354 10.9286C13.8415 10.8638 13.8469 10.801 13.8455 10.7375C13.8455 10.674 13.8428 10.6112 13.8408 10.5496C13.8388 10.4875 13.8381 10.4273 13.8341 10.3651C13.8314 10.3036 13.8307 10.2427 13.8327 10.1819C13.8341 10.1515 13.8361 10.121 13.8388 10.0906C13.8402 10.0595 13.8428 10.0284 13.8469 9.99735C13.8543 9.93518 13.8671 9.87234 13.8859 9.80819C13.9041 9.74403 13.925 9.67722 13.9552 9.6091C13.8684 9.65275 13.8301 9.67193 13.7419 9.71294C13.7607 9.62034 13.7796 9.52906 13.7978 9.43977C13.8112 9.34982 13.8247 9.26052 13.8381 9.17321C13.8455 9.12956 13.8489 9.08524 13.8536 9.04159C13.8583 8.99794 13.8624 8.95428 13.8671 8.91129C13.8778 8.82464 13.8805 8.73799 13.8859 8.65135C13.9048 8.2988 13.896 7.9456 13.8543 7.59504C13.8119 7.24449 13.7412 6.89856 13.6436 6.55925C13.6255 6.49906 13.5965 6.4349 13.5878 6.37206C13.5777 6.30923 13.5905 6.24573 13.6611 6.18355C13.6921 6.15577 13.7116 6.12138 13.7204 6.085C13.7291 6.04862 13.7271 6.0096 13.713 5.9752C13.686 5.90575 13.6207 5.84953 13.5272 5.84755C13.4841 5.84689 13.4485 5.833 13.4202 5.81382C13.3906 5.79463 13.3677 5.76884 13.3509 5.74238C13.3172 5.69013 13.3071 5.63391 13.3159 5.62134C13.4135 5.49368 13.3663 5.3733 13.2997 5.25491C13.291 5.24036 13.2822 5.22514 13.2735 5.21059C13.264 5.19604 13.2546 5.18149 13.2445 5.16694C13.2257 5.13783 13.2068 5.10873 13.19 5.07897C13.1732 5.0492 13.1584 5.01944 13.1476 4.98835C13.1422 4.97314 13.1375 4.95727 13.1341 4.94139C13.1301 4.92552 13.1274 4.90964 13.1254 4.89377C13.1799 4.86202 13.2459 4.82432 13.3596 4.75817C12.7498 3.70981 11.8514 2.84268 10.7785 2.254C10.7193 2.22226 10.6601 2.19051 10.6009 2.15942C10.5403 2.13032 10.479 2.10254 10.4178 2.0741C10.296 2.01589 10.1701 1.96827 10.0449 1.918C9.98303 1.89154 9.91909 1.87038 9.85515 1.84723C9.79189 1.82408 9.72862 1.80093 9.66536 1.77844C9.60142 1.75727 9.53748 1.73611 9.47355 1.71494L9.37798 1.68253L9.33019 1.66599L9.28241 1.65078C8.7736 1.48476 8.2446 1.3657 7.70281 1.30551L7.60118 1.29361L7.49888 1.28633L7.29361 1.27244L7.24178 1.26914L7.18996 1.26781L7.08699 1.26583L6.87969 1.26318L6.67173 1.27046L6.56741 1.27443L6.51491 1.27707L6.46309 1.2817L6.25445 1.30088C6.21945 1.30419 6.18446 1.3075 6.15013 1.31147L6.04649 1.32668C5.61777 1.38621 5.19107 1.4927 4.75966 1.64747C4.32892 1.80291 3.89347 2.00663 3.44927 2.27319C3.5334 2.27914 3.59397 2.29303 3.63233 2.30824C3.67137 2.32412 3.68954 2.34264 3.69223 2.36314C3.69493 2.38364 3.68146 2.40613 3.65724 2.43061C3.63301 2.45442 3.59935 2.48286 3.5583 2.5113C3.15448 2.79175 2.77826 3.11122 2.4404 3.4664C2.10254 3.82159 1.80304 4.2125 1.552 4.63184C1.27068 5.10609 1.04992 5.62531 0.942912 6.15445C0.937528 6.18091 0.932817 6.20737 0.928106 6.23448C0.897146 6.29004 0.87359 6.34891 0.86013 6.41175C0.840612 6.4931 0.830517 6.57843 0.82446 6.66441C0.82446 6.66574 0.82446 6.66706 0.82446 6.66838C0.715429 7.03944 0.641395 7.42506 0.604379 7.82125C0.583515 7.86623 0.559959 7.91253 0.535058 7.96015C0.539096 6.98653 0.758503 6.04135 1.14819 5.19273C1.5372 4.34214 2.10321 3.57686 2.80383 2.95446C2.69211 2.90551 2.59923 2.93197 2.51578 2.98621C2.43502 3.04309 2.36368 3.12775 2.28897 3.19389C1.869 3.57951 1.49614 4.022 1.17847 4.5022C1.13674 4.56107 1.10107 4.62324 1.06271 4.68476L0.950315 4.86996L0.84667 5.05979C0.813019 5.12328 0.776674 5.18612 0.746388 5.2516C0.68447 5.3819 0.618513 5.51088 0.56467 5.64581L0.480542 5.84689C0.454294 5.91501 0.430065 5.9838 0.405163 6.05193C0.385645 6.10418 0.366127 6.1571 0.346609 6.20935C0.328438 6.26226 0.310266 6.31518 0.292094 6.36809L0.236233 6.52684C0.218061 6.57975 0.202581 6.63399 0.186428 6.68756C0.154123 6.79538 0.121145 6.90385 0.0982616 7.01431C0.0747058 7.12477 0.0498044 7.23589 0.0397088 7.34899C0.0302865 7.43829 0.0201909 7.52824 0.0134608 7.61819C0.00874968 7.70815 0.00538416 7.79876 0.00201864 7.88872L-2.92589e-07 7.95685C-2.93572e-07 7.97933 -2.94555e-07 8.00182 -2.95567e-07 8.02497L0.00269192 8.16057L0.00605743 8.29616C0.00740306 8.34114 0.0114419 8.38677 0.0148064 8.43175C0.0363432 8.79355 0.0942236 9.15205 0.169602 9.50525L0.245655 9.49996C0.256424 9.44043 0.265173 9.38223 0.279306 9.31741C0.29344 9.25259 0.309592 9.18181 0.328437 9.09913C0.349301 9.2215 0.372184 9.34055 0.403817 9.45432C0.418624 9.5112 0.433429 9.56809 0.448236 9.62365C0.46237 9.67921 0.481214 9.73344 0.496694 9.78702C0.529 9.89417 0.556594 9.99868 0.586207 10.0999C0.60034 10.1508 0.612455 10.2011 0.623224 10.2513C0.628608 10.2765 0.633319 10.3016 0.638703 10.3261C0.644087 10.3506 0.648799 10.3757 0.65351 10.4002C0.672354 10.5 0.689853 10.5999 0.715428 10.6971C0.741676 10.7937 0.769944 10.8896 0.801576 10.9849C0.8359 11.0788 0.874936 11.1721 0.917337 11.2647C0.937527 11.3116 0.96243 11.3566 0.986659 11.4022C1.01156 11.4479 1.03714 11.4928 1.06473 11.5385C1.10848 11.6145 1.15694 11.688 1.20405 11.7627C1.25116 11.8375 1.29625 11.9142 1.34538 11.9876C1.39317 12.0617 1.43961 12.1371 1.4847 12.2125C1.53181 12.2859 1.5769 12.36 1.61931 12.4354C1.86429 12.8607 2.20888 13.2245 2.59385 13.5314C2.98017 13.8396 3.4062 14.0916 3.83761 14.3231C3.85847 14.3337 3.89818 14.3105 3.97894 14.2874C3.64916 14.0493 3.33284 13.8032 3.03132 13.5433C2.72913 13.2847 2.44511 13.0082 2.18196 12.7158C1.9188 12.4235 1.67584 12.1139 1.46182 11.7872C1.24847 11.4598 1.06608 11.1145 0.919356 10.756C1.06338 11.008 1.22155 11.2494 1.38307 11.4876L1.50893 11.6628C1.52979 11.6919 1.55066 11.7217 1.57152 11.7501L1.63748 11.8355L1.76737 12.0035C2.59587 13.1286 3.79992 13.9719 5.20049 14.3582L5.26106 14.3859C5.35259 14.4269 5.4448 14.468 5.54306 14.4937C5.59354 14.5083 5.64334 14.5229 5.69247 14.5374C5.7416 14.5526 5.79006 14.5685 5.83852 14.5824C5.93544 14.6108 6.02966 14.6426 6.12388 14.6763C6.21811 14.7074 6.31166 14.7418 6.40588 14.7815C6.45232 14.802 6.50011 14.8198 6.54789 14.8403C6.59568 14.8608 6.64346 14.882 6.69125 14.9052C6.72086 14.919 6.75115 14.9329 6.78143 14.9455C6.80431 14.9548 6.8272 14.9627 6.85075 14.9706C6.02764 14.8714 5.22606 14.626 4.49448 14.2477C4.48641 14.3674 4.54294 14.4441 4.6237 14.5023C4.70581 14.5572 4.81081 14.5936 4.90032 14.6399C5.41384 14.8946 5.96438 15.0857 6.53241 15.214C6.60308 15.2319 6.67509 15.2438 6.74643 15.2577L6.9618 15.2974L7.17852 15.3272C7.25121 15.3364 7.32322 15.3483 7.39658 15.3536C7.54263 15.3655 7.68867 15.382 7.83607 15.3854L8.05749 15.3933C8.13153 15.394 8.20556 15.3933 8.27959 15.392C8.33613 15.392 8.39333 15.392 8.44987 15.392L8.45189 15.3893ZM11.3937 13.1722C11.4482 13.1173 11.5088 13.0637 11.5761 13.0148C11.5848 13.0088 11.5936 13.0022 11.603 12.9956C11.601 12.9976 11.599 12.9996 11.5969 13.0016L11.387 13.1888C11.3755 13.1987 11.3641 13.2073 11.3526 13.2172C11.3654 13.202 11.3796 13.1868 11.3937 13.1722ZM13.4552 11.1469C13.4363 11.1866 13.4182 11.225 13.4 11.2627C13.3805 11.2997 13.361 11.3354 13.3421 11.3711C13.3233 11.4069 13.3044 11.4419 13.2856 11.4763C13.2667 11.5114 13.2486 11.5458 13.2277 11.5795C13.1873 11.647 13.1463 11.7144 13.1045 11.7852C13.2014 11.7343 13.2519 11.7071 13.3576 11.6483C13.1012 11.9902 12.8521 12.2594 12.5863 12.5068L12.6152 12.5624C12.694 12.5048 12.7741 12.4473 12.8521 12.3871L13.083 12.1993C12.7027 12.653 12.2976 13.0723 11.8534 13.4619C11.4119 13.8555 10.9313 14.2173 10.4017 14.5665C10.3754 14.4746 10.3579 14.4157 10.333 14.3297C10.7005 14.1359 11.0525 13.9097 11.4112 13.6207C11.3385 13.6121 11.2793 13.6015 11.2207 13.5916C11.2194 13.5611 11.2207 13.5327 11.2241 13.5043C11.4704 13.3548 11.708 13.1901 11.9341 13.0108C11.9752 12.8944 12.0129 12.7773 12.0486 12.6596C12.2888 12.4651 12.519 12.2522 12.7391 12.0154C12.7781 11.9757 12.8138 11.9334 12.8501 11.8917C12.8865 11.8494 12.9235 11.807 12.9605 11.764C12.9793 11.7429 12.9968 11.7204 13.0143 11.6979C13.0318 11.6754 13.0493 11.6529 13.0675 11.6304C13.1032 11.5854 13.1389 11.5398 13.1745 11.4935C13.2082 11.4459 13.2418 11.3983 13.2762 11.35C13.293 11.3255 13.3105 11.3017 13.3273 11.2772L13.3529 11.2408L13.3771 11.2031C13.4094 11.1522 13.4417 11.1013 13.4747 11.0497C13.4909 11.0239 13.5077 10.9981 13.5238 10.9716C13.5393 10.9452 13.5541 10.9181 13.5696 10.8909C13.5326 10.9842 13.4915 11.0669 13.4538 11.1463L13.4552 11.1469ZM12.1906 4.45656C12.4726 4.77802 12.7162 5.13254 12.9174 5.50824C13.1187 5.88393 13.2782 6.28211 13.3906 6.69219C13.4067 6.74312 13.4175 6.79538 13.4296 6.84697L13.4659 7.0024C13.4868 7.10625 13.505 7.21142 13.5232 7.31592L13.5433 7.474L13.5534 7.55271C13.5568 7.57917 13.5602 7.60497 13.5615 7.63208L13.5736 7.79083C13.577 7.84374 13.5824 7.89666 13.5824 7.94957C13.5979 8.37288 13.5662 8.79752 13.4875 9.2129C13.4215 9.56081 13.3071 9.89814 13.159 10.2176C13.0224 10.5133 12.8555 10.7931 12.6731 11.0583C13.0702 10.248 13.2923 9.34056 13.2923 8.38281C13.2923 6.41439 12.3534 4.65962 10.8896 3.52263C10.9434 3.55107 10.9966 3.58083 11.0498 3.61126C11.1016 3.63904 11.1521 3.67012 11.2026 3.70055L11.356 3.7905L11.5061 3.88707L11.5815 3.93536C11.6064 3.95189 11.6299 3.96975 11.6542 3.98695C11.7026 4.022 11.7511 4.05706 11.7989 4.09278C11.8466 4.12916 11.8911 4.16884 11.9368 4.2072C12.029 4.28393 12.1111 4.36992 12.1912 4.45855L12.1906 4.45656ZM11.5128 3.7065L11.459 3.66351L11.4031 3.62316C11.3661 3.59604 11.3284 3.56893 11.2907 3.54181C11.2167 3.48559 11.1346 3.43664 11.0518 3.38174C11.284 3.41944 11.4428 3.47897 11.5815 3.58282C11.6488 3.63705 11.7134 3.70055 11.7753 3.78389C11.8056 3.82622 11.8365 3.87186 11.8675 3.92279C11.883 3.94792 11.8991 3.97438 11.9153 4.00216C11.9308 4.0306 11.9456 4.06037 11.9617 4.09145C11.8049 3.94197 11.6602 3.82027 11.5142 3.7065L11.5128 3.7065ZM10.5497 2.45243L10.681 2.50204C10.7247 2.51858 10.7685 2.53511 10.8109 2.55495C10.8963 2.59266 10.9825 2.63102 11.0673 2.6707L11.3183 2.79968C11.4011 2.84466 11.4819 2.89361 11.564 2.94057C11.6165 2.96967 11.6905 3.01002 11.7053 3.0464C11.7443 3.15156 11.8002 3.24086 11.8601 3.32817C11.9207 3.41481 11.994 3.49088 12.0661 3.57091C12.1394 3.64962 12.2182 3.72436 12.2908 3.80638C12.3279 3.84673 12.3642 3.88707 12.3999 3.92874C12.4349 3.97041 12.4665 4.01539 12.4975 4.05971C12.2033 3.73693 11.8453 3.47699 11.4758 3.23424C11.4307 3.20249 11.3823 3.17471 11.3358 3.14429C11.2887 3.11452 11.2423 3.0841 11.1952 3.05367C11.0996 2.99547 11.0047 2.93528 10.9098 2.8731C10.8613 2.84334 10.8129 2.81357 10.7651 2.78182C10.7166 2.75074 10.6695 2.717 10.6204 2.68658C10.5713 2.65549 10.5228 2.62308 10.4737 2.58935C10.4494 2.57215 10.4252 2.55495 10.4003 2.53776C10.3754 2.52122 10.3505 2.50402 10.3256 2.48749C10.3815 2.47624 10.4266 2.46169 10.4622 2.45376C10.4979 2.44582 10.5255 2.44251 10.5504 2.45177L10.5497 2.45243ZM8.80927 1.87897C8.85301 1.89022 8.88532 1.91337 8.91695 1.95239C8.94858 1.99208 8.97887 2.0483 9.01723 2.12238C8.99031 2.11444 8.96339 2.10584 8.93714 2.09791C8.92368 2.09394 8.91089 2.08997 8.89743 2.086L8.85772 2.07608C8.80523 2.06285 8.75273 2.04962 8.69822 2.03573C8.58986 2.00597 8.4741 1.98546 8.3368 1.95768C8.46198 1.92263 8.55957 1.89485 8.63495 1.88228C8.71033 1.87038 8.76485 1.86839 8.80859 1.87964L8.80927 1.87897ZM0.462371 8.29021C0.50679 8.29351 0.543133 8.29616 0.579477 8.2988C0.579477 8.32592 0.578131 8.35304 0.578131 8.38016C0.578131 8.51178 0.582843 8.64275 0.590919 8.77305C0.545826 8.61497 0.502752 8.45424 0.462371 8.29021ZM8.27959 14.9124C8.23921 14.9058 8.1995 14.9005 8.15979 14.8926C8.12009 14.8847 8.0797 14.8767 8.03999 14.8681C7.96058 14.8516 7.88116 14.8364 7.80242 14.8172C7.64493 14.7768 7.48946 14.7398 7.33601 14.6902C7.29899 14.6789 7.25861 14.6697 7.21823 14.6624C7.19804 14.6591 7.17717 14.6558 7.15698 14.6538C7.13679 14.6512 7.11593 14.6485 7.09574 14.6472L6.82989 14.626C6.74172 14.6161 6.65356 14.6042 6.56539 14.593C6.49943 14.5857 6.43415 14.5738 6.36887 14.5625C6.50078 14.5738 6.63337 14.5817 6.7673 14.585C7.01632 14.6274 7.26803 14.6558 7.52042 14.6704C7.67723 14.6829 7.90404 14.6545 7.97808 14.716C7.99692 14.7319 8.01644 14.7458 8.03596 14.7583C8.05547 14.7702 8.07499 14.7808 8.09518 14.7907C8.13489 14.8099 8.17595 14.8238 8.217 14.8337C8.29911 14.8529 8.38391 14.8582 8.46804 14.8463C8.55217 14.8364 8.63697 14.8159 8.72177 14.7921C8.80523 14.7649 8.88868 14.7345 8.97147 14.7074C9.01656 14.6935 9.06031 14.6796 9.10338 14.6657C9.14645 14.6532 9.18953 14.6419 9.2326 14.6327C9.27567 14.6234 9.31808 14.6161 9.36182 14.6108C9.40422 14.6035 9.4473 14.5983 9.49104 14.5943C9.53479 14.5903 9.57921 14.5883 9.6243 14.5877C9.64719 14.5877 9.6694 14.5877 9.69295 14.5877C9.71583 14.5877 9.73872 14.5877 9.76227 14.5877C9.85582 14.5897 9.95409 14.5976 10.0604 14.6108C9.39076 14.8489 8.69754 14.9792 8.00903 15.009C8.03596 15.0017 8.06288 14.9938 8.08913 14.9852C8.1221 14.9746 8.15441 14.9634 8.18604 14.9515C8.21767 14.9382 8.24931 14.9243 8.28027 14.9091L8.27959 14.9124Z" fill="#191212"/>
<path d="M14.0582 5.01251C14.0643 5.0522 14.0703 5.09188 14.0764 5.13157C14.0878 5.21094 14.1006 5.28899 14.1094 5.36836C14.1248 5.52776 14.143 5.68386 14.1491 5.8426C14.1511 5.88097 14.1558 5.92065 14.1632 5.961C14.1666 5.98084 14.1713 6.00069 14.176 6.02053C14.1807 6.04037 14.1847 6.06021 14.1908 6.0794L14.2621 6.33206C14.283 6.41672 14.3025 6.50271 14.322 6.58737C14.3436 6.67204 14.3564 6.75868 14.3725 6.84467L14.3954 6.97365C14.4028 7.01664 14.4075 7.06029 14.4136 7.10329C14.4634 7.44921 14.4802 7.79911 14.4735 8.14636L14.5374 8.15496C14.5428 8.10601 14.5495 8.05707 14.5563 8.00812L14.569 7.86062C14.5764 7.76207 14.5838 7.6622 14.5751 7.56364C14.5711 7.51205 14.5684 7.46112 14.5657 7.41085C14.563 7.36058 14.5623 7.31031 14.5583 7.26071C14.5522 7.16149 14.5495 7.0636 14.5502 6.96505C14.5475 6.86716 14.5482 6.76927 14.5536 6.66873C14.5569 6.61846 14.5576 6.56885 14.561 6.51792C14.5637 6.46699 14.5684 6.4154 14.5731 6.36315C14.5764 6.33074 14.5791 6.29833 14.5805 6.26592C14.5812 6.23351 14.5805 6.2011 14.5805 6.16803C14.5791 6.10255 14.5744 6.0364 14.567 5.97026C14.561 5.90346 14.5462 5.83864 14.5307 5.77249C14.5145 5.70701 14.4964 5.64219 14.4748 5.57737C14.4519 5.51387 14.4243 5.45104 14.3947 5.38952C14.3799 5.3591 14.3644 5.32867 14.3483 5.29825L14.3234 5.25393C14.3146 5.23938 14.3052 5.22483 14.2958 5.21094C14.2581 5.15406 14.2184 5.0985 14.1753 5.04492C14.1538 5.01846 14.1322 4.99267 14.1094 4.96687C14.0858 4.9424 14.0616 4.91793 14.0367 4.89478C14.0441 4.9338 14.0528 4.97282 14.0589 5.01251L14.0582 5.01251Z" fill="#191212"/>
<path d="M10.9953 1.32943C10.6157 1.12505 10.2159 0.951756 9.80337 0.812195L9.6479 0.761926L9.56983 0.736792C9.54358 0.728193 9.518 0.720256 9.49108 0.713642C9.38609 0.684539 9.28042 0.656097 9.17476 0.628317C9.06842 0.603183 8.96141 0.580694 8.8544 0.557544L8.77363 0.541009L8.69287 0.527119L8.53067 0.5C8.5798 0.52778 8.62893 0.553576 8.67806 0.578049L8.82546 0.650144C8.92372 0.697767 9.02265 0.740099 9.12159 0.7778C9.22053 0.81947 9.31946 0.857172 9.41974 0.890905C9.47022 0.90744 9.52002 0.925299 9.56983 0.943158C9.61963 0.961016 9.67011 0.977552 9.72058 0.994088C10.1231 1.1277 10.5356 1.25271 10.9273 1.42865L10.9946 1.32943L10.9953 1.32943Z" fill="#191212"/>
<path d="M14.2588 3.93043C14.4492 4.26048 14.6202 4.60046 14.7575 4.953C14.7541 4.85643 14.7454 4.76052 14.7306 4.66462C14.7137 4.57069 14.6915 4.47677 14.6653 4.38417C14.6404 4.29091 14.6054 4.20162 14.5677 4.11232C14.53 4.02369 14.4903 3.9344 14.4412 3.8504C14.3934 3.76573 14.3429 3.68173 14.289 3.59972C14.2325 3.51968 14.1733 3.44031 14.112 3.36292L14.0656 3.30538L14.0165 3.24982C13.9835 3.21278 13.9498 3.1764 13.9155 3.14002C13.8812 3.10364 13.8469 3.06793 13.8119 3.03221C13.7762 2.99715 13.7392 2.96342 13.7022 2.92969L13.6086 2.98657C13.8489 3.2862 14.0683 3.60038 14.2588 3.93109L14.2588 3.93043Z" fill="#191212"/>
<path d="M13.4377 4.95605C13.5837 5.22658 13.7109 5.50703 13.8199 5.79409C13.8576 5.45345 13.7338 5.14655 13.4377 4.95605Z" fill="#191212"/>
<path d="M13.8678 12.5057C14.0219 12.2993 14.1666 12.0863 14.2992 11.8661L14.2554 11.8555C14.1141 12.0592 13.962 12.255 13.8025 12.4428L13.8678 12.5057Z" fill="#191212"/>
<path d="M13.3361 8.50515L13.3293 8.58915L13.3186 8.67316L13.4189 8.67051C13.4189 8.64207 13.4195 8.61429 13.4189 8.58585L13.4148 8.50118L13.4061 8.33252L13.3509 8.33715L13.3374 8.50581L13.3361 8.50515Z" fill="#191212"/>
<path d="M8.84361 15.4965C8.94187 15.4925 9.04013 15.4859 9.13705 15.47C9.23464 15.4555 9.33223 15.4376 9.42914 15.4158C9.52538 15.3913 9.62095 15.3642 9.71652 15.3338L9.78787 15.3106L9.85786 15.2842C9.90497 15.2663 9.95141 15.2478 9.99785 15.2293C10.0443 15.2101 10.0907 15.1909 10.1365 15.1711C10.1823 15.1499 10.2274 15.1274 10.2724 15.1056L10.2502 14.9998C9.88142 15.1182 9.50519 15.2127 9.12426 15.2742C8.74333 15.3364 8.3597 15.3768 7.9754 15.3821C8.06895 15.4118 8.16385 15.437 8.26009 15.4568C8.35566 15.4733 8.45258 15.4859 8.55017 15.4932C8.64776 15.5024 8.74534 15.5005 8.84361 15.4972L8.84361 15.4965Z" fill="#191212"/>
<path d="M1.15085 11.9204L1.06807 11.9588C1.2121 12.1718 1.36555 12.3788 1.53044 12.5772L1.55534 12.5408C1.4093 12.3398 1.27469 12.1327 1.15018 11.9204L1.15085 11.9204Z" fill="#191212"/>
</svg>
