<svg width="351" height="529" viewBox="0 0 351 529" fill="none" xmlns="http://www.w3.org/2000/svg">
<mask id="mask0_368_626" style="mask-type:alpha" maskUnits="userSpaceOnUse" x="0" y="0" width="351" height="529">
<rect width="351" height="529" fill="white"/>
</mask>
<g mask="url(#mask0_368_626)">
<path d="M180.956 59.1852C179.34 65.4099 176.917 66.4195 170.286 63.6268C169.882 66.2513 169.478 68.6403 169.074 71.2648C171.498 70.861 173.921 70.4569 176.311 70.0531C183.749 68.64 190.011 64.4343 196.238 60.1948C198.459 58.5797 201.455 58.3779 204.08 57.3685C206.302 56.561 207.715 55.7534 206.504 52.7252C205.898 51.1101 204.888 47.308 209.533 48.8894C212.159 44.0442 216.972 45.2554 221.011 44.6498C221.011 44.6498 225.859 44.4479 223.233 41.2177C223.233 41.2177 223.233 40.2082 223.435 39.8044C225.05 37.3818 235.115 33.5797 237.337 35.1611C241.578 38.3912 245.987 36.9784 249.824 35.969C254.84 34.7577 260.293 34.152 264.13 28.331C265.342 33.7482 268.977 33.7479 272.376 35.1611C277.223 36.978 277.594 30.72 281.633 32.1332C282.037 34.9595 283.45 36.5744 287.456 35.7669C290.485 35.1613 293.885 36.3725 297.117 36.1707C300.348 36.1707 303.546 35.1613 306.979 34.5557C306.979 36.7764 306.575 38.3915 306.575 38.3915C308.393 46.4331 303.546 48.25 299.54 50.8744H297.722C294.289 48.6537 293.078 52.0858 290.486 53.0953C297.117 56.1235 302.973 58.5123 308.594 61.3386C310.412 62.1462 310.816 61.9443 312.028 60.9349C314.451 59.1179 323.102 59.7238 325.122 61.5407C325.526 62.1464 326.131 62.9536 326.131 62.9536C325.323 66.5875 327.747 66.9913 329.565 67.597C336.398 69.8177 338.013 70.6253 342.254 74.4274C346.092 68.8084 346.294 68.6064 347.674 62.1461C349.088 63.9631 349.895 65.1745 349.895 65.1745C352.723 68.6065 355.113 68.0009 357.334 67.3953C358.344 66.9915 359.556 65.1747 360.364 65.3765C363.595 66.1841 366.591 67.1932 369.62 68.4045C371.236 69.212 372.649 70.4234 374.063 71.4328L376.285 73.6536C374.669 77.6913 377.092 77.8932 379.92 78.2969C383.151 78.9026 386.147 80.3159 389.378 80.9215C393.418 81.729 395.808 84.959 395.808 89.9724C399.039 89.1648 402.035 88.3572 404.862 87.7516C402.439 84.7233 400.217 81.9308 398.029 79.1044C397.221 78.095 394.394 80.1137 395.404 77.2873C396.212 74.8648 398.231 76.2779 399.443 76.8836C401.664 78.0949 403.684 79.9119 405.872 81.1232C405.872 81.1232 407.892 80.9213 408.296 80.3157C408.296 80.3157 408.295 78.4986 407.689 78.0948C404.66 75.8741 401.463 73.8556 398.231 71.6685C399.241 70.4572 400.049 69.044 400.857 67.8327H400.655C400.655 67.8327 403.684 65.8138 400.655 64.8044L400.857 65.0061V63.3911L400.655 63.5931C404.896 63.3913 408.296 64.8045 411.527 68.2365C411.527 66.2176 411.729 64.6024 411.729 63.021C412.133 62.8191 412.537 62.8193 412.537 62.8193C412.537 62.8193 414.556 65.4439 414.556 66.6552C414.152 73.8893 416.778 78.3303 423.813 80.1473C424.822 80.3492 426.034 81.7624 426.236 82.7718C426.842 84.9926 428.054 85.8001 429.872 86.6077C430.881 87.0114 431.689 88.6264 432.295 89.8377C433.103 91.049 429.67 94.2791 434.517 93.6735C436.133 93.4716 436.94 97.5094 439.532 95.4906C442.562 97.7113 447.375 97.1055 448.789 101.715C449.395 103.734 450.202 104.945 452.626 105.147L455.049 107.974C456.665 111.002 458.28 114.198 459.896 117.63C458.28 119.447 456.261 121.668 454.275 123.855C455.891 125.672 457.911 127.085 458.718 128.902C458.718 128.902 459.324 133.142 459.526 135.329C459.728 137.751 459.728 140.544 460.132 142.967C460.334 143.774 461.343 144.38 461.747 145.187C462.555 144.38 463.363 143.774 463.363 143.774C464.575 142.563 464.777 141.957 464.777 141.957C466.999 143.774 468.614 146.197 469.624 148.586C470.23 149.999 470.028 151.816 469.422 153.229C468.008 156.863 467.806 156.863 472.451 158.848C471.845 159.857 471.038 161.069 470.432 162.078C469.624 163.29 469.018 164.501 468.21 165.914C470.229 168.135 471.441 171.735 475.851 170.557C476.861 170.154 478.477 172.576 479.891 173.989C481.304 175.402 482.314 177.421 483.93 178.632C489.551 182.67 489.753 182.872 489.551 190.712L487.127 189.703C485.31 187.482 484.502 188.087 484.098 190.51C483.896 191.519 484.097 192.529 484.299 193.336L485.309 196.567C486.925 195.759 488.137 195.153 489.551 194.75C490.358 196.567 492.782 197.576 490.561 200.773C488.743 203.397 489.147 207.401 488.541 211.035C485.309 210.429 484.502 207.199 483.122 205.012C481.506 202.791 480.093 203.397 478.275 204.205C478.881 208.848 482.112 211.842 484.704 215.073C486.117 216.688 487.733 217.899 488.945 219.312C489.349 219.716 489.551 220.725 489.551 220.725C488.541 221.936 486.117 222.139 487.733 223.955C488.541 224.965 490.359 225.167 491.571 225.167C493.994 225.369 494.802 226.58 495.004 228.8C496.014 235.025 497.023 241.284 497.831 247.508C498.033 249.527 498.235 250.94 499.446 252.724C500.86 254.742 501.264 257.367 502.072 259.756C502.072 259.756 503.082 262.784 503.688 264.399V264.197C501.466 264.601 500.456 266.014 501.264 268.235C502.274 271.061 503.486 273.854 504.698 276.68L506.111 279.103C506.111 279.91 505.505 280.92 505.505 280.92C504.294 281.324 503.284 280.92 503.284 280.92C502.678 278.699 502.88 276.882 502.476 275.503C502.476 275.503 501.264 273.686 499.446 273.08C499.446 276.512 499.648 279.91 499.446 283.342C499.446 286.371 502.072 286.371 503.688 287.38H503.486C503.486 294.412 504.899 301.478 501.87 308.511C499.446 314.534 498.437 321.195 497.427 327.622C496.014 335.058 494.398 342.729 492.412 350.165C492.008 351.175 490.998 351.982 490.19 352.79C490.19 352.79 487.767 355.617 487.969 356.828C488.171 360.866 486.757 365.071 490.998 368.301C492.411 369.311 493.018 371.733 494.028 373.718L493.825 373.517C494.633 375.536 495.643 377.554 493.623 379.338C493.623 379.338 491.604 380.751 490.998 380.347C489.988 379.742 489.181 378.53 489.181 378.53C488.979 375.906 491.806 373.887 488.979 372.709C485.949 371.094 486.353 374.93 486.353 374.93C484.131 377.151 483.727 378.766 483.727 378.766C480.249 378.362 477.164 379.506 474.471 382.198L475.683 379.371V375.939C473.865 377.958 472.654 379.371 471.442 380.583V380.785C471.442 379.17 471.24 377.555 471.038 374.964C467.604 377.992 467.403 381.592 466.191 384.62C466.191 384.62 466.393 385.024 466.393 385.226C468.009 388.703 467.604 391.585 465.181 393.873C465.181 393.873 465.383 391.652 465.383 390.643H465.585C465.383 391.652 465.383 392.662 465.383 392.662C466.191 402.117 459.761 406.357 455.722 411.976C455.722 411.976 452.895 412.177 451.885 412.985C451.885 412.985 448.856 414.802 451.077 416.619C451.683 417.022 451.077 419.041 451.077 419.041C451.077 419.041 448.452 420.252 447.846 419.647C446.029 418.234 445.423 420.051 445.423 420.051L444.413 420.656C444.009 421.262 443.403 421.666 443.403 421.666L442.999 422.07C439.969 425.3 439.768 425.905 438.556 429.506C440.172 428.496 441.585 427.487 443.201 426.477H442.999C441.989 429.909 440.979 432.904 435.964 432.5C433.541 432.298 429.737 434.115 429.333 437.345C428.727 441.787 426.101 439.162 424.486 439.566C425.697 437.143 427.112 434.721 428.323 432.332C429.535 430.111 430.747 428.092 431.959 425.703L431.151 423.886L429.131 425.098C429.939 428.53 427.313 429.539 425.496 431.121C421.86 433.947 421.658 434.956 424.486 439.566C424.082 442.998 418.461 443.402 419.639 448.012L418.427 449.223C417.822 449.425 416.812 449.627 416.812 449.627C409.171 445.993 405.939 451.646 402.304 455.65C398.871 459.889 394.058 462.682 391.432 467.729C391.432 467.729 390.22 467.931 389.614 468.132L389.412 467.93H389.614C389.614 467.93 387.594 469.142 386.584 469.546C386.584 469.142 386.383 468.738 386.383 468.738C386.383 468.738 385.979 468.536 385.777 468.738C385.979 468.94 386.383 469.142 386.383 469.142C386.585 471.968 386.181 474.559 382.748 473.382C380.93 472.978 379.516 471.363 377.732 469.95C376.722 471.968 378.944 475.367 375.309 476.174C375.309 476.174 374.703 477.184 374.904 477.385C375.308 479.404 376.116 481.221 374.097 482.601C371.269 484.418 368.476 484.418 365.447 483.408V483.61C367.062 481.591 367.466 478.563 370.091 476.982C371.707 475.972 373.121 473.751 370.496 471.766C370.496 471.766 369.89 470.151 369.688 469.344C373.323 470.353 374.905 468.536 375.511 465.104C380.358 460.865 384.969 456.457 390.018 452.419C393.451 449.795 393.856 447.002 392.442 443.166C391.634 440.744 390.422 439.936 389.009 441.753C387.393 443.772 386.181 446.396 384.969 448.785C383.555 452.015 382.545 456.423 378.338 455.818C374.13 455.212 373.121 457.634 371.909 460.461C370.293 464.095 374.535 463.489 375.545 465.306C372.515 465.104 370.9 466.719 369.722 469.344C366.288 469.344 363.696 469.949 361.676 473.583C360.263 476.41 357.637 478.597 353.833 478.429C352.622 478.429 350.804 479.236 350.199 480.245C347.573 483.475 344.981 487.076 343.163 490.912C340.942 495.757 338.721 499.962 332.696 500.77C327.478 501.376 322.833 504.808 317.212 502.587C319.231 501.981 321.453 501.376 323.64 500.77C326.872 499.962 329.262 497.944 329.06 494.344C329.06 491.921 329.665 491.113 331.887 490.306C333.503 489.7 334.917 488.287 336.735 487.076C332.852 484.384 329.632 484.047 327.074 486.066L324.045 487.682C321.621 488.085 321.621 489.498 321.621 491.719C321.823 495.353 320.813 495.757 316.202 495.151H316.404C316.404 495.151 317.414 492.93 318.019 491.719C314.788 491.921 311.994 492.123 309.369 492.325V492.527C312.196 490.912 314.99 489.498 318.827 487.311C314.99 486.504 312.802 487.109 310.581 488.321C304.96 491.753 299.507 495.151 293.683 497.977C290.25 499.794 287.86 502.419 287.052 505.817C286.447 508.643 285.033 508.846 282.811 509.855C279.378 511.268 276.18 512.076 272.747 512.48C272.747 512.48 270.525 511.47 270.525 511.268C270.525 511.268 271.333 508.24 271.939 506.827L274.363 507.23C274.968 507.432 275.574 508.038 275.574 508.038L276.584 506.221C275.776 501.981 272.343 499.996 268.943 502.587C266.519 504.404 262.514 505.817 263.725 510.629C263.927 511.638 262.716 513.859 262.716 513.859C257.499 514.666 253.056 517.089 247.435 515.474C251.878 513.455 255.479 511.84 259.72 509.855C257.902 507.432 256.085 508.24 254.301 508.24L251.676 506.827C251.676 506.827 252.887 504.808 253.695 504.404C253.695 504.404 256.118 504 257.128 503.798C257.128 503.798 259.956 503.193 259.35 501.174C258.744 498.549 260.562 498.146 262.177 498.55C270.222 499.963 277.089 497.54 283.316 492.527C281.498 490.306 279.882 488.287 278.098 486.302C277.089 485.091 272.073 484.081 270.66 484.889C268.438 486.302 265.443 487.513 264.433 489.532C262.615 493.973 259.417 493.166 256.388 492.56C247.737 490.743 239.49 491.955 231.042 493.57C231.042 493.57 229.224 493.368 228.416 493.166L228.215 491.954C229.225 491.349 230.234 490.339 231.042 490.339C233.667 490.945 236.461 492.762 238.48 489.128C236.259 487.917 234.037 486.706 231.85 485.494C225.824 482.264 221.18 485.495 217.746 489.734C213.505 494.949 208.692 496.564 202.464 495.151C203.811 493.132 203.205 491.517 200.647 490.306C203.07 489.296 205.292 488.489 207.48 487.076C207.48 487.076 208.894 484.855 209.5 483.846L211.317 483.24L210.711 482.23L209.702 483.846C204.081 480.818 198.223 480.414 192.198 482.029C190.784 482.433 188.765 483.038 187.958 484.25C185.534 488.085 184.322 485.057 184.322 485.057L182.909 483.846C182.707 481.827 182.908 480.01 182.504 478.227L180.687 476.612C179.475 476.41 177.86 477.015 177.86 477.015C171.027 474.593 164.968 472.574 159.347 469.983C156.519 468.57 154.5 466.955 151.706 469.983C149.686 472.406 147.666 472.405 146.858 468.772L145.041 467.964C141.406 470.589 139.016 468.166 135.785 466.551C130.769 463.927 128.548 460.528 127.942 455.279C131.173 455.481 134.775 454.673 137.4 457.904C138.814 459.922 138.208 461.134 138.208 461.134L136.592 462.345C138.006 463.557 139.621 464.97 141.237 466.383C141.237 464.566 140.834 462.749 140.834 462.749C142.651 461.538 145.277 460.73 145.681 461.336C147.498 463.758 149.921 462.749 151.907 463.153C154.331 463.557 155.34 462.143 154.331 459.923C153.523 458.51 152.312 457.298 151.706 455.683C150.898 454.068 149.888 453.664 149.888 453.664C146.657 456.894 145.041 456.289 144.065 454.27C139.42 446.43 131.173 447.036 123.936 445.219L122.724 445.421C120.301 448.853 117.709 447.238 114.68 446.026C113.67 445.421 111.448 446.632 111.448 446.632C110.236 444.613 110.035 442.594 109.631 440.811L110.842 440.205V439.6L109.631 441.013C108.823 441.215 108.015 441.619 108.015 441.619C108.015 441.619 105.591 442.628 103.975 443.637C104.379 441.82 104.582 441.013 104.582 441.013C105.39 438.186 104.986 437.581 102.966 438.186L101.148 436.975C102.562 433.139 100.138 431.154 97.5129 429.539C95.8972 428.328 95.0891 427.318 94.6851 425.098C94.6851 423.684 93.4738 422.271 93.4738 422.271C92.2621 420.253 90.8483 419.445 90.8483 419.445C92.06 413.22 87.4152 412.009 84.4195 409.586C83.0058 408.375 82.3996 406.558 81.5918 404.943L78.764 402.117C78.764 402.117 78.7647 399.291 78.5627 397.676V397.877C79.9764 397.877 81.7937 400.098 82.3996 396.464C83.0055 392.426 83.2077 389.028 79.3705 386.403C78.1587 388.019 76.9465 389.835 75.5328 391.047C73.3112 392.864 72.5038 391.047 71.6959 389.23C75.1292 387.615 72.5035 385.192 72.3016 383.207C71.8977 380.785 70.6855 378.968 67.6561 379.775C67.6561 379.775 65.839 379.573 64.8292 379.371L65.0313 377.353C66.0411 371.734 65.0308 370.522 59.4095 370.522H57.3904H57.5918C56.582 369.311 55.9764 367.696 54.5627 366.888C49.1434 363.254 47.7294 360.865 49.1431 354.203C49.749 351.579 49.9513 349.156 48.7396 346.767C47.7298 344.143 46.1141 344.749 44.4984 346.364L44.7006 346.162C44.7006 346.162 43.6906 344.345 43.6906 343.537C44.7004 337.312 43.2865 332.064 37.6653 328.262C36.8575 327.656 36.8575 325.839 36.8575 325.839C36.2516 322.609 35.8478 320.993 35.2419 317.797C32.4145 322.036 33.8282 324.829 34.4341 327.656C36.0498 334.89 36.2519 334.89 34.6363 340.946C30.1931 338.725 33.6262 333.914 31.0007 330.684C28.7792 327.656 32.4147 323.046 29.5873 319.009C26.5579 322.239 24.7401 324.83 26.9617 329.069C28.5774 332.097 29.1834 335.496 27.9716 338.726C26.5579 342.158 25.7495 345.556 26.5574 349.19C26.5574 349.19 25.5478 351.209 25.1439 351.007L22.5183 349.392C22.3164 341.148 17.8735 334.116 16.8974 326.041C16.8974 326.041 16.0892 322.407 19.1186 322.811L20.1286 321.195C19.7247 319.782 19.1187 318.571 18.3108 317.36C16.4932 314.331 14.6755 311.337 14.8774 307.501C15.0794 305.482 13.8676 304.675 12.2519 305.886C10.2323 307.299 9.22284 306.29 8.415 304.473C7.80912 303.06 6.79938 301.445 6.79938 299.829C6.79938 292.797 3.56816 285.731 8.61715 278.699C10.4348 275.873 9.42496 271.263 13.6325 269.446C13.2285 266.216 13.8339 262.616 12.2182 260.193C10.1986 256.761 9.99701 254.776 12.6225 252.152L12.4203 250.133C12.4203 250.133 13.4305 249.931 13.6325 249.527L14.0359 248.114L12.8247 248.921L12.4203 250.133L10.4012 250.536C9.18947 253.968 5.75609 254.574 2.76035 256.156C3.36623 251.512 2.75999 247.104 6.59723 243.471C8.41486 241.654 7.60689 239.231 4.77945 236.236C2.62522 233.948 2.69273 231.403 4.98161 228.599C5.38553 229.204 5.99158 229.81 5.99158 229.81C6.19354 232.435 5.78912 236.035 8.01068 235.631C10.4342 235.025 14.0359 236.236 15.6516 232.603C16.8633 229.776 18.681 227.387 19.8928 224.561C20.4986 223.35 20.4986 221.735 19.8928 220.523C18.681 217.091 18.0756 214.097 18.6815 210.261C18.8834 208.04 16.4598 205.248 15.2481 202.825H15.0459C15.6518 202.219 16.2576 201.816 16.6615 201.21V201.412C17.6713 200.604 18.8832 199.797 20.0949 198.989C22.3838 196.97 24.2573 197.778 25.7159 201.412C26.3217 198.787 26.7258 196.398 27.5336 193.976C28.5434 191.351 29.7552 188.929 28.3414 185.934C27.3316 183.915 29.1492 183.108 30.7649 182.502L30.967 183.108L30.5635 182.704C31.3714 181.089 31.977 179.272 31.977 179.272C36.9923 173.451 37.1942 166.789 33.5926 161.17H33.7948C31.9771 158.142 32.1785 155.349 33.9961 152.522C35.2078 150.503 36.2183 148.485 38.0359 146.5C37.834 149.326 37.6314 152.119 37.4295 156.358C40.8628 153.128 43.4548 150.739 46.0803 148.518L49.5137 145.288C51.1294 144.279 51.5336 143.068 51.5336 143.068C50.7258 137.65 51.9374 134.622 54.7649 132.401C54.9668 133.007 55.1684 133.613 55.1684 133.613C55.7742 133.814 56.1783 133.613 56.1783 133.613L54.5627 132.603C54.7647 128.162 57.1881 124.965 60.3858 122.341C59.7799 123.754 58.7702 125.167 58.7702 125.167C57.9624 127.59 58.1644 128.801 57.9624 129.81C57.9624 129.81 60.1842 129.205 60.7901 128.599L62.8092 125.773C65.2328 121.937 62.2035 122.543 60.3858 122.543C61.3956 114.703 67.8245 111.271 72.8735 106.661C76.3069 103.633 79.7065 100.638 82.9378 97.4083C83.7457 96.8026 85.1597 95.3897 84.9578 94.7841C83.948 90.1408 86.9775 88.5593 90.1752 86.7424C92.1948 85.5311 94.2142 83.7141 95.0221 81.6953C97.8495 76.0762 103.269 74.0575 108.318 71.2311L109.933 70.4236C115.958 75.8408 117.372 67.7991 121.007 66.5878L121.613 65.982C121.613 65.982 119.19 64.7706 118.584 63.7611L119.998 60.9349C122.219 58.5123 124.643 56.2915 127.033 54.1044C129.254 57.3346 126.427 58.546 125.013 60.1274C124.407 60.9349 124.003 62.5499 124.407 63.3574L127.033 64.569C127.841 64.569 128.649 63.1556 128.851 62.1461C129.86 59.9254 130.668 57.503 131.677 54.7103C132.755 58.1871 134.696 59.2637 137.501 57.9403C140.53 56.5271 143.324 55.1141 146.354 53.9028L147.767 53.2969C151.806 53.4988 150.191 46.2649 153.994 47.6781C157.798 49.0913 159.616 46.2646 162.443 45.659C165.473 44.8514 168.468 43.6403 171.7 42.429C172.104 42.429 172.507 42.2273 172.507 42.2273L172.911 42.0252C172.911 42.0252 174.527 40.41 175.536 39.8044C178.162 37.5837 183.178 41.6217 184.592 35.969C188.631 37.5841 191.424 33.5461 195.059 33.5461L197.079 33.3444L198.695 35.7669C197.887 37.7857 196.675 39.4007 195.262 41.9915C198.089 41.5878 200.109 41.588 201.893 40.9824C203.912 40.3767 204.922 38.7614 203.71 36.5407C204.922 35.9351 206.942 35.3295 206.942 35.3295C208.355 28.2972 213.774 27.6914 217.814 25.4707C220.641 23.8556 224.849 26.0765 226.667 21.837L228.686 22.039C229.292 22.2409 230.099 23.0482 230.099 23.0482C236.326 21.2313 241.577 23.2502 246.997 24.4615C249.622 25.0672 251.036 22.8464 252.214 21.0295L252.82 19.8182C252.82 20.4239 252.82 21.0294 253.022 21.4332C254.436 25.269 255.244 25.471 258.441 22.8465C259.249 22.2409 260.259 21.4332 260.259 21.4332C266.284 22.0389 271.131 20.6256 276.147 19.2124C278.368 18.6067 280.186 19.4146 281.768 21.2315C283.787 24.2598 286.413 24.8652 289.611 22.6444C292.808 20.4237 296.645 20.6256 299.473 23.0482C302.098 25.4708 304.32 24.6635 308.124 22.8465C306.104 26.4804 305.296 28.8692 302.098 27.6915C299.877 26.884 296.275 29.7104 295.265 25.269C292.842 26.0766 289.846 25.8745 288.23 28.499L286.614 29.9123C284.595 28.2973 280.791 29.3067 279.781 25.6728C279.781 25.6728 278.57 24.6634 277.964 24.0578C277.56 25.0672 277.156 25.8746 276.752 26.884C276.752 26.884 276.752 27.8934 276.55 28.9028C272.107 25.6726 267.698 26.0765 262.851 27.6915C260.63 28.2972 258.206 28.9028 256.018 28.499C252.585 27.8934 250.598 28.7009 249.791 32.3348C249.589 32.9405 248.377 33.1423 248.377 33.1423L247.569 31.3257C248.579 29.7106 248.579 28.499 246.559 28.0953C244.742 27.8934 242.722 27.4898 241.342 28.2973C236.125 31.3256 230.47 30.9219 224.849 32.1332H225.05L224.445 29.7103C222.021 29.5084 219.598 29.7105 217.41 29.9123L216.804 31.9311L217.006 31.7294C213.371 31.7294 214.179 35.3633 212.361 37.1466C213.775 37.9541 215.188 38.5595 215.188 38.5595L216.601 38.9632C216.601 38.9632 212.765 39.7711 212.361 40.9824C210.947 44.0106 209.735 45.6254 206.537 43.2028C206.537 43.2028 204.922 43.203 204.114 43.4049C202.498 44.0105 200.681 44.6163 199.267 45.6257C198.661 46.0295 198.056 47.2407 198.056 47.2407C197.652 51.0765 195.026 50.6727 193.208 51.4803C193.208 51.4803 192.602 50.8746 192.602 50.6728C194.016 47.0389 191.188 47.6444 189.775 48.0482C184.928 49.4614 179.71 49.8653 175.671 54.4749C177.691 56.2919 179.508 57.9069 181.292 59.4883L181.091 59.2862L180.956 59.1852ZM93.8099 258.376L94.2143 257.771L94.0121 258.376H93.8099ZM130.432 380.314C133.058 380.112 133.462 378.496 132.856 376.276C132.654 376.074 132.25 375.872 131.846 375.468C131.442 376.881 131.038 378.295 130.432 379.506L130.635 380.314H130.432ZM447.273 124.965C447.273 124.965 447.677 128.196 448.081 129.609C448.081 129.609 449.697 131.022 450.101 130.82C450.909 130.618 451.717 129.81 451.717 129.81C451.919 128.397 451.515 127.186 451.515 127.186C449.697 126.177 448.284 125.773 447.072 125.167C447.476 122.946 448.081 120.928 448.283 118.943C448.687 114.905 444.85 113.727 443.066 111.103C443.066 111.103 442.259 111.103 441.855 111.305C442.662 113.121 443.47 114.737 444.076 116.52C444.278 116.722 444.278 117.126 444.278 117.126C442.662 120.962 445.893 122.543 447.307 124.965H447.273ZM173.921 441.888C173.921 441.888 171.093 441.08 169.68 440.475C169.478 437.446 165.236 434.654 169.478 430.818C170.891 429.405 168.872 426.78 166.045 426.175C162.41 425.367 161.803 424.358 161.399 418.94L161.197 419.142C164.833 419.748 168.435 420.555 171.666 422.978C175.503 425.804 179.71 428.193 183.951 430.818C184.355 431.222 185.164 431.625 185.164 431.625C189.203 431.02 192.4 430.212 196.036 429.607C194.824 426.78 194.016 424.189 193.007 421.565C191.997 419.142 188.159 417.729 189.775 414.129C193.006 414.331 194.42 418.974 198.022 417.157C193.007 409.519 189.977 408.308 182.74 411.336C180.923 412.144 179.913 411.538 178.499 410.529C175.672 408.51 173.08 405.683 169.04 407.904L167.02 407.702C162.375 403.665 154.937 405.683 151.133 399.862C151.133 399.862 147.902 398.651 146.286 398.046C149.921 402.689 147.902 406.693 145.478 410.327C143.257 413.759 140.059 413.557 137.635 410.327L134.606 406.895L133.798 407.702C132.587 408.712 134.001 412.144 130.567 410.932C128.346 409.923 125.922 409.116 128.952 406.087C128.952 406.087 129.153 403.059 128.547 402.049C127.134 399.223 125.518 396.834 123.532 394.411C121.916 392.393 119.493 390.778 118.685 386.572C122.32 388.994 124.912 390.812 127.537 392.595C127.537 390.374 126.73 389.163 125.922 387.749C125.114 386.336 123.7 384.923 123.7 383.308C123.7 381.491 125.114 379.674 121.883 379.27L120.671 374.425C120.469 373.618 119.459 373.012 119.459 373.012C115.016 371.195 115.016 371.397 116.43 367.999C118.248 363.961 117.844 362.951 113.602 361.168C104.952 357.938 103.134 352.925 107.577 345.085C107.577 345.085 107.779 344.479 107.779 344.277L111.414 346.094C111.414 346.094 112.02 343.268 111.616 342.057C110.001 338.827 107.981 335.63 106.399 332.4L105.187 332.804V337.245C101.35 332.03 97.7483 326.781 93.911 321.565H93.7097C95.7293 321.364 97.7484 320.96 99.9363 320.556C99.3304 318.941 98.9263 317.528 98.9263 317.528C97.7146 314.702 96.9067 313.894 94.6851 314.096C88.66 314.903 87.8524 313.692 89.0642 307.467C89.0642 307.467 90.0741 304.641 90.882 302.42C91.8918 304.237 92.0933 305.045 92.0933 305.045C93.507 306.458 94.3153 307.064 94.3153 307.064L95.931 304.641C94.5172 301.613 95.3248 299.426 97.3444 297.003C98.3542 295.994 98.3544 292.36 97.5466 291.956C94.9211 290.341 94.9213 286.539 92.6997 285.732C89.2664 284.52 89.2663 280.886 86.6745 279.305L84.0489 278.699L83.8467 278.497H84.0489C83.645 285.328 85.6644 290.778 93.1032 292.192L93.5075 293.605C90.8821 293.605 86.8762 292.192 88.0879 297.239V297.037C87.0781 296.835 86.0686 296.431 85.0588 296.229H81.8276C81.8276 296.229 81.6252 299.056 82.2311 300.065C82.2311 300.065 84.6551 301.478 85.261 302.689C85.6649 303.699 85.6647 305.516 85.0588 306.525L81.6255 308.746C80.8176 308.544 79.8079 306.727 79.202 305.516L78.9999 302.689C78.394 298.854 78.3939 294.85 77.1821 291.014C75.9704 286.573 74.961 284.991 75.163 281.559C75.5669 277.32 73.547 275.133 69.7434 273.518C69.1375 280.752 68.7338 287.616 68.3299 294.446C63.6849 291.216 63.8867 286.808 65.7044 282.568C66.9161 279.136 66.1079 276.546 65.3 273.518L63.6844 272.508C63.0785 272.508 62.271 272.912 62.271 272.912C61.6651 274.931 61.4632 276.344 61.4632 276.344C61.2612 281.963 62.0686 286.404 61.0588 290.442C60.049 294.681 60.049 298.484 62.6745 301.916C64.4921 303.934 66.5123 305.953 68.2962 307.939L70.9218 311.572H71.1231C70.5173 312.178 69.3062 312.784 69.3062 312.784C69.3062 319.008 69.5077 324.459 69.7097 330.078C72.1332 332.501 72.133 332.703 70.3153 333.107C68.2957 333.51 66.276 333.712 64.2901 334.116C61.2607 334.924 60.6549 336.135 61.8667 339.331C62.8765 341.754 63.0787 345.556 64.6944 346.565C67.7238 347.979 67.7238 351.209 69.7097 352.992C71.1234 354.203 72.3349 356.828 71.931 358.611C71.1231 363.826 74.3547 367.662 76.3743 371.7C77.3841 373.517 77.7884 375.535 78.3942 377.521L77.9899 377.924L78.1921 377.319C80.0097 377.723 82.2311 379.136 82.2311 379.136C84.6546 377.723 84.8565 375.3 85.4623 373.517C88.0878 375.536 90.3097 377.353 92.4976 379.136C93.9113 381.559 94.9213 385.764 96.9409 386.37C101.586 387.581 101.956 391.383 103.774 394.614C104.178 395.623 106.197 397.036 106.197 397.036C109.631 394.613 110.236 396.632 111.414 398.853C112.02 400.266 114.04 401.276 114.04 401.276C117.271 402.689 119.257 402.689 120.873 403.294C123.094 403.9 124.912 407.534 123.903 409.721C123.095 411.134 121.277 412.749 119.661 412.749C116.632 412.951 113.03 412.749 110.405 411.336C107.577 409.721 106.769 411.942 105.187 412.547C102.36 413.961 102.158 416.383 102.764 418.368C103.37 420.589 104.581 423.415 106.399 424.189C108.822 425.4 109.832 427.217 111.044 429.236C113.872 433.476 114.074 433.476 117.877 430.044C118.887 429.035 119.695 427.42 120.503 426.208C124.744 427.823 128.345 430.246 129.355 435.057C126.528 434.25 123.734 433.442 120.906 432.433C122.32 438.456 123.532 438.658 129.153 435.057C132.586 436.471 136.592 435.259 140.025 437.48L139.824 437.278C140.026 438.489 140.227 439.701 140.429 440.912C140.429 440.912 142.045 443.738 143.257 442.123C145.479 439.095 146.892 440.71 148.878 442.325C149.282 442.931 150.696 442.325 150.696 442.325V439.499L148.272 438.085C145.849 436.672 146.252 435.057 147.868 432.668C148.474 433.88 148.676 434.687 149.08 435.091C153.523 440.306 159.952 442.325 165.573 445.353L166.987 444.748C173.012 448.987 179.071 452.991 185.096 457.029C187.318 458.442 190.314 456.827 190.314 454.203C190.314 449.357 190.111 444.546 189.707 439.701C189.707 439.701 188.698 437.278 187.89 437.076C183.649 435.865 179.441 434.856 174.998 433.846L174.19 434.654C173.988 435.058 174.19 435.663 174.19 435.663C176.008 436.672 177.826 437.278 179.408 438.085C180.418 438.691 181.427 439.701 182.437 440.508L182.639 440.306C179.61 440.508 176.21 439.297 173.786 442.123V441.921L173.921 441.888ZM79.9088 251.344C80.8512 248.652 82.6572 247.508 85.3276 247.912C88.357 248.518 89.1653 247.71 89.1653 244.884C89.1653 242.663 88.7617 241.25 86.1362 241.25C85.1264 241.25 83.5106 240.241 83.5106 240.241C82.9047 234.621 77.687 234.016 75.4654 230.584C75.4654 230.584 73.6479 230.18 73.042 230.584C68.5989 233.41 67.2191 242.865 70.8207 246.061C72.4364 247.475 75.0614 247.878 77.0473 248.686V248.484C76.4415 251.512 75.4317 254.507 75.4317 257.535C75.4317 259.15 76.4421 261.775 77.6538 262.179C80.8852 263.39 80.4807 266.216 81.2885 268.605L80.885 268.807L81.0872 268.403C85.9342 268.807 86.1021 268.605 85.7319 264.971C85.328 262.549 86.9439 259.352 83.5106 257.333C83.5106 257.333 82.7024 255.516 83.1063 254.911C84.9239 250.873 81.8947 251.479 79.8751 251.277L79.9088 251.344ZM119.19 105.046C119.19 105.046 120.402 107.671 121.007 109.084L122.421 107.873C121.411 107.065 120.2 106.056 119.19 105.046C119.796 103.431 118.18 99.6292 122.623 101.412C122.623 101.412 124.239 100.605 124.643 99.9992C126.865 97.5766 128.884 95.5577 132.082 94.9521C132.082 94.9521 134.101 94.3467 134.303 93.5392C136.525 88.694 141.338 87.5163 145.175 85.0937C147.801 83.4786 149.618 82.0655 150.393 79.2728C150.998 76.4465 152.21 76.2445 154.836 77.052C160.053 78.2633 163.486 74.8314 163.082 69.6161C162.88 67.3954 162.073 65.1744 161.467 62.1798C160.053 63.593 159.043 64.1987 158.236 65.2081C157.226 66.8232 158.033 69.8514 155.206 70.2215C153.388 70.2215 151.167 69.6157 149.383 69.212C145.747 68.2025 144.738 68.8085 143.358 72.0386C142.55 73.8556 141.742 76.8836 141.742 76.8836C135.111 78.7005 133.293 82.5026 132.082 87.3478C131.88 85.329 131.476 83.1085 131.88 81.3252C132.082 79.9121 133.293 78.4987 134.505 76.1098C126.46 79.5418 119.426 82.1327 115.184 89.1986L115.387 88.9965C111.549 88.7946 109.564 91.8231 107.14 93.8419L105.726 96.6681C106.534 97.4757 107.947 97.8794 108.957 98.2831H111.179C108.957 100.302 106.736 101.917 104.952 103.902C103.134 105.921 103.538 108.344 105.557 110.127C107.577 111.91 108.991 111.54 111.179 109.319C113.199 107.503 115.218 103.7 119.223 105.08L119.19 105.046ZM205.124 430.414C204.72 431.02 204.114 431.625 204.114 431.625C203.71 435.865 203.509 439.465 203.105 443.099C206.134 443.503 208.927 443.705 211.755 444.108L213.169 445.118L211.957 446.531C209.937 446.329 208.726 447.339 207.312 448.55C205.293 449.963 205.696 455.986 201.085 452.385C198.661 455.616 194.252 457.803 195.867 462.85C196.473 463.052 196.877 463.254 196.877 463.254C200.512 463.456 204.316 461.235 206.134 466.08C206.538 467.089 209.769 467.695 211.149 467.291C213.976 466.282 215.996 468.099 218.386 468.705C217.578 471.935 220.001 471.329 221.819 472.136C224.848 473.549 226.262 472.136 227.239 469.714C228.046 467.089 225.825 464.297 223.2 463.893C220.574 463.489 217.982 463.085 215.154 462.682C216.972 456.659 220.001 453.429 226.026 454.035C226.834 454.035 228.45 453.025 228.45 452.217C228.854 449.795 229.258 447.002 228.854 444.579C228.45 443.57 225.824 443.166 224.209 442.561C224.209 442.561 222.795 442.561 222.19 442.359V442.561C225.421 439.869 225.758 436.448 223.2 432.298C223.2 432.298 223.805 431.087 224.007 430.482L224.411 429.068C222.391 427.655 220.17 425.838 218.184 427.453C214.549 430.078 211.755 429.068 208.523 427.049C206.1 425.636 205.494 426.444 204.888 430.482H205.09L205.124 430.414ZM89.6024 130.82C91.4201 129.609 97.2433 122.375 97.2433 122.375C98.859 118.943 99.4653 116.15 101.081 114.939C103.908 112.92 103.706 111.103 102.292 108.714C100.879 106.291 99.4649 104.07 98.0511 101.682C95.2237 103.7 92.834 105.517 90.6124 107.502C87.785 109.925 85.5976 112.549 86.9777 116.755L86.7755 116.554C88.7951 115.342 90.6127 113.929 92.5986 112.718C90.983 116.15 88.5589 118.539 86.1691 120.961C84.5534 122.778 82.9379 124.393 81.3222 126.177C79.7065 128.196 78.2929 130.82 76.3069 132.603C73.0756 135.834 70.8875 139.635 70.2816 144.077C69.8777 146.701 68.0602 146.903 67.0504 148.115L67.2526 147.913C64.4251 147.711 61.8329 147.307 58.3996 146.701C60.6211 151.748 55.371 152.724 54.1592 156.156C52.9474 159.588 51.735 162.987 50.1194 168.034C51.5331 166.217 52.1391 165.409 52.7449 164.804C55.1684 162.179 56.3806 162.381 57.3904 165.813C57.5924 166.419 57.592 167.226 57.7939 167.832C58.8037 169.245 60.2173 171.869 60.2173 171.869C62.8428 171.667 65.0643 170.254 66.0405 168.639C68.464 165.005 70.2821 160.8 72.47 156.964C73.4798 155.349 75.9028 153.936 76.1048 152.321C76.7106 146.702 80.1442 143.472 83.9478 140.241C83.9478 140.241 86.573 137.617 85.3613 135.396C83.3417 132.368 85.9675 130.551 87.3812 128.768C87.7851 128.162 88.9968 128.364 89.8046 128.162V130.786L89.4011 131.19C89.4011 131.19 89.6024 130.988 89.6024 130.786V130.82ZM409.44 94.1783C409.642 96.399 410.45 98.2159 409.844 99.5954C408.834 103.229 411.258 104.239 413.48 105.215C414.489 105.618 415.902 105.618 416.912 105.82C423.543 107.233 429.602 109.454 433.406 115.477C434.416 117.092 436.031 118.303 437.647 119.313C438.455 119.716 440.07 119.313 441.282 119.111C441.08 117.9 441.081 116.285 441.081 116.285C436.435 111.439 433.238 107.233 435.055 99.9992C431.016 103.431 426.808 102.018 424.789 99.9992C420.346 95.7596 415.33 95.3559 409.507 94.1783H409.44ZM169.916 460.596C171.127 461.807 172.137 463.22 173.551 464.431C178.97 469.075 179.374 469.074 185.433 464.229C185.433 464.229 187.655 463.422 188.664 463.018C190.684 462.614 190.078 461.403 189.068 460.797C188.058 460.192 185.837 459.586 185.837 459.586C183.009 462.412 182 460.595 180.216 459.182C178.802 457.769 176.782 456.76 174.998 455.952C173.786 455.347 172.373 455.952 173.18 457.567C176.21 463.388 170.555 458.779 169.949 460.596H169.916ZM231.682 444.681C231.682 444.681 232.287 447.507 233.499 448.718C234.913 450.333 240.13 450.131 241.342 449.122C243.563 446.497 244.169 441.888 242.15 439.263H240.131C238.717 443.301 236.293 440.878 234.509 440.071C232.489 439.263 232.085 439.667 232.085 441.686C232.085 441.686 231.884 443.099 231.682 444.714V444.681ZM337.98 457.769C337.98 457.769 339.393 457.164 339.797 456.558C341.817 453.934 343.634 451.141 345.418 448.314C346.226 446.901 348.045 444.882 347.843 443.671C346.833 440.643 344.813 444.075 343.197 443.671C343.197 443.671 341.985 442.864 341.379 442.662C338.552 441.854 337.744 442.258 338.148 444.882C338.552 448.718 339.764 452.318 337.138 455.952L337.946 457.769H337.98ZM43.6906 194.38L44.4984 191.957C44.2964 188.929 43.0846 185.732 46.114 182.906C47.7297 181.493 45.3062 180.079 45.3062 180.079C41.6709 178.666 41.4691 180.483 41.2672 181.694C41.0652 183.713 42.2766 185.732 39.2472 187.112C36.0159 188.525 36.0163 189.736 38.8438 191.553C40.2575 192.765 41.873 193.37 43.6906 194.38ZM247.804 467.224C246.593 468.031 245.987 468.637 245.18 469.041C244.372 469.445 243.563 470.252 242.755 470.252L240.534 469.445C240.534 466.013 238.918 467.628 237.706 468.637C237.1 469.243 236.899 475.871 236.899 475.871C239.12 476.073 241.14 476.275 241.14 476.275C244.977 473.651 248.579 472.439 247.771 467.224H247.804ZM354.473 465.407C354.272 464.801 354.271 463.792 354.271 463.792C353.06 460.965 351.847 457.567 351.241 457.769C348.616 458.375 350.838 460.797 350.434 462.211C350.03 463.22 348.818 464.028 348.212 464.835C348.212 464.835 346.799 467.863 346.597 469.276L348.212 471.295L354.44 465.474L354.473 465.407ZM491.571 237.044C491.167 243.067 490.965 247.912 490.763 252.926C490.763 252.926 491.975 254.137 492.58 254.339L494.196 253.531C494.196 249.09 494.196 244.48 493.994 240.038C493.994 239.231 492.984 238.626 491.571 237.011V237.044ZM292.471 473.886C289.846 474.29 287.827 473.886 287.827 473.886C286.211 476.914 283.989 478.126 282.003 479.505C282.003 479.505 281.195 481.524 280.993 482.534C282.205 482.534 284.023 483.139 284.629 482.331C287.254 480.111 289.274 477.486 292.471 473.886ZM320.073 463.624C323.102 462.816 325.088 462.614 326.905 461.807C328.925 460.999 328.521 459.99 326.502 459.384L326.3 457.366C326.704 456.76 327.915 456.558 327.915 456.558C327.915 456.558 329.329 454.539 329.733 453.933C328.723 453.53 327.31 452.52 326.704 452.924C326.704 452.924 324.28 455.347 323.271 456.962C322.261 458.577 321.453 460.596 320.039 463.59L320.073 463.624ZM418.091 409.687C415.869 412.312 414.051 414.129 412.671 416.114C412.267 416.72 412.066 417.931 412.47 418.537L414.893 419.142C418.73 418.133 419.134 417.123 418.124 409.687H418.091ZM49.3452 266.822C45.306 269.043 45.7103 272.037 46.3162 275.065C48.5377 274.661 50.3555 274.056 52.3414 273.45C51.3316 271.23 50.3213 269.211 49.3115 266.822H49.3452ZM55.3705 222.777C60.2175 220.153 60.7898 218.74 58.8039 215.947C58.4 215.342 57.1883 214.736 57.1883 214.736L54.7649 216.553C54.7649 218.572 55.1685 220.59 55.3705 222.777ZM54.5627 331.424C57.996 329.607 57.39 327.588 56.9861 325.805C56.5822 323.988 55.9764 322.171 55.3705 320.388H54.7649L53.5527 321.801C53.7547 324.829 54.1588 327.824 54.5627 331.458V331.424ZM284.225 47.5097C287.456 50.1342 290.048 49.3269 292.27 47.7118C292.27 47.7118 293.28 45.8947 293.078 45.491C293.078 45.491 291.461 44.0776 290.856 44.4814C288.836 45.087 286.817 46.2984 284.225 47.5097ZM159.851 453.16C160.659 452.15 161.063 451.343 161.467 450.535C163.486 447.911 160.659 447.103 159.649 445.488H157.831C157.831 446.901 157.629 448.516 157.831 449.929C158.033 450.939 159.043 451.746 159.851 453.16ZM54.5627 200.234C57.1882 199.023 59.208 198.215 59.006 195.591C58.8041 194.581 57.9961 193.37 57.1883 192.966L54.7649 194.581C54.3609 196.196 54.5627 198.013 54.5627 200.2V200.234ZM33.4241 214.904C30.0806 216.654 28.5993 219.536 28.9808 223.552C30.5965 220.12 32.0104 217.529 33.4241 214.904ZM217.208 473.684C216.198 474.896 214.785 476.309 214.785 476.309C215.794 477.924 217.006 479.135 217.006 479.135C219.025 479.337 220.641 478.126 220.641 478.126C220.035 476.107 218.622 475.098 217.208 473.684ZM50.7258 179.306C54.3611 179.104 55.9431 177.69 56.5489 175.268C56.7509 174.662 56.347 173.451 55.7411 172.845C55.3372 172.643 53.923 172.845 53.519 173.451C52.5092 175.066 51.9039 176.681 50.6921 179.272L50.7258 179.306ZM305.565 480.515C308.393 480.515 309.2 478.899 309.402 476.881C309.402 476.477 308.392 475.468 308.392 475.468C306.373 476.477 304.555 477.688 302.569 478.698C303.781 479.303 304.791 480.111 305.599 480.515H305.565ZM388.908 87.1461L387.493 89.5686C387.493 90.578 392.139 95.5916 392.139 95.5916L394.158 94.7841C392.542 92.3615 390.927 89.9388 388.941 87.1461H388.908ZM20.5321 239.668C22.1478 236.842 24.9757 234.655 22.7542 230.415C20.9365 233.646 19.7243 236.236 20.5321 239.668ZM57.5918 210.9C56.38 209.487 55.5725 208.074 55.3705 208.276C55.3705 208.276 52.7452 209.891 51.3315 210.698C51.9374 211.304 52.5428 212.313 52.5428 212.313C54.3604 212.313 55.7741 211.506 57.5581 210.9H57.5918ZM477.063 187.347C477.063 187.347 478.072 187.347 478.476 187.145C478.476 187.145 480.092 183.511 478.881 181.526L477.265 181.324C477.265 181.324 476.457 184.757 476.053 186.54C476.053 186.54 476.861 187.145 477.063 187.347ZM68.2625 135.228C69.6763 134.622 70.8881 134.622 70.8881 134.622C72.0999 133.209 72.3011 131.796 72.7051 130.786L71.8973 129.777C69.0698 129.171 70.0798 132.603 68.666 133.411C68.666 133.411 68.4645 134.219 68.2625 135.228ZM57.9961 319.547L60.2173 316.518C60.2173 315.711 59.2082 314.903 59.2082 314.903C59.2082 314.903 56.9865 315.711 56.5826 316.72C56.5826 316.72 57.1882 318.133 57.9961 319.547ZM256.86 471.463L257.061 470.454C256.051 470.05 255.042 469.445 254.234 469.445L252.012 470.05L253.83 471.463H256.86ZM259.889 432.635C257.667 431.827 256.455 431.222 256.455 431.222L254.637 431.827C255.445 432.836 256.456 433.644 257.667 434.25C257.667 434.25 258.677 433.644 259.889 432.635ZM35.8476 245.489C38.9443 242.663 39.5503 240.117 37.6653 237.852C37.2614 240.072 36.8574 241.889 35.8476 245.489ZM59.9823 190.779C60.9921 188.76 61.7999 187.347 62.4057 185.934L61.3958 185.328C61.3958 185.328 58.5686 187.549 59.9823 190.746V190.779ZM289.476 491.988C289.072 491.786 288.668 491.786 288.668 491.786C287.86 493.402 287.457 495.016 287.255 496.631L287.658 497.439L289.274 496.631C289.274 496.631 289.476 493.401 289.476 491.988ZM336.97 465.609C337.777 466.416 338.384 467.022 338.384 467.022C339.596 466.82 340.403 466.215 340.403 466.215C340.403 466.215 339.595 463.792 338.99 463.792C338.99 463.792 337.777 464.801 336.97 465.609ZM46.7197 333.241C46.7197 333.241 45.5084 334.654 45.5084 334.856L47.124 336.875C47.5279 336.269 48.5374 335.664 48.5374 335.664L46.7197 333.241ZM342.389 427.386L341.985 429.607L343.197 430.818C343.399 430.212 344.005 429.607 344.005 429.607L342.389 427.386ZM169.713 454.169C169.713 454.169 169.31 452.958 169.108 452.554C168.502 453.361 167.896 454.169 167.492 455.178L168.3 456.39C168.906 455.582 169.309 454.774 169.713 454.169ZM204.922 421.363C204.922 421.363 206.336 422.171 206.942 422.372L207.345 421.363C207.345 421.363 206.74 420.354 206.336 419.95L204.922 421.363ZM111.717 406.861L111.112 407.87C111.112 407.87 111.717 408.678 111.919 408.88C111.919 408.88 112.525 408.476 112.929 408.274C112.929 408.274 112.121 407.467 111.717 406.861ZM462.757 334.049L461.95 334.856L462.152 335.462C462.556 335.462 462.96 335.26 462.96 335.26L462.757 334.049ZM117.776 440.071L116.766 440.878C116.766 440.878 116.969 442.089 117.171 442.695L118.382 442.09C118.382 442.09 117.978 440.677 117.776 440.071ZM362.316 76.8836C362.114 76.4798 361.912 75.8744 361.912 75.8744C361.508 75.6725 360.902 75.8744 360.902 75.8744L361.307 77.2873C361.509 77.0855 361.912 77.0855 362.316 76.8836ZM49.1431 171.466L49.5474 170.456L49.1431 170.254L48.3353 170.86L49.1431 171.466ZM68.2625 114.098L67.8582 113.895L67.4547 114.703H68.0604L68.2625 114.098ZM10.0643 281.526L9.65999 281.727L9.86214 282.939L10.4678 282.535C10.4678 282.535 10.2663 281.929 10.0643 281.526ZM81.5244 284.318V283.712L81.1201 283.914L81.5244 284.318ZM47.5275 340.677L47.3261 340.071L46.9218 340.879L47.5275 340.677ZM132.452 400.232L132.856 399.627H132.048L132.452 400.232ZM371.202 416.922L371.808 416.72L371.606 416.114C371.404 416.114 371.202 416.316 371.202 416.316C371 416.518 371.202 416.72 371.202 416.922ZM418.898 83.1082L419.504 82.7045L418.898 82.5028V83.1082ZM262.48 431.222L262.884 431.423V431.02L262.48 431.222ZM246.795 440.071H246.391L246.593 440.676L246.795 440.071ZM116.161 325.368L116.564 325.166L116.161 324.762V325.368ZM187.621 467.022L187.419 466.82V467.224L187.621 467.022ZM519.138 246.499L518.128 248.316C518.33 256.358 518.734 264.197 519.138 272.273C519.138 272.273 520.754 273.484 521.763 273.686L523.581 273.08C524.187 283.141 524.793 292.797 525.399 302.252C526.611 300.839 527.216 299.224 527.216 297.609V281.324C527.216 278.699 526.408 275.704 527.62 273.686C528.63 272.272 529.236 271.667 528.428 269.85C527.418 267.629 527.014 264.803 526.005 262.414C525.601 261.203 524.59 259.386 523.783 259.386C520.349 258.78 520.551 256.761 520.551 254.171C520.753 251.546 520.35 249.123 520.148 246.533H519.138V246.499ZM342.389 51.5472C342.389 51.5472 340.168 50.3363 340.571 52.7589C340.571 52.7589 339.36 54.7776 338.754 54.7776C336.532 54.5757 334.109 54.5758 332.123 53.5664C329.901 52.557 328.488 51.9511 326.704 54.1718C326.3 54.5756 325.29 54.7776 325.29 54.7776C324.28 54.172 323.876 53.1626 323.876 53.1626C324.28 51.1438 325.29 49.9322 325.29 49.9322C325.694 46.5002 325.088 44.8854 322.463 44.7172C318.02 44.3134 321.251 50.7397 317.245 51.1435L316.64 53.5664C316.64 53.5664 317.044 54.3737 317.447 54.5755C321.083 55.585 323.876 59.9928 328.521 57.2001C328.521 57.2001 330.541 57.8059 331.753 57.8059C336.97 58.0078 342.624 61.6414 347.034 55.383C345.62 54.1717 344.207 52.7585 342.389 51.5472ZM393.519 69.2456C392.711 67.6306 392.307 65.4098 391.095 64.6023C386.08 61.5741 380.627 58.5796 375.208 56.3589C371.976 55.1476 373.996 58.176 373.794 59.3873L374.803 59.5889L373.794 59.1852C372.583 60.1946 371.169 61.2043 371.169 61.2043C371.977 63.2232 373.996 63.6266 375.813 63.021C378.641 62.4154 380.661 62.2137 381.233 66.2514C381.233 67.2608 383.656 68.2699 385.07 68.4718C385.676 68.4718 386.484 66.4531 386.484 66.4531C389.312 67.0587 391.499 68.068 393.721 69.2793H393.519V69.2456ZM485.107 146.701C484.299 145.288 483.492 143.673 482.482 142.462C480.665 140.443 478.847 138.424 482.482 136.439L481.876 134.622C480.058 135.026 478.039 135.43 476.255 135.833C484.906 155.753 488.541 161.002 494.566 160.8C492.748 158.175 491.133 155.954 489.551 153.767C488.137 152.152 485.713 148.148 485.107 146.533V146.735V146.701ZM497.596 408.678C503.217 405.246 506.852 396.8 505.236 390.576C505.034 389.566 504.025 388.557 503.217 387.952C502.207 387.548 500.995 387.75 499.986 387.548C499.986 388.355 499.581 389.567 499.581 389.567C503.216 394.21 501.601 398.416 498.976 401.242C496.754 403.866 496.754 406.087 497.562 408.88V408.678H497.596ZM378.035 53.7344C376.689 49.7191 373.738 47.9809 369.182 48.5193L366.356 47.106L367.365 45.2889L366.759 42.8664C364.739 42.8664 363.123 43.2704 361.339 43.4722C361.541 44.8854 361.744 46.5001 361.744 46.5001C362.148 48.9227 362.552 49.7305 362.754 50.538L362.552 50.7397C363.965 50.5378 365.985 49.5285 365.985 49.5285C370.428 52.3548 374.434 51.9513 378.069 53.5664V53.768L378.035 53.7344ZM508.669 169.447C508.467 168.841 506.852 168.236 505.842 168.236L503.822 169.649C505.842 172.879 503.418 177.287 506.246 180.315C507.054 180.92 508.266 181.93 508.871 181.728C508.871 181.728 510.285 179.911 510.689 179.306C510.083 175.672 509.477 172.475 508.669 169.447ZM507.66 186.338C507.054 187.549 505.64 188.962 505.64 190.375C506.044 195.019 504.832 200.234 508.266 204.474C508.67 201.445 508.266 198.451 508.266 195.624C508.266 192.596 508.669 189.601 508.871 186.573C508.467 186.573 508.064 186.371 507.66 186.371V186.338ZM523.345 246.701C524.759 249.123 521.931 253.329 526.577 254.339C528.798 249.695 524.557 245.893 524.557 241.452C524.557 241.452 523.547 239.837 522.941 239.433C522.133 239.029 521.326 238.827 519.508 238.423C521.124 241.855 522.134 244.245 523.345 246.667V246.701ZM324.684 24.9663C322.664 26.5814 322.463 29.2058 324.078 30.3835C325.896 31.5947 328.925 31.3926 331.315 31.7964L331.719 31.191C329.094 30.3834 331.719 25.9755 328.286 25.9755C327.074 25.9755 325.862 25.168 324.448 24.7642L324.65 24.9663H324.684ZM378.035 53.5327C379.045 55.7534 380.863 56.5608 383.051 55.5514C384.868 54.7439 385.474 53.3309 385.676 51.1102C385.878 48.4857 385.474 46.6686 382.444 46.2648C382.444 49.4949 381.637 52.4894 378.002 53.7007V53.499L378.035 53.5327ZM514.089 287.75C511.463 288.356 509.242 288.76 507.054 289.365L506.65 291.384C506.852 291.788 507.861 292.394 507.861 292.394C510.285 290.375 512.102 292.192 514.492 293.605C514.29 291.586 514.291 289.971 514.089 287.784V287.75ZM397.76 65.0061C397.76 65.0061 399.78 63.9967 400.79 63.3911L400.587 63.5931C396.952 61.3724 393.956 57.974 388.503 59.7573C391.735 61.5743 394.731 63.1893 397.962 64.8044L397.76 65.0061ZM519.946 339.87C520.753 338.456 521.764 337.245 521.966 335.832C522.168 333.208 520.148 330.617 521.966 327.79L520.956 326.983C520.552 327.185 519.541 327.79 519.541 328.194C519.339 332.03 519.138 335.832 518.936 339.668L519.946 339.87ZM359.522 513.926L358.715 512.715C354.877 514.532 349.862 514.532 348.65 520.555C352.286 518.334 355.887 516.113 359.522 513.926ZM290.889 0.03368C289.476 0.03368 287.052 -0.168219 286.85 0.437429C286.042 2.25437 286.245 4.47502 286.245 6.25832L287.658 6.4604L289.072 4.8454C287.86 2.62469 289.274 2.62457 289.274 2.62457C291.091 2.42269 291.495 1.81708 291.495 1.81708C291.495 1.81708 291.293 0 290.889 0V0.03368ZM311.591 29.4076C311.591 29.4076 314.62 30.4169 315.832 30.2151C317.448 29.8113 319.063 28.8018 320.477 27.9942C319.467 25.5716 317.448 26.9848 315.832 27.1867C314.418 27.3886 313.206 27.7926 313.206 27.7926C311.793 28.6001 311.591 29.0038 311.591 29.4076ZM392.307 523.381C394.731 521.362 396.952 519.343 400.149 516.551C392.711 518.771 391.903 519.377 392.307 523.381ZM136.087 34.623C136.491 37.6513 136.895 40.6459 137.299 43.4722C138.309 40.6459 139.319 37.8529 138.915 34.8247C138.713 32.4021 137.097 33.8153 136.087 34.8247V34.623ZM512.305 201.849C510.285 206.089 510.689 209.083 513.517 213.323C513.921 208.68 513.92 205.685 512.305 201.849ZM476.659 434.654C479.486 432.635 480.294 429.438 480.9 426.208V426.41C475.884 429.438 475.683 429.842 476.861 434.855L476.659 434.654ZM175.536 7.67164C175.335 8.88294 174.729 10.2962 174.729 10.2962C174.931 12.315 176.143 12.9203 176.749 13.7279L178.364 10.9016C178.162 9.69034 177.152 8.47898 176.546 7.46956C175.941 7.67145 175.536 7.67164 175.536 7.67164ZM458.55 110.901C460.973 113.122 462.993 114.737 464.777 116.318C463.162 112.841 461.086 111.035 458.55 110.901ZM57.3904 370.253C57.3904 370.253 52.7453 368.436 54.7649 372.474C54.7649 372.474 56.1786 375.906 59.006 375.906C58.1982 373.685 57.7942 371.868 57.1883 370.287H57.3904V370.253ZM180.956 59.1852C182.572 58.5795 184.188 58.3779 185.399 57.3685L185.601 54.3402L182.774 54.9456C181.966 56.1569 181.764 57.9741 181.158 59.3873L180.956 59.1852ZM350.064 48.1156C349.458 47.9137 348.448 48.3174 347.64 48.5193C347.438 48.7212 347.236 49.7305 347.236 49.7305C348.044 50.1343 348.852 50.5378 349.66 50.7397H354.305C352.689 49.7303 351.478 48.7212 350.064 48.1156ZM523.345 307.67C523.345 308.477 523.749 309.486 523.951 310.294L525.365 309.688C525.365 309.688 525.163 307.669 524.961 305.852C523.951 306.862 523.345 307.266 523.345 307.67ZM275.776 490.575L275.17 489.566C274.363 490.575 273.555 491.382 272.747 492.392L273.757 493.805C274.565 492.594 275.17 491.585 275.776 490.575ZM519.946 354.136C520.753 354.136 521.359 353.732 521.359 353.732C522.773 354.338 523.379 354.943 523.379 354.943L523.783 352.723L521.561 352.117C520.955 352.319 520.552 353.531 520.148 354.338L519.946 354.136ZM481.304 438.254C483.728 436.639 484.535 434.822 482.718 430.818C482.112 434.25 481.708 436.235 481.304 438.254ZM462.757 106.46C462.151 105.652 461.343 104.844 460.737 104.239C460.737 104.239 459.93 104.441 459.526 104.642C460.132 105.45 460.738 106.46 461.344 107.267C461.344 107.267 462.353 106.661 462.757 106.46ZM469.624 399.021L469.22 400.031C470.23 400.838 471.24 401.444 472.25 402.252L473.058 400.434C471.846 400.031 470.836 399.425 469.624 399.021ZM295.905 502.049C295.905 502.049 295.097 502.856 294.693 503.26C295.501 503.664 296.107 504.068 296.107 504.068L297.925 503.462C297.319 503.058 296.712 502.452 295.905 502.049ZM491.368 147.105L489.955 148.922C489.753 148.922 490.763 149.73 490.763 149.73C490.763 149.73 492.176 148.72 492.984 147.913C492.378 147.509 491.57 146.903 491.368 147.105ZM509.074 367.225C509.074 367.225 510.285 367.023 510.891 367.023C510.689 365.408 510.285 363.995 510.285 363.995L509.074 362.581V367.426V367.225ZM384.06 476.275C383.656 476.275 383.252 476.881 383.252 476.881L384.666 478.698C384.666 478.698 385.474 477.688 385.878 477.083C385.272 476.679 384.666 476.073 384.06 476.275ZM414.051 451.746C413.446 452.352 412.839 452.958 412.839 452.958V454.573L414.657 452.958C414.253 452.352 414.253 452.15 414.051 451.746ZM164.261 16.3188C165.271 15.7131 166.28 15.1076 167.088 14.3C167.29 14.0981 166.886 13.0888 166.886 13.0888H165.674C165.068 14.0982 164.866 15.3094 164.462 16.3188H164.261ZM78.3268 397.608L79.1347 395.185L78.1247 393.57L77.1147 395.387L78.3268 397.406V397.608ZM422.096 73.0478C422.096 73.0478 422.702 74.0573 423.106 74.4611L424.318 74.0574L423.308 72.644L422.096 73.0478ZM497.394 157.368C497.394 157.368 496.585 157.57 496.182 157.771L496.989 159.386C496.989 159.386 498.201 159.79 499.009 159.386C498.403 158.579 498 157.973 497.394 157.368ZM391.331 528.395L392.341 529C392.341 529 393.552 527.991 394.158 527.385C393.754 527.183 393.35 526.981 393.35 526.981C393.35 526.981 391.937 527.789 391.331 528.395ZM478.476 111.305L479.486 112.112L480.294 111.305L478.678 110.093L478.476 111.305ZM310.008 497.405L308.999 498.617L309.402 499.828C309.402 499.828 310.008 499.021 310.21 498.617L310.008 497.405ZM267.125 495.016C267.731 494.209 268.337 493.603 268.539 492.796L268.337 490.979L266.722 492.594C266.52 493.402 266.923 494.209 267.327 495.219L267.125 495.016ZM395.134 476.275C395.336 474.862 395.74 473.449 396.144 472.036L395.336 471.834C395.336 473.045 395.135 474.458 394.933 475.669L395.134 476.275ZM361.339 43.4722C361.339 43.4722 359.926 41.6552 359.118 40.8477L357.503 41.0493C357.503 41.0493 357.906 42.0591 358.108 42.261L361.339 43.4722ZM350.669 43.876L349.66 44.4814L350.669 46.0964C350.669 46.0964 351.478 45.6929 352.892 44.6835L350.669 43.876ZM19.9264 187.953C19.9264 187.953 20.3308 187.145 20.3308 186.742L19.523 185.732L18.513 186.54L19.9264 187.953ZM7.87673 260.799C7.87673 260.799 7.67457 261.405 7.67457 261.808H8.07807L8.48238 261.203L7.87673 260.799ZM527.99 318.941L528.394 319.547C528.596 319.143 529 318.941 529 318.941V318.335L527.99 318.941ZM0.403492 290.173L0 291.182L0.202157 291.788L1.00996 291.384L0.403492 290.173ZM518.33 211.304L518.128 211.91C518.128 211.91 518.532 212.313 518.734 212.717L519.34 211.708C519.34 211.708 518.532 211.304 518.33 211.304ZM202.296 33.4118V30.3835L201.085 30.7872L202.296 33.2097V33.4118ZM155.812 36.238C156.418 36.0361 156.822 35.6322 156.822 35.6322L156.62 34.623C156.62 34.623 156.215 35.834 156.014 36.4397L155.812 36.238ZM14.9111 202.657C15.517 202.051 16.1228 201.647 16.5268 201.042V201.244L13.6998 200.436L15.1133 202.657H14.9111ZM517.926 233.612L518.128 234.218C518.128 234.218 518.532 233.612 518.734 233.41L518.128 233.006L517.926 233.612ZM400.587 67.8327V64.8044L400.79 65.0061H398.77L397.962 64.8044L400.79 67.8327H400.587ZM324.684 24.9663L325.694 23.3513C325.29 23.957 324.886 24.3605 324.886 24.3605L324.684 24.9663ZM216.804 31.6284C216.602 32.0321 216.198 32.4359 216.198 32.4359L217.006 34.253V33.0413L216.601 31.83L216.804 31.6284ZM339.394 34.2193C339.192 34.0174 338.99 33.8155 338.99 33.8155L337.98 34.623L338.787 35.0268C338.787 35.0268 339.192 34.4212 339.394 34.2193ZM472.417 144.683C472.215 144.481 471.812 144.481 471.812 144.481V145.49C471.812 145.49 472.014 145.288 472.216 145.288L472.417 144.683ZM503.217 287.144C503.217 287.144 504.024 286.337 504.63 285.933H504.025L503.419 287.144H503.217ZM472.417 395.589L471.812 395.791C471.812 395.791 472.216 396.195 472.216 396.397L472.417 396.195V395.589ZM75.4991 400.434L74.4891 398.819L73.8835 399.627L75.4991 400.232V400.434ZM81.3222 404.64L80.1109 405.246L79.9088 405.852L80.3123 405.65L81.3222 404.64ZM444.244 421.969H443.234L442.831 421.767V426.208C442.831 426.208 443.84 423.382 444.244 421.969ZM480.9 426.376C480.9 426.376 481.506 425.165 481.708 424.358C481.506 424.963 481.102 425.569 481.102 425.569L480.9 426.376ZM103.471 447.507L103.269 447.911C103.269 447.911 103.672 448.112 103.874 448.314C103.672 447.91 103.471 447.709 103.471 447.507ZM107.712 449.929L107.308 450.131L107.712 450.535V449.929ZM182.572 483.543L181.764 483.946L181.36 485.562C181.36 485.562 182.168 484.956 182.37 484.552V483.341L182.572 483.543ZM414.859 512.109L414.254 511.504L413.849 511.907L414.254 512.311L414.859 512.109ZM497.596 408.88L496.788 409.889L497.191 410.293L497.596 408.678V408.88ZM420.312 505.447L420.11 505.851H420.716L420.312 505.447ZM193.646 54.5419H194.252L194.454 54.3402C194.252 54.5421 194.049 54.5419 194.049 54.5419H193.646ZM514.694 220.961L514.291 220.153L514.492 220.557V220.961H514.694ZM134.674 36.238L134.269 37.4493L134.674 36.4397V36.238ZM203.508 36.4397C203.104 35.4303 202.7 34.2191 202.296 33.2097V33.4118C202.7 34.4212 203.104 35.4303 203.508 36.4397ZM514.694 220.961L514.897 221.768L515.099 221.97C515.099 221.97 514.896 221.364 514.694 221.162V220.961ZM164.462 16.3188H164.059L163.453 16.7225C163.453 16.7225 164.059 16.5207 164.261 16.3188H164.462ZM16.9311 319.547V319.143H16.5268L16.9311 319.547ZM44.4984 345.893C44.7004 346.094 44.9027 346.296 44.9027 346.296C44.9027 346.296 45.3064 346.498 45.5084 346.498C45.1044 346.296 44.7002 346.296 44.2962 346.094L44.4984 345.893ZM519.946 354.136V354.943L520.148 354.338L519.946 354.136ZM493.758 373.483L493.96 372.474V372.676L493.556 373.281L493.758 373.483ZM481.708 383.14L481.506 382.534L481.304 382.938L481.708 383.14ZM393.519 69.2456L393.721 69.4477V69.2456H393.519ZM476.659 434.654L476.457 434.855H476.861L476.659 434.654ZM193.646 54.7439V54.9456V54.5419V54.7439ZM362.518 50.7397H362.72V50.538L362.518 50.7397ZM155.812 36.238L155.61 36.4397H156.014L155.812 36.238ZM136.087 34.623C136.087 34.623 135.078 35.8343 134.674 36.238V36.4397C135.078 35.834 135.683 35.2285 136.087 34.8247V34.623ZM141.708 477.89L140.295 476.275H140.092L141.708 477.89ZM393.721 477.688C394.125 477.284 394.731 476.881 394.731 476.881L395.134 476.275C395.134 476.275 394.124 477.284 393.519 477.688H393.721ZM393.519 477.688L393.316 478.092L393.721 477.688H393.519ZM309.2 491.988L308.797 492.392L309.2 492.19V491.988ZM31.8085 162.616C31.8085 162.616 33.0204 161.607 33.6263 161.001H33.4241C32.8183 161.405 32.4142 162.011 32.4142 162.011L31.8085 162.616ZM76.9126 401.848C76.9126 401.848 75.903 400.838 75.4991 400.232V400.434C75.903 400.838 76.3069 401.444 76.3069 401.444L76.9126 401.848ZM76.7112 402.049L78.529 401.848H76.9126L76.7112 402.049ZM102.057 366.417C104.481 369.446 108.688 370.455 110.707 374.055L112.525 373.853L112.929 372.642C111.516 368.806 111.314 363.995 106.096 362.985C103.875 362.581 102.865 361.168 102.663 359.149C102.663 355.717 100.845 352.117 103.269 348.887C103.269 348.887 104.077 347.272 103.673 346.868C101.047 343.84 98.2536 340.644 95.2242 337.817L92.8008 339.432C93.2047 341.047 93.8099 342.864 94.6178 344.277C94.6178 344.277 97.4455 346.296 98.2533 347.508C99.0611 348.517 98.8593 350.132 99.2633 351.343C99.2633 351.343 96.8395 352.151 95.6277 351.949C95.6277 351.949 92.8004 350.738 92.3965 352.958C92.1945 354.775 92.3966 355.785 95.0221 355.785C98.0515 355.987 98.2534 356.794 96.6377 359.823C96.4357 360.428 96.032 360.832 96.032 360.832C98.4555 363.254 100.677 364.466 102.057 366.451V366.417ZM116.363 427.588C116.363 427.588 119.19 426.578 120.604 426.175L120.402 424.761C120.2 422.742 119.392 420.925 116.968 421.329C115.757 421.531 113.737 422.541 113.333 423.55C112.525 425.973 114.948 426.578 116.564 427.386L116.363 427.588ZM181.36 421.767C183.379 425.804 186.981 424.795 190.415 424.593C190.617 424.593 191.222 422.574 191.02 422.372C190.011 421.767 189.001 420.757 187.789 420.757C185.568 420.757 183.346 421.363 181.158 421.767H181.36ZM75.7013 352.958C75.9032 351.949 76.3069 351.141 76.3069 351.141C76.105 349.324 75.4995 348.719 75.0956 347.911C74.6917 348.517 73.8835 349.324 73.8835 349.324C74.2874 350.939 75.0954 351.949 75.7013 352.756V352.958ZM90.7809 342.898C90.7809 342.898 89.9727 341.485 89.5688 340.677L88.3575 342.09C88.3575 342.696 88.7613 343.503 89.1653 344.715C89.9731 343.705 90.7809 343.302 90.7809 342.898ZM162.847 414.701C162.039 415.306 161.231 415.71 161.231 415.71C158.606 417.931 159.616 418.537 161.433 418.94L161.231 419.142C161.635 417.527 162.241 416.114 162.645 414.701H162.847ZM152.782 426.175C153.186 426.578 153.59 427.386 153.59 427.386C154.398 427.588 155.206 427.184 155.206 427.184C155.408 426.376 155.206 425.771 155.206 425.771C153.994 425.569 153.388 425.771 152.782 426.175ZM148.373 423.584L149.383 423.987L149.989 423.18L148.979 422.574L148.373 423.584ZM181.158 421.767C181.158 421.767 179.744 420.757 179.138 420.354L177.725 420.152C178.129 420.555 178.33 421.363 178.734 421.363L181.36 421.767H181.158ZM121.984 414.701L121.176 415.508L122.994 416.316L123.599 415.307C123.599 415.307 122.59 414.903 121.984 414.701ZM110.909 420.152L110.707 420.757L111.112 420.555C111.112 420.353 111.111 420.152 110.909 420.152ZM140.295 417.527L141.305 418.335L141.91 417.527L140.9 416.518L140.295 417.527ZM79.9088 340.071C79.9088 340.071 79.7064 339.062 79.5045 338.658L78.8988 337.447L79.101 338.86C79.101 338.86 79.7068 339.668 79.9088 339.87V340.071ZM106.5 343.1C106.096 341.081 105.692 339.264 105.086 337.279C105.692 339.298 106.096 341.114 106.5 343.1ZM79.9088 339.87C79.9088 340.475 79.7066 340.879 79.7066 341.283C79.7066 341.283 80.3127 342.09 80.7166 342.292V341.485C80.7166 341.485 80.1107 340.475 79.9088 340.071V339.87ZM164.261 413.119L164.867 412.716V412.312C164.665 412.716 164.462 412.917 164.462 412.917L164.261 413.119ZM109.53 416.518L109.125 416.72L109.53 417.123V416.518ZM140.092 437.446C140.496 437.244 140.699 437.043 140.699 437.043C140.699 437.043 140.295 437.244 139.891 437.244L140.092 437.446ZM75.7013 352.958L75.9034 353.362L75.7013 352.756V352.958ZM92.5986 379.102C92.5986 379.102 92.8008 378.496 92.8008 378.093C92.8008 378.496 92.5986 378.699 92.5986 378.699V379.102ZM155.61 409.082L157.023 410.495L157.226 410.293C157.226 410.293 156.216 409.284 155.812 408.88L155.61 409.082ZM158.639 411.706C158.235 411.302 157.63 410.697 157.226 410.293L157.023 410.495C157.629 410.899 158.034 411.303 158.438 411.908L158.639 411.706ZM164.261 413.119C163.857 413.725 163.251 414.129 162.645 414.734H162.847C163.251 414.331 163.856 413.725 164.462 413.321L164.261 413.119ZM88.189 297.205L89.4011 298.618H89.6024L88.189 297.003V297.205ZM106.5 342.898C106.5 342.898 107.51 344.109 108.115 344.513C107.51 344.109 106.904 343.504 106.5 342.898ZM60.7901 153.532C60.7901 153.532 59.5778 155.551 59.3758 156.56C59.3758 157.368 59.7804 158.175 59.9823 158.983C60.5882 158.579 61.5979 158.175 61.5979 158.175C62.2038 156.358 62.0016 155.147 62.2036 153.734L60.7901 153.532ZM67.0504 148.115L67.2526 148.316V147.913L67.0504 148.115ZM222.223 442.493L220.809 440.878C218.184 437.244 216.568 437.446 212.967 441.686C216.198 441.888 219.194 442.089 222.223 442.291V442.493ZM217.611 446.093C218.419 446.901 219.026 447.709 219.026 447.709L221.247 447.305C220.843 446.498 220.237 445.69 220.237 445.69L217.611 446.093ZM222.829 435.225L221.819 435.629C221.819 435.629 222.425 436.437 222.627 436.84C222.829 436.639 223.233 436.437 223.233 436.437L222.829 435.225ZM125.619 86.9441C126.427 86.1365 127.437 85.7331 128.043 84.7236C128.649 83.9161 128.648 82.7047 128.648 81.6953C127.841 82.0991 126.427 82.0988 125.821 82.7045L124.407 86.3386L125.619 86.9441ZM115.353 88.9632L114.343 91.5874V94.0103H115.555C116.161 93.4046 116.968 92.3949 116.968 92.3949L115.151 89.1649L115.353 88.9632ZM77.1147 248.72C77.5186 246.701 77.9231 244.682 78.529 242.697H78.3268C77.9229 244.716 77.5186 246.532 77.1147 248.518V248.72ZM78.9325 257.973H79.3368L79.1347 257.367L78.9325 257.973ZM78.529 242.697L79.9425 241.283H79.7403C79.3364 241.687 78.7303 242.091 78.7303 242.091L78.529 242.697ZM182.774 440.273V448.113C184.793 444.479 183.783 442.493 182.572 440.475L182.774 440.273ZM174.123 445.286L173.517 445.488L173.921 445.69L174.123 445.286ZM390.119 445.69L390.321 445.084C390.321 445.084 390.321 444.68 390.119 444.478C389.917 444.68 389.513 444.882 389.513 444.882L390.119 445.69Z" fill="#F4EFE1"/>
</g>
</svg>
