<svg width="150" height="205" viewBox="0 0 150 205" fill="none" xmlns="http://www.w3.org/2000/svg">
<mask id="mask0_368_632" style="mask-type:alpha" maskUnits="userSpaceOnUse" x="0" y="0" width="150" height="205">
<rect width="150" height="205" fill="white"/>
</mask>
<g mask="url(#mask0_368_632)">
<path d="M70.1248 22.9357C69.4987 25.3479 68.5596 25.7391 65.9899 24.6569C65.8334 25.6739 65.6767 26.5997 65.5202 27.6168C66.4594 27.4603 67.3984 27.3037 68.3245 27.1472C71.2073 26.5996 73.6337 24.9698 76.0468 23.3269C76.9077 22.701 78.0684 22.6228 79.0859 22.2317C79.9468 21.9187 80.4946 21.6058 80.025 20.4323C79.7902 19.8064 79.3991 18.333 81.1991 18.9458C82.2166 17.0682 84.0818 17.5376 85.647 17.3029C85.647 17.3029 87.5256 17.2246 86.5082 15.9728C86.5082 15.9728 86.5079 15.5816 86.5862 15.4251C87.2123 14.4863 91.1126 13.0129 91.9735 13.6257C93.6171 14.8775 95.3258 14.33 96.8128 13.9388C98.7564 13.4694 100.87 13.2347 102.357 10.9789C102.826 13.0782 104.235 13.0781 105.552 13.6257C107.431 14.3299 107.574 11.9047 109.139 12.4524C109.296 13.5476 109.844 14.1735 111.396 13.8605C112.57 13.6258 113.888 14.0952 115.14 14.017C116.392 14.017 117.631 13.6258 118.962 13.3911C118.962 14.2517 118.805 14.8776 118.805 14.8776C119.51 17.9939 117.631 18.698 116.079 19.715H115.374C114.044 18.8545 113.575 20.1845 112.57 20.5757C115.14 21.7492 117.409 22.6749 119.588 23.7702C120.292 24.0831 120.449 24.0049 120.918 23.6137C121.857 22.9096 125.21 23.1444 125.992 23.8485C126.149 24.0832 126.384 24.396 126.384 24.396C126.07 25.8042 127.01 25.9607 127.714 26.1954C130.362 27.056 130.988 27.369 132.632 28.8424C134.119 26.6649 134.197 26.5866 134.732 24.0831C135.28 24.7872 135.593 25.2566 135.593 25.2566C136.688 26.5866 137.614 26.352 138.475 26.1173C138.867 25.9608 139.337 25.2567 139.65 25.335C140.902 25.6479 142.063 26.0389 143.237 26.5083C143.863 26.8213 144.41 27.2907 144.958 27.6819L145.819 28.5425C145.193 30.1072 146.132 30.1854 147.228 30.3419C148.48 30.5766 149.641 31.1243 150.893 31.359C152.459 31.6719 153.385 32.9236 153.385 34.8664C154.637 34.5535 155.798 34.2405 156.894 34.0058C155.955 32.8323 155.094 31.7501 154.246 30.6548C153.933 30.2637 152.837 31.046 153.228 29.9507C153.541 29.0119 154.324 29.5595 154.794 29.7942C155.654 30.2636 156.437 30.9677 157.285 31.4371C157.285 31.4371 158.068 31.3589 158.224 31.1242C158.224 31.1242 158.224 30.4201 157.989 30.2636C156.815 29.403 155.576 28.6208 154.324 27.7733C154.715 27.3038 155.029 26.7562 155.342 26.2868H155.263C155.263 26.2868 156.437 25.5044 155.263 25.1132L155.342 25.1914V24.5655L155.263 24.6438C156.907 24.5656 158.224 25.1133 159.476 26.4432C159.476 25.6609 159.555 25.035 159.555 24.4221C159.711 24.3439 159.868 24.344 159.868 24.344C159.868 24.344 160.65 25.361 160.65 25.8304C160.494 28.6338 161.511 30.3549 164.237 31.059C164.629 31.1372 165.098 31.6849 165.177 32.076C165.411 32.9366 165.881 33.2496 166.585 33.5625C166.977 33.719 167.29 34.3448 167.525 34.8142C167.838 35.2836 166.507 36.5354 168.386 36.3007C169.012 36.2225 169.325 37.7872 170.329 37.0048C171.503 37.8654 173.368 37.6307 173.916 39.417C174.151 40.1994 174.464 40.6688 175.403 40.7471L176.342 41.8423C176.968 43.0158 177.594 44.2545 178.221 45.5845C177.594 46.2886 176.812 47.1493 176.042 47.9968C176.668 48.701 177.451 49.2486 177.764 49.9527C177.764 49.9527 177.999 51.5955 178.077 52.443C178.156 53.3819 178.155 54.4641 178.312 55.4029C178.39 55.7159 178.782 55.9506 178.938 56.2636C179.251 55.9506 179.564 55.7159 179.564 55.7159C180.034 55.2465 180.112 55.0119 180.112 55.0119C180.973 55.716 181.599 56.6547 181.99 57.5805C182.225 58.1282 182.147 58.8323 181.912 59.3799C181.364 60.7881 181.286 60.788 183.086 61.5573C182.851 61.9485 182.538 62.418 182.304 62.8092C181.99 63.2786 181.755 63.748 181.442 64.2957C182.225 65.1562 182.695 66.5514 184.403 66.0951C184.795 65.9386 185.421 66.8773 185.969 67.4249C186.517 67.9725 186.908 68.7549 187.534 69.2243C189.713 70.789 189.791 70.8673 189.712 73.9054L188.773 73.5142C188.069 72.6536 187.756 72.8883 187.599 73.8271C187.521 74.2183 187.599 74.6094 187.677 74.9224L188.069 76.1742C188.695 75.8613 189.165 75.6265 189.712 75.4701C190.025 76.1742 190.965 76.5654 190.104 77.8041C189.399 78.8212 189.556 80.3727 189.321 81.7809C188.069 81.5462 187.756 80.2946 187.221 79.447C186.595 78.5865 186.047 78.8212 185.343 79.1341C185.578 80.9335 186.83 82.094 187.834 83.3457C188.382 83.9716 189.008 84.441 189.478 84.9886C189.634 85.1451 189.712 85.5362 189.712 85.5362C189.321 86.0056 188.382 86.0839 189.008 86.788C189.321 87.1792 190.026 87.2574 190.495 87.2574C191.434 87.3357 191.747 87.805 191.826 88.6656C192.217 91.0778 192.608 93.5031 192.921 95.9154C192.999 96.6977 193.078 97.2453 193.547 97.9363C194.095 98.7187 194.252 99.7357 194.565 100.661C194.565 100.661 194.956 101.835 195.191 102.461V102.383C194.33 102.539 193.939 103.087 194.252 103.947C194.643 105.043 195.113 106.125 195.582 107.22L196.13 108.159C196.13 108.472 195.895 108.863 195.895 108.863C195.426 109.02 195.034 108.863 195.034 108.863C194.8 108.002 194.878 107.298 194.721 106.764C194.721 106.764 194.252 106.06 193.547 105.825C193.547 107.155 193.626 108.472 193.547 109.802C193.547 110.975 194.565 110.975 195.191 111.367H195.113C195.113 114.092 195.66 116.83 194.486 119.555C193.547 121.889 193.156 124.471 192.765 126.961C192.217 129.843 191.591 132.816 190.821 135.697C190.665 136.089 190.273 136.402 189.96 136.714C189.96 136.714 189.021 137.81 189.099 138.279C189.178 139.844 188.63 141.474 190.273 142.725C190.821 143.117 191.056 144.055 191.447 144.825L191.369 144.747C191.682 145.529 192.073 146.311 191.291 147.002C191.291 147.002 190.508 147.55 190.273 147.394C189.882 147.159 189.569 146.689 189.569 146.689C189.491 145.672 190.586 144.89 189.491 144.434C188.317 143.808 188.473 145.294 188.473 145.294C187.612 146.155 187.456 146.781 187.456 146.781C186.108 146.624 184.912 147.067 183.869 148.111L184.338 147.015V145.685C183.634 146.468 183.164 147.015 182.695 147.485V147.563C182.695 146.937 182.616 146.311 182.538 145.307C181.208 146.481 181.13 147.876 180.66 149.05C180.66 149.05 180.738 149.206 180.738 149.284C181.364 150.632 181.208 151.749 180.269 152.635C180.269 152.635 180.347 151.775 180.347 151.383H180.425C180.347 151.775 180.347 152.166 180.347 152.166C180.66 155.83 178.168 157.473 176.603 159.65C176.603 159.65 175.508 159.728 175.116 160.041C175.116 160.041 173.942 160.745 174.803 161.45C175.038 161.606 174.803 162.388 174.803 162.388C174.803 162.388 173.786 162.858 173.551 162.623C172.847 162.075 172.612 162.78 172.612 162.78L172.22 163.014C172.064 163.249 171.829 163.405 171.829 163.405L171.672 163.562C170.498 164.814 170.42 165.048 169.951 166.444C170.577 166.052 171.125 165.661 171.751 165.27H171.672C171.281 166.6 170.89 167.761 168.946 167.604C168.007 167.526 166.533 168.23 166.377 169.482C166.142 171.203 165.124 170.186 164.498 170.342C164.968 169.403 165.516 168.465 165.985 167.539C166.455 166.678 166.925 165.896 167.394 164.97L167.081 164.266L166.298 164.735C166.611 166.065 165.594 166.457 164.89 167.069C163.481 168.165 163.402 168.556 164.498 170.342C164.342 171.672 162.163 171.829 162.62 173.615L162.151 174.084C161.916 174.163 161.524 174.241 161.524 174.241C158.563 172.833 157.311 175.023 155.902 176.575C154.572 178.218 152.707 179.3 151.689 181.256C151.689 181.256 151.22 181.334 150.985 181.412L150.906 181.334H150.985C150.985 181.334 150.202 181.804 149.811 181.96C149.811 181.804 149.733 181.647 149.733 181.647C149.733 181.647 149.576 181.569 149.498 181.647C149.576 181.725 149.733 181.804 149.733 181.804C149.811 182.899 149.654 183.903 148.324 183.447C147.619 183.29 147.072 182.664 146.38 182.117C145.989 182.899 146.85 184.216 145.441 184.529C145.441 184.529 145.206 184.92 145.284 184.998C145.441 185.78 145.754 186.485 144.971 187.019C143.876 187.723 142.793 187.723 141.619 187.332V187.41C142.245 186.628 142.402 185.455 143.419 184.842C144.045 184.45 144.593 183.59 143.576 182.821C143.576 182.821 143.341 182.195 143.263 181.882C144.672 182.273 145.285 181.569 145.519 180.239C147.398 178.596 149.185 176.888 151.141 175.323C152.472 174.306 152.628 173.224 152.081 171.737C151.768 170.799 151.298 170.486 150.75 171.19C150.124 171.972 149.654 172.989 149.185 173.915C148.637 175.167 148.245 176.875 146.615 176.64C144.984 176.405 144.593 177.344 144.124 178.439C143.497 179.848 145.141 179.613 145.532 180.317C144.358 180.239 143.732 180.865 143.276 181.882C141.945 181.882 140.941 182.116 140.158 183.525C139.61 184.62 138.593 185.468 137.119 185.402C136.649 185.402 135.945 185.715 135.71 186.106C134.693 187.358 133.688 188.753 132.984 190.24C132.123 192.117 131.262 193.747 128.927 194.06C126.906 194.295 125.105 195.625 122.927 194.764C123.71 194.53 124.57 194.295 125.418 194.06C126.671 193.747 127.597 192.965 127.519 191.57C127.519 190.631 127.753 190.318 128.614 190.005C129.24 189.77 129.788 189.223 130.493 188.753C128.988 187.71 127.74 187.58 126.749 188.362L125.575 188.988C124.636 189.145 124.636 189.692 124.636 190.553C124.714 191.961 124.323 192.117 122.536 191.883H122.614C122.614 191.883 123.005 191.022 123.24 190.553C121.988 190.631 120.905 190.709 119.888 190.787V190.866C120.983 190.24 122.066 189.692 123.553 188.845C122.066 188.532 121.218 188.766 120.357 189.236C118.179 190.566 116.066 191.883 113.809 192.978C112.479 193.682 111.553 194.699 111.24 196.016C111.005 197.111 110.457 197.19 109.596 197.581C108.266 198.128 107.026 198.441 105.696 198.598C105.696 198.598 104.835 198.207 104.835 198.128C104.835 198.128 105.148 196.955 105.383 196.407L106.322 196.564C106.557 196.642 106.791 196.877 106.791 196.877L107.183 196.173C106.87 194.53 105.539 193.76 104.222 194.764C103.283 195.468 101.73 196.016 102.2 197.881C102.278 198.272 101.809 199.132 101.809 199.132C99.787 199.445 98.0651 200.384 95.8867 199.758C97.6086 198.976 99.0041 198.35 100.648 197.581C99.9433 196.642 99.2391 196.955 98.5478 196.955L97.5303 196.407C97.5303 196.407 97.9997 195.625 98.3128 195.469C98.3128 195.469 99.252 195.312 99.6433 195.234C99.6433 195.234 100.739 194.999 100.504 194.217C100.27 193.2 100.974 193.043 101.6 193.2C104.717 193.747 107.378 192.809 109.792 190.866C109.087 190.005 108.461 189.223 107.77 188.454C107.378 187.984 105.435 187.593 104.887 187.906C104.026 188.453 102.865 188.923 102.474 189.705C101.77 191.426 100.53 191.113 99.3563 190.879C96.004 190.175 92.8082 190.644 89.5341 191.27C89.5341 191.27 88.8297 191.192 88.5167 191.113L88.4386 190.644C88.83 190.409 89.2211 190.018 89.5341 190.018C90.5516 190.253 91.6342 190.957 92.4168 189.549C91.5559 189.079 90.6951 188.61 89.8472 188.141C87.5123 186.889 85.7123 188.141 84.3818 189.784C82.7383 191.805 80.8729 192.43 78.4598 191.883C78.9815 191.1 78.7467 190.474 77.7553 190.005C78.6945 189.614 79.5555 189.301 80.4033 188.753C80.4033 188.753 80.9513 187.893 81.1861 187.502L81.8905 187.267L81.6555 186.876L81.2644 187.502C79.0861 186.328 76.8162 186.172 74.4813 186.798C73.9334 186.954 73.1511 187.189 72.838 187.658C71.8989 189.145 71.4292 187.971 71.4292 187.971L70.8814 187.502C70.8032 186.719 70.8813 186.015 70.7247 185.324L70.0203 184.698C69.5507 184.62 68.9248 184.855 68.9248 184.855C66.2769 183.916 63.9289 183.134 61.7506 182.13C60.6549 181.582 59.8722 180.956 58.7896 182.13C58.0069 183.068 57.224 183.068 56.911 181.66L56.2069 181.347C54.7981 182.364 53.872 181.425 52.6198 180.8C50.6762 179.783 49.8152 178.466 49.5804 176.432C50.8326 176.51 52.2284 176.197 53.2459 177.448C53.7937 178.231 53.5589 178.7 53.5589 178.7L52.9328 179.17C53.4807 179.639 54.1066 180.187 54.7327 180.734C54.7327 180.03 54.5764 179.326 54.5764 179.326C55.2808 178.857 56.2981 178.544 56.4546 178.778C57.159 179.717 58.098 179.326 58.8676 179.483C59.8068 179.639 60.198 179.092 59.8067 178.231C59.4937 177.683 59.0244 177.214 58.7896 176.588C58.4765 175.962 58.0851 175.806 58.0851 175.806C56.8329 177.057 56.2068 176.823 55.8286 176.04C54.0285 173.002 50.8327 173.237 48.0282 172.533L47.5585 172.611C46.6193 173.941 45.6151 173.315 44.4411 172.846C44.0498 172.611 43.1886 173.08 43.1886 173.08C42.719 172.298 42.6411 171.516 42.4845 170.825L42.9539 170.59V170.355L42.4845 170.903C42.1715 170.981 41.8584 171.138 41.8584 171.138C41.8584 171.138 40.919 171.529 40.2929 171.92C40.4494 171.216 40.5279 170.903 40.5279 170.903C40.841 169.808 40.6845 169.573 39.9018 169.808L39.1974 169.338C39.7453 167.852 38.806 167.083 37.7885 166.457C37.1624 165.987 36.8493 165.596 36.6927 164.735C36.6927 164.188 36.2233 163.64 36.2233 163.64C35.7537 162.858 35.2058 162.545 35.2058 162.545C35.6754 160.133 33.8755 159.663 32.7146 158.724C32.1667 158.255 31.9318 157.551 31.6187 156.925L30.5229 155.83C30.5229 155.83 30.5232 154.735 30.4449 154.109V154.187C30.9928 154.187 31.697 155.047 31.9318 153.639C32.1666 152.074 32.245 150.758 30.7579 149.74C30.2884 150.366 29.8186 151.07 29.2707 151.54C28.4098 152.244 28.0969 151.54 27.7839 150.836C29.1144 150.21 28.0968 149.271 28.0186 148.502C27.862 147.563 27.3923 146.859 26.2183 147.172C26.2183 147.172 25.5142 147.094 25.1228 147.015L25.2012 146.233C25.5925 144.056 25.201 143.586 23.0226 143.586H22.2402H22.3182C21.9269 143.117 21.6922 142.491 21.1443 142.178C19.0442 140.77 18.4963 139.844 19.0441 137.262C19.2789 136.245 19.3573 135.306 18.8877 134.381C18.4964 133.364 17.8703 133.598 17.2442 134.224L17.3225 134.146C17.3225 134.146 16.9311 133.442 16.9311 133.129C17.3225 130.717 16.7746 128.683 14.5962 127.209C14.2831 126.974 14.2832 126.27 14.2832 126.27C14.0484 125.018 13.8919 124.393 13.6571 123.154C12.5614 124.797 13.1092 125.879 13.344 126.974C13.9701 129.778 14.0485 129.778 13.4224 132.125C11.7006 131.264 13.0309 129.4 12.0135 128.148C11.1526 126.974 12.5615 125.188 11.4658 123.623C10.2918 124.875 9.58738 125.879 10.4483 127.522C11.0744 128.696 11.3093 130.012 10.8397 131.264C10.2918 132.594 9.97855 133.911 10.2916 135.319C10.2916 135.319 9.90039 136.102 9.74386 136.023L8.72639 135.398C8.64812 132.203 6.92641 129.478 6.54813 126.348C6.54813 126.348 6.23496 124.94 7.40892 125.097L7.80031 124.471C7.64378 123.923 7.40894 123.454 7.09588 122.984C6.3915 121.811 5.6871 120.65 5.76536 119.164C5.84363 118.382 5.374 118.069 4.74789 118.538C3.96525 119.086 3.57407 118.695 3.26101 117.99C3.02622 117.443 2.63492 116.817 2.63492 116.191C2.63492 113.466 1.38274 110.728 3.33935 108.002C4.04373 106.907 3.65239 105.121 5.2829 104.417C5.12637 103.165 5.36095 101.77 4.73483 100.831C3.95219 99.501 3.87408 98.7318 4.89151 97.7148L4.81317 96.9323C4.81317 96.9323 5.20464 96.8542 5.2829 96.6977L5.43926 96.15L4.96986 96.4629L4.81317 96.9323L4.03072 97.0888C3.56114 98.4187 2.23062 98.6535 1.0697 99.2663C1.30449 97.467 1.06956 95.7588 2.55658 94.3506C3.26096 93.6465 2.94785 92.7076 1.85215 91.5472C1.01733 90.6605 1.0435 89.674 1.93049 88.5874C2.08702 88.8221 2.32188 89.0568 2.32188 89.0568C2.40014 90.0739 2.24342 91.469 3.10433 91.3125C4.0435 91.0778 5.43924 91.5472 6.06535 90.139C6.53494 89.0437 7.23933 88.1179 7.70891 87.0226C7.94371 86.5532 7.94371 85.9274 7.70891 85.458C7.23933 84.128 7.00471 82.9675 7.23951 81.481C7.31777 80.6205 6.37857 79.5383 5.90899 78.5995H5.83065C6.06544 78.3648 6.30021 78.2083 6.45674 77.9736V78.0518C6.84806 77.7388 7.31767 77.4259 7.78725 77.113C8.67425 76.3307 9.40026 76.6436 9.96551 78.0518C10.2003 77.0347 10.3569 76.109 10.6699 75.1702C11.0613 74.1531 11.5308 73.2143 10.983 72.0538C10.5917 71.2715 11.296 70.9585 11.9221 70.7238L12.0005 70.9586L11.8441 70.8021C12.1571 70.1763 12.3918 69.4721 12.3918 69.4721C14.3354 67.2164 14.4136 64.6346 13.0179 62.4571H13.0963C12.3919 61.2836 12.4699 60.2013 13.1743 59.106C13.6439 58.3236 14.0354 57.5414 14.7398 56.7721C14.6616 57.8674 14.5831 58.9495 14.5048 60.5925C15.8353 59.3407 16.8398 58.415 17.8572 57.5544L19.1877 56.3027C19.8138 55.9115 19.9705 55.4421 19.9705 55.4421C19.6574 53.3428 20.127 52.1692 21.2227 51.3087C21.3009 51.5434 21.379 51.778 21.379 51.778C21.6138 51.8563 21.7704 51.778 21.7704 51.778L21.1443 51.387C21.2226 49.6658 22.1617 48.427 23.4009 47.41C23.1661 47.9576 22.7748 48.5052 22.7748 48.5052C22.4618 49.444 22.5401 49.9134 22.4618 50.3046C22.4618 50.3046 23.3228 50.0699 23.5576 49.8352L24.3401 48.74C25.2792 47.2535 24.1053 47.4883 23.4009 47.4883C23.7923 44.4502 26.2836 43.1201 28.2402 41.3337C29.5707 40.1602 30.8881 38.9998 32.1404 37.748C32.4534 37.5133 33.0014 36.9658 32.9231 36.7311C32.5318 34.9317 33.7058 34.3188 34.945 33.6147C35.7277 33.1453 36.5102 32.4412 36.8233 31.6589C37.919 29.4813 40.019 28.699 41.9756 27.6037L42.6017 27.2908C44.9366 29.3901 45.4845 26.2737 46.8933 25.8043L47.128 25.5696C47.128 25.5696 46.1889 25.1001 45.9541 24.7089L46.5019 23.6137C47.3628 22.6749 48.3021 21.8143 49.2282 20.9667C50.0891 22.2185 48.9933 22.688 48.4454 23.3008C48.2106 23.6137 48.0542 24.2395 48.2107 24.5525L49.2282 25.022C49.5412 25.022 49.8544 24.4743 49.9326 24.0831C50.3239 23.2225 50.6368 22.2838 51.0281 21.2015C51.4455 22.5489 52.1977 22.9661 53.2847 22.4532C54.4587 21.9056 55.5415 21.358 56.7155 20.8886L57.2632 20.6538C58.8285 20.7321 58.2025 17.9288 59.6765 18.4764C61.1505 19.024 61.8548 17.9286 62.9505 17.6939C64.1245 17.381 65.2854 16.9116 66.5377 16.4422C66.6942 16.4422 66.8507 16.3641 66.8507 16.3641L67.0071 16.2858C67.0071 16.2858 67.6332 15.6598 68.0245 15.4251C69.042 14.5646 70.9858 16.1294 71.5336 13.9388C73.0989 14.5647 74.1814 12.9999 75.5901 12.9999L76.3729 12.9217L76.999 13.8605C76.6859 14.6429 76.2163 15.2687 75.6685 16.2727C76.7642 16.1162 77.5468 16.1163 78.2381 15.8816C79.0208 15.6469 79.4121 15.021 78.9425 14.1604C79.4121 13.9257 80.1947 13.691 80.1947 13.691C80.7426 10.9658 82.8426 10.7311 84.4079 9.8705C85.5036 9.24462 87.1343 10.1053 87.8387 8.46233L88.6211 8.54065C88.8559 8.61888 89.1689 8.93172 89.1689 8.93172C91.582 8.22761 93.6169 9.01001 95.717 9.47942C96.7344 9.71412 97.2824 8.85352 97.7389 8.14941L97.9736 7.68002C97.9736 7.91473 97.9737 8.1494 98.0519 8.30587C98.5998 9.79232 98.913 9.87062 100.152 8.85357C100.465 8.61887 100.857 8.30587 100.857 8.30587C103.191 8.54058 105.07 7.99289 107.013 7.44525C107.874 7.21055 108.579 7.52361 109.192 8.22772C109.974 9.40124 110.992 9.63584 112.231 8.77526C113.47 7.91468 114.957 7.99291 116.053 8.93172C117.07 9.87053 117.931 9.55768 119.405 8.85357C118.623 10.2618 118.309 11.1875 117.07 10.7311C116.209 10.4182 114.814 11.5135 114.422 9.79234C113.483 10.1053 112.322 10.027 111.696 11.044L111.07 11.5917C110.287 10.9659 108.813 11.357 108.422 9.94881C108.422 9.94881 107.953 9.55766 107.718 9.32296C107.561 9.71413 107.405 10.027 107.248 10.4182C107.248 10.4182 107.248 10.8093 107.17 11.2005C105.448 9.94876 103.739 10.1052 101.861 10.7311C101 10.9658 100.061 11.2005 99.213 11.044C97.8825 10.8093 97.1128 11.1223 96.7998 12.5305C96.7215 12.7652 96.252 12.8434 96.252 12.8434L95.939 12.1394C96.3303 11.5136 96.3302 11.044 95.5476 10.8876C94.8432 10.8093 94.0605 10.653 93.5257 10.9659C91.5039 12.1394 89.3126 11.983 87.1342 12.4524H87.2123L86.9776 11.5134C86.0384 11.4352 85.0994 11.5135 84.2516 11.5917L84.0165 12.3741L84.0949 12.2959C82.6861 12.2959 82.9993 13.7041 82.295 14.3952C82.8428 14.7081 83.3905 14.9427 83.3905 14.9427L83.9382 15.0992C83.9382 15.0992 82.4515 15.4122 82.295 15.8816C81.7471 17.0552 81.2772 17.6809 80.038 16.7421C80.038 16.7421 79.412 16.7422 79.0989 16.8204C78.4728 17.0551 77.7685 17.2899 77.2206 17.681C76.9859 17.8375 76.7512 18.3069 76.7512 18.3069C76.5947 19.7933 75.577 19.6369 74.8727 19.9498C74.8727 19.9498 74.638 19.7151 74.638 19.6369C75.1858 18.2287 74.09 18.4633 73.5421 18.6198C71.6638 19.1675 69.642 19.324 68.0768 21.1103C68.8594 21.8144 69.5637 22.4403 70.255 23.0531L70.177 22.9748L70.1248 22.9357ZM36.3536 100.127L36.5103 99.8922L36.4319 100.127H36.3536ZM50.5457 147.38C51.5631 147.302 51.7196 146.676 51.4848 145.816C51.4065 145.737 51.2499 145.659 51.0934 145.503C50.9369 146.05 50.7804 146.598 50.5457 147.068L50.624 147.38H50.5457ZM173.329 48.4271C173.329 48.4271 173.486 49.6788 173.642 50.2265C173.642 50.2265 174.268 50.7741 174.425 50.6959C174.738 50.6176 175.051 50.3046 175.051 50.3046C175.129 49.757 174.973 49.2877 174.973 49.2877C174.268 48.8965 173.721 48.7399 173.251 48.5052C173.408 47.6446 173.642 46.8623 173.72 46.093C173.877 44.5283 172.39 44.072 171.699 43.055C171.699 43.055 171.386 43.0549 171.229 43.1331C171.542 43.8372 171.855 44.4632 172.09 45.1543C172.168 45.2325 172.168 45.389 172.168 45.389C171.542 46.8755 172.794 47.4883 173.342 48.4271H173.329ZM67.3984 171.242C67.3984 171.242 66.3027 170.929 65.7549 170.694C65.6766 169.521 64.033 168.439 65.6765 166.952C66.2244 166.404 65.442 165.387 64.3463 165.153C62.9376 164.84 62.7026 164.449 62.5461 162.349L62.4678 162.427C63.8765 162.662 65.2724 162.975 66.5246 163.914C68.0116 165.009 69.642 165.935 71.2855 166.952C71.4421 167.109 71.7553 167.265 71.7553 167.265C73.3206 167.03 74.5597 166.717 75.9685 166.483C75.4989 165.387 75.186 164.383 74.7946 163.366C74.4033 162.428 72.916 161.88 73.5421 160.485C74.7944 160.563 75.3425 162.362 76.7382 161.658C74.7946 158.698 73.6206 158.229 70.8161 159.402C70.1118 159.715 69.7204 159.481 69.1726 159.09C68.0769 158.307 67.0724 157.212 65.5071 158.072L64.7244 157.994C62.9243 156.43 60.0416 157.212 58.5676 154.956C58.5676 154.956 57.3155 154.487 56.6893 154.252C58.0981 156.051 57.3155 157.603 56.3763 159.011C55.5154 160.341 54.2761 160.263 53.3369 159.011L52.1631 157.681L51.8501 157.994C51.3805 158.385 51.9284 159.715 50.5979 159.246C49.737 158.855 48.7978 158.542 49.9718 157.368C49.9718 157.368 50.0499 156.195 49.8151 155.804C49.2673 154.708 48.6412 153.783 47.8716 152.844C47.2454 152.061 46.3064 151.436 45.9933 149.806C47.4021 150.745 48.4063 151.449 49.4237 152.14C49.4237 151.279 49.1107 150.81 48.7976 150.262C48.4846 149.714 47.9368 149.167 47.9368 148.541C47.9368 147.837 48.4846 147.133 47.2324 146.976L46.7627 145.099C46.6844 144.786 46.2933 144.551 46.2933 144.551C44.5715 143.847 44.5716 143.925 45.1194 142.608C45.8238 141.043 45.6672 140.652 44.0236 139.961C40.6713 138.709 39.9669 136.767 41.6887 133.729C41.6887 133.729 41.767 133.494 41.767 133.416L43.1756 134.12C43.1756 134.12 43.4104 133.024 43.2539 132.555C42.6278 131.303 41.8451 130.065 41.232 128.813L40.7626 128.969V130.69C39.2756 128.669 37.8798 126.635 36.3927 124.614H36.3147C37.0974 124.536 37.8798 124.38 38.7277 124.223C38.4929 123.597 38.3363 123.05 38.3363 123.05C37.8667 121.954 37.5536 121.641 36.6927 121.72C34.3578 122.032 34.0449 121.563 34.5145 119.151C34.5145 119.151 34.9058 118.056 35.2189 117.195C35.6102 117.899 35.6883 118.212 35.6883 118.212C36.2362 118.76 36.5494 118.994 36.5494 118.994L37.1755 118.056C36.6277 116.882 36.9406 116.035 37.7233 115.096C38.1146 114.705 38.1147 113.296 37.8016 113.14C36.7842 112.514 36.7842 111.041 35.9233 110.728C34.5928 110.258 34.5928 108.85 33.5884 108.237L32.5709 108.002L32.4926 107.924H32.5709C32.4144 110.571 33.197 112.683 36.0797 113.231L36.2364 113.779C35.2189 113.779 33.6666 113.231 34.1361 115.187V115.109C33.7448 115.031 33.3536 114.874 32.9623 114.796H31.7101C31.7101 114.796 31.6317 115.891 31.8665 116.282C31.8665 116.282 32.8059 116.83 33.0407 117.299C33.1972 117.69 33.1971 118.395 32.9623 118.786L31.6318 119.646C31.3187 119.568 30.9275 118.864 30.6927 118.395L30.6143 117.299C30.3795 115.813 30.3795 114.261 29.9099 112.775C29.4403 111.054 29.0492 110.441 29.1274 109.111C29.284 107.468 28.5012 106.62 27.0272 105.995C26.7924 108.798 26.636 111.458 26.4795 114.105C24.6794 112.853 24.7576 111.145 25.462 109.502C25.9316 108.172 25.6184 107.168 25.3053 105.995L24.6792 105.603C24.4444 105.603 24.1315 105.76 24.1315 105.76C23.8967 106.542 23.8184 107.09 23.8184 107.09C23.7402 109.267 24.0531 110.988 23.6617 112.553C23.2704 114.196 23.2704 115.669 24.2878 116.999C24.9922 117.782 25.7751 118.564 26.4664 119.333L27.4839 120.742H27.5619C27.3271 120.976 26.8578 121.211 26.8578 121.211C26.8578 123.623 26.9359 125.736 27.0142 127.913C27.9533 128.852 27.9532 128.93 27.2489 129.087C26.4662 129.243 25.6835 129.321 24.9139 129.478C23.74 129.791 23.5052 130.26 23.9748 131.499C24.3661 132.438 24.4445 133.911 25.0706 134.302C26.2446 134.85 26.2446 136.102 27.0142 136.793C27.562 137.262 28.0315 138.279 27.8749 138.97C27.5619 140.991 28.8142 142.478 29.5968 144.042C29.9882 144.747 30.1448 145.529 30.3796 146.298L30.2229 146.455L30.3013 146.22C31.0057 146.376 31.8665 146.924 31.8665 146.924C32.8057 146.377 32.8839 145.438 33.1187 144.747C34.1361 145.529 34.9971 146.233 35.845 146.924C36.3928 147.863 36.7843 149.493 37.5669 149.727C39.367 150.197 39.5105 151.67 40.2149 152.922C40.3714 153.313 41.154 153.861 41.154 153.861C42.4845 152.922 42.719 153.704 43.1756 154.565C43.4104 155.113 44.1931 155.504 44.1931 155.504C45.4453 156.051 46.2149 156.051 46.841 156.286C47.7019 156.521 48.4065 157.929 48.0152 158.777C47.7021 159.324 46.9977 159.95 46.3716 159.95C45.1977 160.028 43.8019 159.95 42.7845 159.402C41.6888 158.777 41.3757 159.637 40.7626 159.872C39.6669 160.419 39.5887 161.358 39.8235 162.128C40.0583 162.988 40.5277 164.083 41.232 164.383C42.1712 164.853 42.5627 165.557 43.0323 166.339C44.128 167.982 44.2063 167.982 45.6803 166.652C46.0716 166.261 46.3847 165.635 46.6977 165.166C48.3413 165.792 49.7368 166.73 50.1282 168.595C49.0325 168.282 47.9498 167.969 46.8541 167.578C47.4019 169.912 47.8715 169.99 50.0498 168.595C51.3803 169.143 52.9325 168.673 54.263 169.534L54.185 169.456C54.2633 169.925 54.3414 170.394 54.4197 170.864C54.4197 170.864 55.0459 171.959 55.5155 171.333C56.3764 170.16 56.9242 170.786 57.6938 171.411C57.8503 171.646 58.3982 171.411 58.3982 171.411V170.316L57.4591 169.768C56.5199 169.221 56.6763 168.595 57.3024 167.669C57.5372 168.139 57.6156 168.452 57.7721 168.608C59.4939 170.629 61.9852 171.411 64.1636 172.585L64.7113 172.35C67.0462 173.993 69.3943 175.545 71.7292 177.109C72.5901 177.657 73.751 177.031 73.751 176.014C73.751 174.137 73.6726 172.272 73.516 170.394C73.516 170.394 73.125 169.456 72.8119 169.377C71.1684 168.908 69.5378 168.517 67.8159 168.126L67.5029 168.439C67.4246 168.595 67.5029 168.83 67.5029 168.83C68.2073 169.221 68.9117 169.456 69.5248 169.768C69.9161 170.003 70.3073 170.394 70.6986 170.707L70.777 170.629C69.603 170.707 68.2854 170.238 67.3462 171.333V171.255L67.3984 171.242ZM30.9665 97.4017C31.3318 96.3586 32.0316 95.9154 33.0664 96.0718C34.2404 96.3065 34.5536 95.9936 34.5536 94.8983C34.5536 94.0377 34.3972 93.49 33.3798 93.49C32.9885 93.49 32.3623 93.0989 32.3623 93.0989C32.1275 90.9214 30.1055 90.6867 29.2446 89.3567C29.2446 89.3567 28.5403 89.2002 28.3055 89.3567C26.5837 90.452 26.049 94.1159 27.4447 95.3546C28.0708 95.9023 29.0881 96.0588 29.8577 96.3717V96.2934C29.6229 97.4669 29.2316 98.6275 29.2316 99.801C29.2316 100.427 29.6231 101.444 30.0927 101.6C31.3449 102.07 31.1882 103.165 31.5012 104.091L31.3449 104.169L31.4232 104.013C33.3015 104.169 33.3666 104.091 33.2231 102.683C33.0666 101.744 33.6928 100.505 32.3623 99.7227C32.3623 99.7227 32.0491 99.0186 32.2057 98.7839C32.91 97.2192 31.7361 97.454 30.9535 97.3757L30.9665 97.4017ZM46.1888 40.7079C46.1888 40.7079 46.6585 41.725 46.8933 42.2727L47.441 41.8033C47.0497 41.4904 46.5801 41.0991 46.1888 40.7079C46.4236 40.082 45.7975 38.6087 47.5193 39.2997C47.5193 39.2997 48.1456 38.9867 48.3021 38.752C49.163 37.8132 49.9456 37.0309 51.1848 36.7962C51.1848 36.7962 51.9673 36.5616 52.0456 36.2486C52.9065 34.371 54.7718 33.9146 56.2588 32.9758C57.2762 32.3499 57.9807 31.8023 58.2807 30.7201C58.5155 29.6248 58.9851 29.5465 60.0026 29.8595C62.0244 30.3289 63.3548 28.9989 63.1983 26.9779C63.12 26.1173 62.807 25.2566 62.5722 24.0962C62.0244 24.6438 61.6331 24.8785 61.32 25.2697C60.9287 25.8956 61.2416 27.0691 60.1459 27.2125C59.4415 27.2125 58.5806 26.9777 57.8893 26.8213C56.4805 26.4301 56.0895 26.6649 55.5547 27.9167C55.2416 28.6208 54.9283 29.7942 54.9283 29.7942C52.3586 30.4983 51.6544 31.9717 51.1848 33.8493C51.1065 33.067 50.9499 32.2065 51.1065 31.5155C51.1847 30.9678 51.6543 30.4201 52.1239 29.4943C49.0064 30.8243 46.2802 31.8283 44.6367 34.5666L44.715 34.4882C43.228 34.41 42.4584 35.5836 41.5193 36.3659L40.9712 37.4612C41.2843 37.7741 41.8321 37.9306 42.2234 38.087H43.0845C42.2236 38.8694 41.3626 39.4953 40.6712 40.2646C39.9668 41.047 40.1233 41.9857 40.9059 42.6768C41.6886 43.3679 42.2366 43.2245 43.0845 42.3639C43.8671 41.6598 44.6496 40.1863 46.2019 40.7209L46.1888 40.7079ZM79.4903 166.796C79.3338 167.03 79.0989 167.265 79.0989 167.265C78.9424 168.908 78.8644 170.303 78.7078 171.711C79.8818 171.868 80.9642 171.946 82.0599 172.102L82.608 172.494L82.1383 173.041C81.3556 172.963 80.8862 173.354 80.3384 173.824C79.5557 174.371 79.7121 176.705 77.9251 175.31C76.9859 176.562 75.2771 177.409 75.9032 179.365C76.138 179.444 76.2946 179.522 76.2946 179.522C77.7033 179.6 79.1773 178.739 79.8817 180.617C80.0382 181.008 81.2904 181.243 81.8252 181.086C82.9209 180.695 83.7034 181.399 84.6296 181.634C84.3165 182.886 85.2557 182.651 85.9601 182.964C87.1341 183.512 87.682 182.964 88.0603 182.025C88.3734 181.008 87.5125 179.926 86.4951 179.769C85.4777 179.613 84.4731 179.457 83.3774 179.3C84.0818 176.966 85.2557 175.714 87.5906 175.949C87.9037 175.949 88.5297 175.558 88.5297 175.245C88.6863 174.306 88.8429 173.224 88.6864 172.285C88.5299 171.894 87.5123 171.737 86.8862 171.503C86.8862 171.503 86.3385 171.503 86.1037 171.424V171.503C87.3559 170.46 87.4864 169.134 86.4951 167.526C86.4951 167.526 86.7299 167.056 86.8081 166.822L86.9645 166.274C86.1819 165.726 85.3211 165.022 84.5516 165.648C83.1428 166.665 82.06 166.274 80.8078 165.492C79.8686 164.944 79.6337 165.257 79.3989 166.822H79.4772L79.4903 166.796ZM34.7231 50.6959C35.4274 50.2265 37.6841 47.423 37.6841 47.423C38.3102 46.0931 38.5452 45.0109 39.1713 44.5415C40.267 43.7591 40.1885 43.055 39.6407 42.1293C39.0928 41.1905 38.545 40.3298 37.9971 39.404C36.9014 40.1863 35.9754 40.8904 35.1145 41.6597C34.0188 42.5985 33.1711 43.6156 33.7059 45.2455L33.6276 45.1673C34.4102 44.6979 35.1146 44.1502 35.8842 43.6808C35.2581 45.0108 34.3187 45.9365 33.3925 46.8753C32.7664 47.5795 32.1404 48.2054 31.5143 48.8965C30.8882 49.6788 30.3403 50.6959 29.5707 51.387C28.3185 52.6387 27.4706 54.112 27.2358 55.8332C27.0793 56.8502 26.3749 56.9285 25.9836 57.398L26.062 57.3196C24.9663 57.2414 23.9617 57.085 22.6312 56.8503C23.4921 58.8061 21.4576 59.1843 20.988 60.5143C20.5184 61.8443 20.0485 63.1613 19.4224 65.1171C19.9703 64.413 20.2051 64.1 20.4399 63.8653C21.3791 62.8482 21.8488 62.9265 22.2402 64.2565C22.3184 64.4912 22.3182 64.8041 22.3965 65.0388C22.7878 65.5865 23.3356 66.6034 23.3356 66.6034C24.3531 66.5252 25.214 65.9776 25.5922 65.3517C26.5314 63.9435 27.236 62.3137 28.0839 60.8272C28.4752 60.2014 29.4141 59.6537 29.4924 59.0278C29.7272 56.8503 31.0578 55.5986 32.5318 54.3469C32.5318 54.3469 33.5491 53.3297 33.0795 52.4691C32.2969 51.2956 33.3144 50.5916 33.8623 49.9005C34.0188 49.6658 34.4883 49.744 34.8014 49.6657V50.6828L34.645 50.8393C34.645 50.8393 34.7231 50.761 34.7231 50.6828V50.6959ZM158.668 36.4963C158.746 37.3569 159.059 38.061 158.824 38.5956C158.433 40.0038 159.372 40.395 160.233 40.7732C160.624 40.9296 161.172 40.9295 161.563 41.0078C164.133 41.5554 166.481 42.416 167.955 44.75C168.346 45.3758 168.973 45.8453 169.599 46.2364C169.912 46.3929 170.538 46.2365 171.007 46.1583C170.929 45.6889 170.929 45.0631 170.929 45.0631C169.129 43.1854 167.89 41.5554 168.594 38.752C167.029 40.082 165.398 39.5344 164.616 38.752C162.894 37.1091 160.95 36.9527 158.694 36.4963H158.668ZM65.8463 178.492C66.3159 178.961 66.7073 179.509 67.2551 179.978C69.3552 181.778 69.5118 181.777 71.8597 179.9C71.8597 179.9 72.7206 179.587 73.1119 179.43C73.8945 179.274 73.6596 178.805 73.2683 178.57C72.8769 178.335 72.0161 178.1 72.0161 178.1C70.9204 179.196 70.5292 178.492 69.8378 177.944C69.29 177.396 68.5073 177.005 67.8159 176.692C67.3464 176.458 66.7985 176.692 67.1115 177.318C68.2855 179.574 66.0941 177.788 65.8593 178.492H65.8463ZM89.7822 172.324C89.7822 172.324 90.0167 173.419 90.4863 173.889C91.0342 174.515 93.0561 174.436 93.5257 174.045C94.3866 173.028 94.6214 171.242 93.8387 170.225H93.0563C92.5084 171.79 91.5691 170.851 90.8777 170.538C90.0951 170.225 89.9386 170.381 89.9386 171.164C89.9386 171.164 89.8605 171.711 89.7822 172.337V172.324ZM130.975 177.396C130.975 177.396 131.523 177.162 131.68 176.927C132.462 175.91 133.166 174.828 133.858 173.732C134.171 173.185 134.875 172.402 134.797 171.933C134.406 170.759 133.623 172.089 132.997 171.933C132.997 171.933 132.527 171.62 132.293 171.542C131.197 171.229 130.884 171.385 131.04 172.402C131.197 173.889 131.666 175.284 130.649 176.692L130.962 177.396H130.975ZM16.9311 75.3267L17.2442 74.3879C17.1659 73.2144 16.6963 71.9756 17.8703 70.8803C18.4964 70.3326 17.5572 69.7851 17.5572 69.7851C16.1485 69.2374 16.0703 69.9415 15.992 70.4109C15.9137 71.1932 16.3832 71.9756 15.2092 72.5102C13.957 73.0578 13.9572 73.5273 15.0529 74.2314C15.6007 74.7008 16.2268 74.9355 16.9311 75.3267ZM96.03 181.06C95.5605 181.373 95.326 181.608 95.0129 181.764C94.6998 181.921 94.3865 182.234 94.0734 182.234L93.2127 181.921C93.2127 180.591 92.5864 181.217 92.1168 181.608C91.882 181.843 91.8038 184.411 91.8038 184.411C92.6647 184.49 93.4474 184.568 93.4474 184.568C94.9344 183.551 96.33 183.081 96.017 181.06H96.03ZM137.367 180.356C137.289 180.121 137.289 179.73 137.289 179.73C136.819 178.635 136.349 177.318 136.114 177.396C135.097 177.631 135.958 178.57 135.801 179.118C135.645 179.509 135.175 179.822 134.941 180.135C134.941 180.135 134.393 181.308 134.314 181.856L134.941 182.638L137.354 180.382L137.367 180.356ZM190.495 91.8601C190.339 94.1941 190.26 96.0718 190.182 98.0146C190.182 98.0146 190.652 98.4839 190.887 98.5622L191.513 98.2493C191.513 96.5281 191.513 94.7417 191.434 93.0206C191.434 92.7076 191.043 92.4731 190.495 91.8472V91.8601ZM113.34 183.642C112.322 183.798 111.54 183.642 111.54 183.642C110.913 184.816 110.053 185.285 109.283 185.82C109.283 185.82 108.97 186.602 108.892 186.993C109.361 186.993 110.066 187.228 110.3 186.915C111.318 186.054 112.1 185.037 113.34 183.642ZM124.036 179.665C125.21 179.352 125.979 179.274 126.684 178.961C127.466 178.648 127.31 178.257 126.527 178.022L126.449 177.24C126.605 177.005 127.075 176.927 127.075 176.927C127.075 176.927 127.623 176.145 127.779 175.91C127.388 175.753 126.84 175.362 126.606 175.519C126.606 175.519 125.666 176.458 125.275 177.083C124.884 177.709 124.571 178.492 124.023 179.652L124.036 179.665ZM162.02 158.764C161.159 159.781 160.455 160.485 159.92 161.254C159.763 161.489 159.685 161.958 159.842 162.193L160.781 162.427C162.268 162.036 162.424 161.645 162.033 158.764H162.02ZM19.1224 103.4C17.5572 104.26 17.7138 105.421 17.9486 106.594C18.8095 106.438 19.5139 106.203 20.2835 105.968C19.8922 105.108 19.5007 104.326 19.1094 103.4H19.1224ZM21.4574 86.3315C23.3357 85.3145 23.5575 84.767 22.7879 83.6847C22.6314 83.45 22.1618 83.2152 22.1618 83.2152L21.2227 83.9193C21.2227 84.7017 21.3791 85.484 21.4574 86.3315ZM21.1443 128.435C22.4748 127.731 22.24 126.948 22.0835 126.257C21.9269 125.553 21.6922 124.849 21.4574 124.158H21.2227L20.753 124.706C20.8312 125.879 20.9878 127.04 21.1443 128.448V128.435ZM110.144 18.4111C111.396 19.4282 112.401 19.1153 113.261 18.4895C113.261 18.4895 113.653 17.7853 113.575 17.6288C113.575 17.6288 112.948 17.0811 112.713 17.2376C111.931 17.4723 111.148 17.9417 110.144 18.4111ZM61.9461 175.61C62.2592 175.219 62.4157 174.906 62.5722 174.593C63.3549 173.576 62.2591 173.263 61.8678 172.637H61.1634C61.1634 173.185 61.0851 173.811 61.1634 174.358C61.2416 174.749 61.6331 175.062 61.9461 175.61ZM21.1443 77.5954C22.1618 77.126 22.9445 76.8131 22.8662 75.796C22.788 75.4049 22.4749 74.9354 22.1618 74.779L21.2227 75.4048C21.0661 76.0307 21.1443 76.7348 21.1443 77.5824V77.5954ZM12.9526 83.2804C11.6569 83.9585 11.0829 85.0756 11.2307 86.6316C11.8569 85.3016 12.4048 84.2975 12.9526 83.2804ZM84.1732 183.564C83.7819 184.033 83.2341 184.581 83.2341 184.581C83.6254 185.207 84.0949 185.676 84.0949 185.676C84.8775 185.754 85.5037 185.285 85.5037 185.285C85.2689 184.503 84.7211 184.112 84.1732 183.564ZM19.6575 69.4852C21.0662 69.4069 21.6793 68.8592 21.914 67.9204C21.9923 67.6857 21.8358 67.2163 21.601 66.9816C21.4445 66.9034 20.8964 66.9817 20.7399 67.2164C20.3486 67.8423 20.114 68.4681 19.6444 69.4721L19.6575 69.4852ZM118.414 186.211C119.51 186.211 119.822 185.585 119.901 184.803C119.901 184.646 119.509 184.255 119.509 184.255C118.727 184.646 118.022 185.116 117.253 185.507C117.722 185.741 118.114 186.054 118.427 186.211H118.414ZM150.711 33.7712L150.163 34.71C150.163 35.1011 151.963 37.044 151.963 37.044L152.746 36.7311C152.119 35.7923 151.494 34.8534 150.724 33.7712H150.711ZM7.95667 92.8772C8.58279 91.7819 9.67869 90.9344 8.81778 89.2914C8.1134 90.5432 7.64362 91.5472 7.95667 92.8772ZM22.3182 81.7289C21.8486 81.1812 21.5356 80.6336 21.4574 80.7118C21.4574 80.7118 20.44 81.3376 19.8922 81.6506C20.127 81.8853 20.3616 82.2764 20.3616 82.2764C21.0659 82.2764 21.6138 81.9636 22.3051 81.7289H22.3182ZM184.873 72.6015C184.873 72.6015 185.264 72.6015 185.421 72.5232C185.421 72.5232 186.047 71.1149 185.578 70.3456L184.951 70.2675C184.951 70.2675 184.638 71.5975 184.482 72.2886C184.482 72.2886 184.795 72.5233 184.873 72.6015ZM26.4533 52.404C27.0012 52.1693 27.4708 52.1693 27.4708 52.1693C27.9404 51.6216 28.0184 51.074 28.1749 50.6828L27.8619 50.2916C26.7662 50.0569 27.1576 51.387 26.6097 51.6999C26.6097 51.6999 26.5316 52.0129 26.4533 52.404ZM22.4749 123.832L23.3356 122.658C23.3356 122.345 22.9446 122.032 22.9446 122.032C22.9446 122.032 22.0836 122.345 21.9271 122.737C21.9271 122.737 22.1618 123.284 22.4749 123.832ZM99.5391 182.703L99.6172 182.312C99.2258 182.156 98.8347 181.921 98.5217 181.921L97.6606 182.156L98.365 182.703H99.5391ZM100.713 167.656C99.8521 167.343 99.3825 167.109 99.3825 167.109L98.678 167.343C98.9911 167.734 99.3826 168.047 99.8522 168.282C99.8522 168.282 100.243 168.047 100.713 167.656ZM13.8918 95.1329C15.0918 94.0376 15.3267 93.0511 14.5962 92.1732C14.4397 93.0337 14.2831 93.7377 13.8918 95.1329ZM23.2446 73.9314C23.6359 73.149 23.9489 72.6015 24.1837 72.0538L23.7923 71.8191C23.7923 71.8191 22.6967 72.6798 23.2446 73.9185V73.9314ZM112.179 190.657C112.022 190.579 111.866 190.579 111.866 190.579C111.553 191.205 111.396 191.831 111.318 192.456L111.474 192.769L112.1 192.456C112.1 192.456 112.179 191.205 112.179 190.657ZM130.584 180.434C130.897 180.747 131.132 180.982 131.132 180.982C131.601 180.904 131.914 180.669 131.914 180.669C131.914 180.669 131.601 179.73 131.366 179.73C131.366 179.73 130.897 180.122 130.584 180.434ZM18.105 129.139C18.105 129.139 17.6356 129.686 17.6356 129.765L18.2617 130.547C18.4182 130.312 18.8094 130.078 18.8094 130.078L18.105 129.139ZM132.684 165.622L132.527 166.483L132.997 166.952C133.075 166.717 133.31 166.483 133.31 166.483L132.684 165.622ZM65.7679 176.001C65.7679 176.001 65.6115 175.532 65.5332 175.375C65.2984 175.688 65.0637 176.001 64.9072 176.392L65.2202 176.862C65.455 176.549 65.6114 176.236 65.7679 176.001ZM79.412 163.288C79.412 163.288 79.9599 163.601 80.1947 163.679L80.3511 163.288C80.3511 163.288 80.1166 162.897 79.96 162.741L79.412 163.288ZM43.2931 157.668L43.0584 158.059C43.0584 158.059 43.2932 158.372 43.3714 158.451C43.3714 158.451 43.6063 158.294 43.7628 158.216C43.7628 158.216 43.4496 157.903 43.2931 157.668ZM179.329 129.452L179.016 129.765L179.095 129.999C179.251 129.999 179.408 129.921 179.408 129.921L179.329 129.452ZM45.6411 170.538L45.2497 170.851C45.2497 170.851 45.3281 171.32 45.4064 171.555L45.8758 171.32C45.8758 171.32 45.7193 170.773 45.6411 170.538ZM140.406 29.7942C140.328 29.6377 140.25 29.4031 140.25 29.4031C140.093 29.3249 139.858 29.4031 139.858 29.4031L140.015 29.9507C140.093 29.8724 140.249 29.8724 140.406 29.7942ZM19.0441 66.447L19.2008 66.0559L19.0441 65.9776L18.7311 66.2124L19.0441 66.447ZM26.4533 44.2155L26.2967 44.1372L26.1403 44.4501H26.375L26.4533 44.2155ZM3.90015 109.098L3.74347 109.176L3.82181 109.645L4.05652 109.489C4.05652 109.489 3.97842 109.254 3.90015 109.098ZM31.5926 110.18V109.945L31.4359 110.024L31.5926 110.18ZM18.418 132.02L18.34 131.786L18.1833 132.099L18.418 132.02ZM51.3281 155.1L51.4848 154.865H51.1717L51.3281 155.1ZM143.85 161.567L144.084 161.489L144.006 161.254C143.928 161.254 143.85 161.332 143.85 161.332C143.771 161.41 143.85 161.489 143.85 161.567ZM162.333 32.2064L162.568 32.0499L162.333 31.9718V32.2064ZM101.717 167.109L101.874 167.187V167.03L101.717 167.109ZM95.639 170.538H95.4823L95.5606 170.772L95.639 170.538ZM45.015 126.088L45.1714 126.009L45.015 125.853V126.088ZM72.7075 180.982L72.6291 180.904V181.06L72.7075 180.982ZM201.178 95.5241L200.787 96.2283C200.865 99.3446 201.022 102.383 201.178 105.512C201.178 105.512 201.804 105.981 202.196 106.06L202.9 105.825C203.135 109.724 203.37 113.466 203.605 117.13C204.074 116.582 204.309 115.956 204.309 115.33V109.02C204.309 108.002 203.996 106.842 204.465 106.06C204.857 105.512 205.091 105.277 204.778 104.573C204.387 103.713 204.231 102.617 203.839 101.692C203.683 101.222 203.291 100.518 202.978 100.518C201.648 100.283 201.726 99.5011 201.726 98.4971C201.804 97.48 201.648 96.5412 201.57 95.5372H201.178V95.5241ZM132.684 19.9758C132.684 19.9758 131.823 19.5065 131.979 20.4453C131.979 20.4453 131.51 21.2276 131.275 21.2276C130.414 21.1494 129.475 21.1494 128.705 20.7582C127.845 20.3671 127.297 20.1323 126.606 20.9928C126.449 21.1493 126.057 21.2276 126.057 21.2276C125.666 20.9929 125.51 20.6018 125.51 20.6018C125.666 19.8194 126.057 19.3499 126.057 19.3499C126.214 18.0199 125.979 17.3942 124.962 17.329C123.24 17.1725 124.492 19.6628 122.94 19.8193L122.705 20.7582C122.705 20.7582 122.862 21.0711 123.018 21.1493C124.427 21.5405 125.51 23.2486 127.31 22.1664C127.31 22.1664 128.093 22.4012 128.562 22.4012C130.584 22.4794 132.775 23.8875 134.484 21.4622C133.936 20.9928 133.388 20.4452 132.684 19.9758ZM152.498 26.8343C152.185 26.2084 152.028 25.3479 151.559 25.0349C149.615 23.8614 147.502 22.701 145.402 21.8404C144.15 21.371 144.932 22.5446 144.854 23.014L145.245 23.0921L144.854 22.9357C144.385 23.3268 143.837 23.7181 143.837 23.7181C144.15 24.5005 144.932 24.6568 145.637 24.4221C146.732 24.1874 147.515 24.1093 147.737 25.674C147.737 26.0652 148.676 26.4562 149.224 26.5344C149.458 26.5344 149.772 25.7521 149.772 25.7521C150.867 25.9868 151.715 26.378 152.576 26.8474H152.498V26.8343ZM187.991 56.8503C187.677 56.3026 187.365 55.6767 186.973 55.2073C186.269 54.425 185.565 53.6427 186.973 52.8734L186.738 52.1693C186.034 52.3257 185.251 52.4822 184.56 52.6387C187.912 60.3578 189.321 62.3919 191.656 62.3137C190.952 61.2967 190.325 60.436 189.712 59.5884C189.165 58.9625 188.225 57.411 187.991 56.7852V56.8633V56.8503ZM192.83 158.372C195.008 157.042 196.417 153.77 195.791 151.357C195.713 150.966 195.321 150.575 195.008 150.34C194.617 150.184 194.148 150.262 193.756 150.184C193.756 150.497 193.6 150.966 193.6 150.966C195.008 152.766 194.382 154.395 193.365 155.491C192.504 156.508 192.504 157.368 192.817 158.451V158.372H192.83ZM146.498 20.8233C145.976 19.2673 144.832 18.5938 143.067 18.8024L141.971 18.2547L142.363 17.5505L142.128 16.6117C141.345 16.6117 140.719 16.7683 140.028 16.8465C140.106 17.3942 140.184 18.0199 140.184 18.0199C140.341 18.9587 140.497 19.2718 140.576 19.5847L140.497 19.6628C141.045 19.5846 141.828 19.1935 141.828 19.1935C143.55 20.2887 145.102 20.1324 146.511 20.7582V20.8364L146.498 20.8233ZM197.121 65.6647C197.043 65.43 196.417 65.1953 196.026 65.1953L195.243 65.743C196.026 66.9947 195.087 68.7027 196.182 69.8763C196.495 70.111 196.965 70.5022 197.2 70.424C197.2 70.424 197.748 69.7199 197.904 69.4852C197.669 68.077 197.434 66.8382 197.121 65.6647ZM196.73 72.2103C196.495 72.6797 195.948 73.2273 195.948 73.7749C196.104 75.5743 195.634 77.5954 196.965 79.2384C197.122 78.0649 196.965 76.9044 196.965 75.8091C196.965 74.6356 197.121 73.475 197.2 72.3015C197.043 72.3015 196.887 72.2234 196.73 72.2234V72.2103ZM202.809 95.6023C203.357 96.5411 202.261 98.171 204.061 98.5622C204.922 96.7628 203.278 95.2894 203.278 93.5683C203.278 93.5683 202.887 92.9424 202.652 92.786C202.339 92.6295 202.026 92.5512 201.322 92.3947C201.948 93.7247 202.339 94.6506 202.809 95.5894V95.6023ZM125.823 9.67504C125.04 10.3009 124.962 11.3179 125.588 11.7743C126.292 12.2437 127.466 12.1654 128.392 12.3218L128.549 12.0872C127.532 11.7743 128.549 10.0661 127.219 10.0661C126.749 10.0661 126.279 9.75319 125.731 9.59673L125.81 9.67504H125.823ZM146.498 20.7452C146.889 21.6058 147.593 21.9187 148.441 21.5275C149.146 21.2146 149.38 20.667 149.459 19.8064C149.537 18.7894 149.38 18.0852 148.206 17.9287C148.206 19.1805 147.893 20.3409 146.485 20.8103V20.7321L146.498 20.7452ZM199.222 111.51C198.204 111.745 197.343 111.901 196.495 112.136L196.339 112.918C196.417 113.075 196.808 113.309 196.808 113.309C197.747 112.527 198.452 113.231 199.378 113.779C199.3 112.996 199.3 112.371 199.222 111.523V111.51ZM154.141 25.1914C154.141 25.1914 154.924 24.8002 155.315 24.5655L155.237 24.6438C153.828 23.7833 152.667 22.4663 150.554 23.1574C151.806 23.8615 152.967 24.4874 154.22 25.1132L154.141 25.1914ZM201.491 131.708C201.804 131.16 202.196 130.691 202.274 130.143C202.352 129.126 201.57 128.122 202.274 127.027L201.883 126.714C201.726 126.792 201.335 127.027 201.335 127.183C201.256 128.669 201.178 130.143 201.1 131.629L201.491 131.708ZM139.323 199.159L139.01 198.689C137.523 199.393 135.58 199.393 135.11 201.727C136.519 200.867 137.915 200.006 139.323 199.159ZM112.726 0.0130518C112.179 0.0130518 111.24 -0.0651889 111.161 0.169514C110.848 0.873623 110.927 1.73418 110.927 2.42525L111.474 2.50356L112.022 1.87771C111.552 1.01713 112.1 1.01708 112.1 1.01708C112.805 0.93885 112.961 0.70416 112.961 0.70416C112.961 0.70416 112.883 0 112.726 0V0.0130518ZM120.749 11.3961C120.749 11.3961 121.923 11.7873 122.392 11.709C123.018 11.5526 123.644 11.1614 124.192 10.8484C123.801 9.90961 123.018 10.4573 122.392 10.5355C121.844 10.6137 121.375 10.7703 121.375 10.7703C120.827 11.0832 120.749 11.2397 120.749 11.3961ZM152.028 202.823C152.968 202.04 153.828 201.258 155.067 200.176C152.185 201.036 151.872 201.271 152.028 202.823ZM52.737 13.4172C52.8935 14.5908 53.0502 15.7512 53.2067 16.8465C53.598 15.7512 53.9893 14.6689 53.8328 13.4954C53.7545 12.5566 53.1283 13.1042 52.737 13.4954V13.4172ZM198.53 78.2213C197.748 79.8642 197.904 81.0247 199 82.6676C199.156 80.8683 199.156 79.7077 198.53 78.2213ZM184.716 168.439C185.812 167.656 186.125 166.418 186.36 165.166V165.244C184.416 166.417 184.338 166.574 184.795 168.517L184.716 168.439ZM68.0245 2.97294C67.9463 3.44235 67.7115 3.99003 67.7115 3.99003C67.7898 4.77237 68.2595 5.00694 68.4943 5.31988L69.1203 4.22464C69.0421 3.75524 68.6507 3.2858 68.4159 2.89463C68.1811 2.97287 68.0245 2.97294 68.0245 2.97294ZM177.699 42.9767C178.638 43.8373 179.421 44.4631 180.112 45.0759C179.486 43.7286 178.682 43.0288 177.699 42.9767ZM22.2402 143.482C22.2402 143.482 20.44 142.778 21.2227 144.342C21.2227 144.342 21.7705 145.672 22.8662 145.672C22.5532 144.812 22.3966 144.108 22.1618 143.495H22.2402V143.482ZM70.1248 22.9357C70.7509 22.701 71.3771 22.6228 71.8467 22.2317L71.9247 21.0581L70.8292 21.2927C70.5161 21.7621 70.4379 22.4663 70.2031 23.014L70.1248 22.9357ZM135.658 18.6459C135.423 18.5677 135.032 18.7241 134.719 18.8024C134.641 18.8806 134.562 19.2718 134.562 19.2718C134.875 19.4282 135.188 19.5846 135.501 19.6628H137.302C136.675 19.2717 136.206 18.8806 135.658 18.6459ZM202.809 119.229C202.809 119.542 202.965 119.933 203.043 120.246L203.591 120.012C203.591 120.012 203.513 119.229 203.435 118.525C203.043 118.916 202.809 119.073 202.809 119.229ZM106.87 190.11L106.635 189.718C106.322 190.109 106.009 190.422 105.696 190.814L106.087 191.361C106.4 190.892 106.635 190.501 106.87 190.11ZM201.491 137.236C201.804 137.236 202.039 137.08 202.039 137.08C202.587 137.314 202.822 137.549 202.822 137.549L202.978 136.688L202.117 136.454C201.883 136.532 201.726 137.001 201.57 137.314L201.491 137.236ZM186.517 169.834C187.456 169.208 187.769 168.504 187.064 166.952C186.83 168.282 186.673 169.051 186.517 169.834ZM179.329 41.2556C179.095 40.9427 178.781 40.6297 178.547 40.395C178.547 40.395 178.234 40.4732 178.077 40.5514C178.312 40.8644 178.547 41.2556 178.782 41.5685C178.782 41.5685 179.173 41.3338 179.329 41.2556ZM181.99 154.63L181.834 155.021C182.225 155.334 182.617 155.569 183.008 155.882L183.321 155.178C182.851 155.021 182.46 154.787 181.99 154.63ZM114.67 194.556C114.67 194.556 114.357 194.869 114.201 195.025C114.514 195.182 114.748 195.338 114.748 195.338L115.453 195.103C115.218 194.947 114.983 194.712 114.67 194.556ZM190.417 57.0067L189.869 57.7109C189.791 57.7109 190.182 58.0238 190.182 58.0238C190.182 58.0238 190.73 57.6326 191.043 57.3196C190.808 57.1632 190.495 56.9285 190.417 57.0067ZM197.278 142.308C197.278 142.308 197.748 142.23 197.982 142.23C197.904 141.604 197.747 141.057 197.747 141.057L197.278 140.509V142.386V142.308ZM148.832 184.568C148.676 184.568 148.519 184.803 148.519 184.803L149.067 185.507C149.067 185.507 149.38 185.116 149.537 184.881C149.302 184.724 149.067 184.49 148.832 184.568ZM160.455 175.062C160.22 175.297 159.985 175.532 159.985 175.532V176.158L160.689 175.532C160.533 175.297 160.533 175.219 160.455 175.062ZM63.655 6.32391C64.0463 6.08921 64.4374 5.85454 64.7505 5.5416C64.8287 5.46336 64.6724 5.07221 64.6724 5.07221H64.2027C63.9679 5.46338 63.8895 5.93274 63.733 6.32391H63.655ZM30.3535 154.083L30.6665 153.144L30.2752 152.518L29.8838 153.222L30.3535 154.004V154.083ZM163.572 28.3077C163.572 28.3077 163.807 28.699 163.964 28.8554L164.433 28.699L164.042 28.1513L163.572 28.3077ZM192.752 60.9837C192.752 60.9837 192.439 61.0619 192.282 61.1402L192.595 61.766C192.595 61.766 193.065 61.9225 193.378 61.766C193.143 61.4531 192.987 61.2184 192.752 60.9837ZM151.65 204.765L152.041 205C152.041 205 152.511 204.609 152.746 204.374C152.589 204.296 152.432 204.218 152.432 204.218C152.432 204.218 151.885 204.531 151.65 204.765ZM185.421 43.1331L185.812 43.4461L186.125 43.1331L185.499 42.6638L185.421 43.1331ZM120.135 192.756L119.744 193.226L119.901 193.695C119.901 193.695 120.135 193.382 120.214 193.226L120.135 192.756ZM103.517 191.831C103.752 191.518 103.987 191.283 104.065 190.97L103.987 190.266L103.361 190.892C103.283 191.205 103.439 191.518 103.596 191.909L103.517 191.831ZM153.124 184.568C153.202 184.02 153.359 183.473 153.515 182.925L153.202 182.847C153.202 183.316 153.124 183.864 153.046 184.333L153.124 184.568ZM140.028 16.8465C140.028 16.8465 139.48 16.1424 139.167 15.8294L138.541 15.9076C138.541 15.9076 138.697 16.2989 138.775 16.3771L140.028 16.8465ZM135.893 17.003L135.501 17.2376L135.893 17.8634C135.893 17.8634 136.206 17.7071 136.754 17.3159L135.893 17.003ZM7.72197 72.8361C7.72197 72.8361 7.87865 72.5232 7.87865 72.3668L7.56561 71.9755L7.17422 72.2886L7.72197 72.8361ZM3.05242 101.066C3.05242 101.066 2.97408 101.301 2.97408 101.457H3.13044L3.28712 101.222L3.05242 101.066ZM204.609 123.597L204.765 123.832C204.844 123.675 205 123.597 205 123.597V123.362L204.609 123.597ZM0.156363 112.449L0 112.84L0.0783407 113.075L0.391385 112.918L0.156363 112.449ZM200.865 81.8853L200.787 82.1199C200.787 82.1199 200.943 82.2764 201.022 82.4329L201.257 82.0418C201.257 82.0418 200.943 81.8853 200.865 81.8853ZM78.3945 12.9479V11.7743L77.9251 11.9308L78.3945 12.8695V12.9479ZM60.3809 14.0431C60.6157 13.9649 60.7723 13.8083 60.7723 13.8083L60.694 13.4172C60.694 13.4172 60.5372 13.8865 60.4589 14.1212L60.3809 14.0431ZM5.77842 78.5342C6.01321 78.2995 6.24798 78.1431 6.40451 77.9084V77.9867L5.30901 77.6736L5.85676 78.5342H5.77842ZM200.708 90.5302L200.787 90.7649C200.787 90.7649 200.943 90.5302 201.022 90.4519L200.787 90.2955L200.708 90.5302ZM155.237 26.2868V25.1132L155.315 25.1914H154.533L154.22 25.1132L155.315 26.2868H155.237ZM125.823 9.67504L126.214 9.04919C126.058 9.28389 125.901 9.44026 125.901 9.44026L125.823 9.67504ZM84.0165 12.2567C83.9383 12.4132 83.7818 12.5697 83.7818 12.5697L84.0949 13.2738V12.8043L83.9382 12.3349L84.0165 12.2567ZM131.523 13.2608C131.445 13.1825 131.366 13.1043 131.366 13.1043L130.975 13.4172L131.288 13.5737C131.288 13.5737 131.445 13.339 131.523 13.2608ZM183.073 56.0679C182.995 55.9897 182.838 55.9898 182.838 55.9898V56.3809C182.838 56.3809 182.917 56.3027 182.995 56.3027L183.073 56.0679ZM195.008 111.275C195.008 111.275 195.321 110.962 195.556 110.806H195.321L195.087 111.275H195.008ZM183.073 153.3L182.838 153.378C182.838 153.378 182.995 153.535 182.995 153.613L183.073 153.535V153.3ZM29.2577 155.178L28.8663 154.552L28.6316 154.865L29.2577 155.1V155.178ZM31.5143 156.808L31.0449 157.042L30.9665 157.277L31.1229 157.199L31.5143 156.808ZM172.155 163.523H171.764L171.607 163.445V165.166C171.607 165.166 171.999 164.07 172.155 163.523ZM186.36 165.231C186.36 165.231 186.595 164.762 186.673 164.449C186.595 164.683 186.438 164.918 186.438 164.918L186.36 165.231ZM40.0974 173.419L40.019 173.576C40.019 173.576 40.1755 173.654 40.2537 173.732C40.1755 173.576 40.0974 173.498 40.0974 173.419ZM41.7409 174.358L41.5842 174.437L41.7409 174.593V174.358ZM70.7509 187.384L70.4378 187.541L70.2811 188.167C70.2811 188.167 70.5942 187.932 70.6725 187.775V187.306L70.7509 187.384ZM160.768 198.454L160.533 198.22L160.376 198.376L160.533 198.533L160.768 198.454ZM192.83 158.451L192.517 158.842L192.673 158.998L192.83 158.372V158.451ZM162.881 195.873L162.803 196.029H163.037L162.881 195.873ZM75.0424 21.1363H75.2771L75.3554 21.0581C75.2772 21.1363 75.1988 21.1363 75.1988 21.1363H75.0424ZM199.456 85.6275L199.3 85.3146L199.378 85.4711V85.6275H199.456ZM52.1892 14.0431L52.0325 14.5125L52.1892 14.1212V14.0431ZM78.8642 14.1212C78.7077 13.7301 78.551 13.2607 78.3945 12.8695V12.9479C78.551 13.339 78.7077 13.7301 78.8642 14.1212ZM199.456 85.6275L199.535 85.9405L199.613 86.0186C199.613 86.0186 199.535 85.7839 199.456 85.7057V85.6275ZM63.733 6.32391H63.5766L63.3419 6.48037C63.3419 6.48037 63.5767 6.40214 63.655 6.32391H63.733ZM6.56119 123.832V123.675H6.40451L6.56119 123.832ZM17.2442 134.042C17.3224 134.12 17.4009 134.198 17.4009 134.198C17.4009 134.198 17.5573 134.276 17.6356 134.276C17.479 134.198 17.3224 134.198 17.1658 134.12L17.2442 134.042ZM201.491 137.236V137.549L201.57 137.314L201.491 137.236ZM191.343 144.734L191.421 144.342V144.421L191.265 144.655L191.343 144.734ZM186.673 148.476L186.595 148.241L186.517 148.398L186.673 148.476ZM152.498 26.8343L152.576 26.9126V26.8343H152.498ZM184.716 168.439L184.638 168.517H184.795L184.716 168.439ZM75.0424 21.2146V21.2927V21.1363V21.2146ZM140.484 19.6628H140.563V19.5847L140.484 19.6628ZM60.3809 14.0431L60.3026 14.1212H60.4589L60.3809 14.0431ZM52.737 13.4172C52.737 13.4172 52.3457 13.8866 52.1892 14.0431V14.1212C52.3457 13.8865 52.5804 13.6519 52.737 13.4954V13.4172ZM54.9152 185.194L54.3675 184.568H54.2891L54.9152 185.194ZM152.576 185.115C152.733 184.959 152.967 184.803 152.967 184.803L153.124 184.568C153.124 184.568 152.733 184.959 152.498 185.115H152.576ZM152.498 185.115L152.419 185.272L152.576 185.115H152.498ZM119.822 190.657L119.666 190.814L119.822 190.735V190.657ZM12.3266 63.0177C12.3266 63.0177 12.7962 62.6266 13.031 62.3919H12.9526C12.7178 62.5483 12.5613 62.7831 12.5613 62.7831L12.3266 63.0177ZM29.8054 155.726C29.8054 155.726 29.4142 155.334 29.2577 155.1V155.178C29.4142 155.334 29.5707 155.569 29.5707 155.569L29.8054 155.726ZM29.7274 155.804L30.4318 155.726H29.8054L29.7274 155.804ZM39.5496 141.995C40.4888 143.169 42.1191 143.56 42.9017 144.955L43.6061 144.877L43.7628 144.408C43.215 142.921 43.1367 141.057 41.1148 140.665C40.2539 140.509 39.8626 139.961 39.7843 139.179C39.7843 137.849 39.0799 136.454 40.019 135.202C40.019 135.202 40.3322 134.576 40.1757 134.42C39.1583 133.246 38.0756 132.007 36.9016 130.912L35.9625 131.538C36.119 132.164 36.3536 132.868 36.6666 133.416C36.6666 133.416 37.7624 134.198 38.0755 134.667C38.3885 135.059 38.3103 135.684 38.4669 136.154C38.4669 136.154 37.5276 136.467 37.058 136.388C37.058 136.388 35.9624 135.919 35.8058 136.78C35.7276 137.484 35.8059 137.875 36.8233 137.875C37.9973 137.953 38.0755 138.266 37.4494 139.44C37.3711 139.674 37.2147 139.831 37.2147 139.831C38.1539 140.77 39.0148 141.239 39.5496 142.008V141.995ZM45.0933 165.7C45.0933 165.7 46.189 165.309 46.7369 165.153L46.6586 164.605C46.5803 163.823 46.2672 163.119 45.328 163.275C44.8585 163.353 44.0757 163.744 43.9192 164.136C43.6061 165.074 44.5452 165.309 45.1714 165.622L45.0933 165.7ZM70.2811 163.445C71.0638 165.009 72.4597 164.618 73.7902 164.54C73.8685 164.54 74.1032 163.758 74.0249 163.679C73.6336 163.445 73.2423 163.053 72.7727 163.053C71.9118 163.053 71.051 163.288 70.2031 163.445H70.2811ZM29.336 136.78C29.4143 136.389 29.5707 136.076 29.5707 136.076C29.4925 135.371 29.2579 135.137 29.1013 134.824C28.9448 135.059 28.6316 135.371 28.6316 135.371C28.7881 135.997 29.1012 136.388 29.336 136.701V136.78ZM35.1797 132.881C35.1797 132.881 34.8665 132.333 34.71 132.02L34.2406 132.568C34.2406 132.803 34.3971 133.116 34.5536 133.585C34.8667 133.194 35.1797 133.038 35.1797 132.881ZM63.1069 160.706C62.7939 160.941 62.4808 161.098 62.4808 161.098C61.4634 161.958 61.8548 162.193 62.5592 162.349L62.4808 162.427C62.6373 161.802 62.8724 161.254 63.0289 160.706H63.1069ZM59.2068 165.153C59.3633 165.309 59.5198 165.622 59.5198 165.622C59.8329 165.7 60.1459 165.544 60.1459 165.544C60.2241 165.231 60.1459 164.996 60.1459 164.996C59.6763 164.918 59.4415 164.996 59.2068 165.153ZM57.4982 164.149L57.8893 164.305L58.1243 163.992L57.7329 163.757L57.4982 164.149ZM70.2031 163.445C70.2031 163.445 69.6551 163.053 69.4203 162.897L68.8726 162.819C69.0291 162.975 69.1071 163.288 69.2637 163.288L70.2811 163.445H70.2031ZM47.2716 160.706L46.9585 161.019L47.663 161.332L47.8977 160.941C47.8977 160.941 47.5064 160.785 47.2716 160.706ZM42.98 162.819L42.9017 163.053L43.0584 162.975C43.0584 162.897 43.0583 162.819 42.98 162.819ZM54.3675 161.802L54.7589 162.115L54.9936 161.802L54.6022 161.411L54.3675 161.802ZM30.9665 131.786C30.9665 131.786 30.8881 131.395 30.8099 131.238L30.5752 130.769L30.6535 131.316C30.6535 131.316 30.8883 131.629 30.9665 131.708V131.786ZM41.2712 132.959C41.1147 132.177 40.9582 131.473 40.7235 130.703C40.9582 131.486 41.1147 132.19 41.2712 132.959ZM30.9665 131.708C30.9665 131.942 30.8882 132.099 30.8882 132.255C30.8882 132.255 31.1231 132.568 31.2796 132.646V132.333C31.2796 132.333 31.0448 131.942 30.9665 131.786V131.708ZM63.655 160.094L63.8897 159.937V159.781C63.8114 159.937 63.733 160.015 63.733 160.015L63.655 160.094ZM42.4454 161.411L42.2887 161.489L42.4454 161.645V161.411ZM54.2891 169.521C54.4457 169.443 54.5241 169.364 54.5241 169.364C54.5241 169.364 54.3676 169.442 54.2111 169.442L54.2891 169.521ZM29.336 136.78L29.4144 136.936L29.336 136.701V136.78ZM35.8842 146.911C35.8842 146.911 35.9625 146.676 35.9625 146.52C35.9625 146.676 35.8842 146.755 35.8842 146.755V146.911ZM60.3026 158.529L60.8503 159.076L60.9287 158.998C60.9287 158.998 60.5374 158.607 60.3809 158.451L60.3026 158.529ZM61.4764 159.546C61.3199 159.389 61.0852 159.155 60.9287 158.998L60.8503 159.076C61.0851 159.233 61.2419 159.389 61.3984 159.624L61.4764 159.546ZM63.655 160.094C63.4984 160.328 63.2637 160.485 63.0289 160.719H63.1069C63.2634 160.563 63.4982 160.328 63.733 160.172L63.655 160.094ZM34.1753 115.174L34.645 115.722H34.7231L34.1753 115.096V115.174ZM41.2712 132.881C41.2712 132.881 41.6625 133.35 41.8973 133.507C41.6625 133.35 41.4277 133.116 41.2712 132.881ZM23.5576 59.4972C23.5576 59.4972 23.0878 60.2796 23.0095 60.6708C23.0095 60.9837 23.1663 61.2966 23.2446 61.6095C23.4794 61.4531 23.8707 61.2966 23.8707 61.2966C24.1054 60.5925 24.0271 60.1232 24.1054 59.5755L23.5576 59.4972ZM25.9836 57.398L26.062 57.4761V57.3196L25.9836 57.398ZM86.1168 171.477L85.5687 170.851C84.5513 169.443 83.9254 169.521 82.5297 171.164C83.7819 171.242 84.9428 171.32 86.1168 171.398V171.477ZM84.3296 172.872C84.6426 173.185 84.8777 173.498 84.8777 173.498L85.7384 173.341C85.5819 173.028 85.3471 172.715 85.3471 172.715L84.3296 172.872ZM86.3515 168.66L85.9601 168.817C85.9601 168.817 86.1949 169.13 86.2731 169.286C86.3514 169.208 86.5082 169.13 86.5082 169.13L86.3515 168.66ZM48.6804 33.6929C48.9935 33.3799 49.3848 33.2236 49.6196 32.8324C49.8544 32.5195 49.8543 32.05 49.8543 31.6589C49.5412 31.8153 48.9933 31.8152 48.7585 32.0499L48.2107 33.4583L48.6804 33.6929ZM44.7019 34.4753L44.3106 35.4923V36.4312H44.7803C45.0151 36.1965 45.328 35.8052 45.328 35.8052L44.6236 34.5535L44.7019 34.4753ZM29.8838 96.3848C30.0403 95.6024 30.1971 94.82 30.4318 94.0507H30.3535C30.197 94.8331 30.0403 95.5371 29.8838 96.3064V96.3848ZM30.5882 99.9705H30.7449L30.6665 99.7357L30.5882 99.9705ZM30.4318 94.0507L30.9796 93.503H30.9013C30.7447 93.6595 30.5099 93.8159 30.5099 93.8159L30.4318 94.0507ZM70.8292 170.616V173.654C71.6118 172.246 71.2204 171.477 70.7509 170.694L70.8292 170.616ZM67.4768 172.559L67.2421 172.637L67.3984 172.715L67.4768 172.559ZM151.18 172.715L151.259 172.481C151.259 172.481 151.259 172.324 151.18 172.246C151.102 172.324 150.946 172.402 150.946 172.402L151.18 172.715Z" fill="#F4EFE1"/>
</g>
</svg>
