<svg width="162" height="289" viewBox="0 0 162 289" fill="none" xmlns="http://www.w3.org/2000/svg">
<mask id="mask0_368_656" style="mask-type:alpha" maskUnits="userSpaceOnUse" x="0" y="0" width="162" height="289">
<rect width="162" height="289" fill="#D9D9D9"/>
</mask>
<g mask="url(#mask0_368_656)">
<path d="M45.0071 286.496C46.0172 286.47 47.0393 286.445 48.0494 286.419L51.1036 286.356C52.1258 286.318 53.1358 286.241 54.1579 286.178C56.2021 286.038 58.2464 285.91 60.2785 285.567C62.3107 285.249 64.3549 284.956 66.3511 284.396C67.9383 283.976 69.5376 283.543 71.1129 283.072C72.6761 282.55 74.2393 282.029 75.8025 281.481L76.9689 281.074C77.3537 280.934 77.7385 280.769 78.1233 280.616L80.42 279.674L82.7168 278.72C83.4863 278.402 84.2199 278.02 84.9774 277.663C91.0139 274.889 96.7857 271.491 102.353 267.8L101.8 266.477C100.718 266.68 99.6717 266.909 98.4812 267.087C97.2908 267.266 95.9801 267.457 94.4529 267.66C96.413 266.477 98.3009 265.28 100.044 263.969C100.922 263.32 101.8 262.684 102.654 262.06C103.52 261.437 104.325 260.75 105.143 260.126C106.778 258.853 108.39 257.657 109.929 256.461C110.71 255.875 111.492 255.315 112.286 254.793C112.682 254.539 113.079 254.284 113.476 254.03C113.861 253.775 114.258 253.521 114.643 253.279C116.23 252.286 117.829 251.306 119.332 250.225C120.823 249.117 122.278 247.985 123.709 246.788C125.104 245.554 126.451 244.243 127.774 242.881C128.447 242.207 129.072 241.481 129.698 240.73C130.323 239.992 130.936 239.229 131.549 238.452C132.571 237.18 133.533 235.818 134.519 234.494C135.506 233.158 136.528 231.86 137.49 230.498C138.464 229.149 139.45 227.826 140.472 226.54C141.434 225.217 142.42 223.918 143.442 222.671C149.19 215.493 153.278 206.979 156.14 198.109C159.026 189.213 160.709 179.973 161.996 170.784C162.056 170.339 161.419 169.792 160.517 168.506C158.473 175.939 156.224 183.18 153.651 190.256C151.09 197.332 148.119 204.205 144.753 210.823C142.6 215.061 140.267 219.184 137.754 223.168C137.466 223.537 137.165 223.906 136.864 224.275C136.251 225.051 135.662 225.827 135.073 226.617C130.515 232.624 126.006 238.834 120.871 244.459C120.282 245.058 119.681 245.643 119.08 246.216C122.495 241.99 125.645 237.574 128.712 233.133L130.924 229.735C131.285 229.175 131.67 228.615 132.03 228.042L133.077 226.311L135.169 222.849L137.141 219.299C142.372 209.855 146.58 199.763 149.526 189.276L147.494 193.234C146.773 194.532 146.027 195.805 145.294 197.065L144.187 198.961L143.009 200.807C142.215 202.029 141.446 203.25 140.64 204.447C140.917 203.174 141.073 201.914 141.193 200.667C141.301 199.42 141.398 198.21 141.374 196.989C141.374 195.767 141.325 194.558 141.289 193.374C141.253 192.178 141.241 191.02 141.169 189.824C141.121 188.64 141.109 187.469 141.145 186.298C141.169 185.713 141.205 185.127 141.253 184.542C141.277 183.944 141.325 183.346 141.398 182.748C141.53 181.551 141.758 180.342 142.095 179.108C142.42 177.873 142.793 176.588 143.334 175.277C141.782 176.117 141.097 176.486 139.522 177.275C139.858 175.493 140.195 173.737 140.52 172.019C140.76 170.288 141.001 168.57 141.241 166.89C141.374 166.05 141.434 165.197 141.518 164.357C141.602 163.517 141.674 162.677 141.758 161.85C141.951 160.183 141.999 158.516 142.095 156.849C142.432 150.065 142.275 143.269 141.53 136.524C140.772 129.779 139.51 123.123 137.766 116.594C137.441 115.436 136.924 114.201 136.768 112.992C136.588 111.783 136.816 110.562 138.079 109.365C138.632 108.831 138.981 108.169 139.137 107.469C139.293 106.769 139.257 106.018 139.005 105.356C138.524 104.02 137.357 102.938 135.686 102.9C134.916 102.887 134.279 102.62 133.774 102.251C133.245 101.882 132.836 101.386 132.535 100.877C131.934 99.8711 131.754 98.7893 131.91 98.5475C133.654 96.0913 132.812 93.775 131.622 91.4969C131.465 91.2169 131.309 90.9242 131.153 90.6442C130.984 90.3642 130.816 90.0843 130.635 89.8043C130.299 89.2443 129.962 88.6843 129.661 88.1116C129.361 87.5389 129.096 86.9662 128.904 86.3681C128.808 86.0753 128.724 85.7699 128.663 85.4645C128.591 85.159 128.543 84.8536 128.507 84.5481C129.481 83.9373 130.66 83.2118 132.692 81.9392C121.797 61.7673 105.744 45.0826 86.5767 33.7558C85.5185 33.1449 84.4604 32.534 83.4022 31.9359C82.32 31.3759 81.2257 30.8414 80.1314 30.2941C77.955 29.1742 75.7063 28.2578 73.4697 27.2906C72.3634 26.7815 71.2211 26.3743 70.0787 25.9289C68.9484 25.4834 67.8181 25.038 66.6878 24.6053C65.5454 24.198 64.4031 23.7908 63.2607 23.3835L61.5532 22.7599L60.6994 22.4417L59.8457 22.149C50.7549 18.9546 41.3035 16.6638 31.6235 15.5057L29.8078 15.2766L27.98 15.1366L24.3125 14.8693L23.3866 14.8057L22.4607 14.7802L20.6209 14.7421L16.9172 14.6912L13.2016 14.8311L11.3377 14.9075L10.3998 14.9584L9.47391 15.0475L5.74623 15.4166C5.12094 15.4802 4.49565 15.5438 3.88238 15.6202L2.03058 15.9129C-5.6292 17.0583 -13.2529 19.1073 -20.9608 22.0854C-28.6566 25.0762 -36.4367 28.996 -44.373 34.1249C-42.8699 34.2394 -41.7877 34.5067 -41.1023 34.7994C-40.4048 35.1048 -40.0802 35.4612 -40.0321 35.8557C-39.984 36.2502 -40.2245 36.6829 -40.6574 37.1538C-41.0902 37.612 -41.6915 38.1592 -42.425 38.7065C-49.6399 44.1026 -56.3617 50.2496 -62.3981 57.0839C-68.4346 63.9181 -73.7856 71.4396 -78.2708 79.5083C-83.2972 88.6334 -87.2413 98.6239 -89.1532 108.805C-89.2494 109.314 -89.3336 109.823 -89.4178 110.345C-89.9709 111.414 -90.3918 112.547 -90.6323 113.756C-90.981 115.321 -91.1614 116.963 -91.2696 118.618C-91.2696 118.643 -91.2696 118.668 -91.2696 118.694C-93.2176 125.834 -94.5403 133.253 -95.2017 140.877C-95.5745 141.742 -95.9953 142.633 -96.4403 143.549C-96.3681 124.815 -92.448 106.629 -85.4857 90.3006C-78.5354 73.934 -68.4226 59.2092 -55.9048 47.2334C-57.9009 46.2916 -59.5603 46.8007 -61.0514 47.8443C-62.4943 48.9388 -63.769 50.5678 -65.1037 51.8405C-72.6072 59.2601 -79.2689 67.7743 -84.9446 77.0139C-85.6901 78.1466 -86.3274 79.3429 -87.0128 80.5265L-89.021 84.09L-90.8728 87.7425C-91.474 88.9643 -92.1234 90.1733 -92.6645 91.4333C-93.7708 93.9405 -94.9492 96.4222 -95.9112 99.0184L-97.4143 102.887C-97.8832 104.198 -98.3161 105.522 -98.761 106.833C-99.1098 107.838 -99.4585 108.856 -99.8072 109.862C-100.132 110.88 -100.457 111.898 -100.781 112.916L-101.779 115.97C-102.104 116.989 -102.381 118.032 -102.669 119.063C-103.246 121.137 -103.835 123.225 -104.244 125.35C-104.665 127.475 -105.11 129.613 -105.29 131.79C-105.459 133.508 -105.639 135.239 -105.759 136.969C-105.844 138.7 -105.904 140.444 -105.964 142.175L-106 143.486C-106 143.918 -106 144.351 -106 144.796L-105.952 147.405L-105.892 150.014C-105.868 150.88 -105.796 151.758 -105.735 152.623C-105.351 159.585 -104.316 166.483 -102.97 173.279L-101.611 173.177C-101.419 172.032 -101.262 170.912 -101.01 169.664C-100.757 168.417 -100.469 167.055 -100.132 165.465C-99.7591 167.819 -99.3502 170.11 -98.7851 172.299C-98.5205 173.393 -98.256 174.488 -97.9915 175.557C-97.7389 176.626 -97.4022 177.67 -97.1257 178.7C-96.5485 180.762 -96.0555 182.773 -95.5264 184.72C-95.2739 185.7 -95.0574 186.667 -94.865 187.635C-94.7688 188.118 -94.6846 188.602 -94.5885 189.073C-94.4923 189.544 -94.4081 190.027 -94.3239 190.498C-93.9872 192.42 -93.6746 194.342 -93.2176 196.212C-92.7487 198.07 -92.2436 199.916 -91.6785 201.749C-91.0652 203.556 -90.3678 205.35 -89.6102 207.132C-89.2495 208.036 -88.8045 208.901 -88.3716 209.779C-87.9267 210.657 -87.4698 211.523 -86.9768 212.401C-86.1952 213.864 -85.3294 215.277 -84.4876 216.715C-83.6459 218.153 -82.8403 219.63 -81.9624 221.042C-81.1087 222.468 -80.279 223.918 -79.4733 225.369C-78.6316 226.782 -77.8259 228.207 -77.0684 229.658C-72.6913 237.841 -66.5347 244.841 -59.6565 250.746C-52.7543 256.677 -45.1426 261.526 -37.4347 265.98C-37.062 266.184 -36.3525 265.738 -34.9095 265.293C-40.8017 260.711 -46.4533 255.977 -51.8404 250.975C-57.2395 245.999 -62.314 240.68 -67.0156 235.054C-71.7173 229.429 -76.0583 223.473 -79.8821 217.186C-83.694 210.886 -86.9527 204.243 -89.5741 197.345C-87.0008 202.194 -84.175 206.839 -81.2891 211.421L-79.0404 214.793C-78.6676 215.353 -78.2949 215.926 -77.9221 216.473L-76.7437 218.115L-74.4229 221.348C-59.6204 242.996 -38.1081 259.222 -13.0846 266.655L-12.0023 267.189C-10.367 267.978 -8.71957 268.767 -6.96395 269.264C-6.0621 269.544 -5.17226 269.824 -4.29445 270.104C-3.41665 270.396 -2.55086 270.702 -1.68508 270.969C0.0464854 271.516 1.72994 272.127 3.41341 272.776C5.09688 273.374 6.76832 274.036 8.45179 274.8C9.2815 275.194 10.1353 275.538 10.989 275.933C11.8428 276.327 12.6965 276.734 13.5503 277.18C14.0794 277.447 14.6205 277.714 15.1616 277.956C15.5705 278.134 15.9793 278.287 16.4002 278.44C1.69387 276.531 -12.6276 271.809 -25.6985 264.529C-25.8428 266.833 -24.8328 268.309 -23.3898 269.429C-21.9228 270.486 -20.0469 271.186 -18.4476 272.076C-9.27271 276.976 0.563548 280.654 10.7125 283.123C11.9751 283.467 13.2617 283.696 14.5363 283.963L18.3843 284.727L22.2562 285.299C23.5549 285.478 24.8416 285.707 26.1523 285.809C28.7616 286.038 31.371 286.356 34.0044 286.419L37.9606 286.572C39.2833 286.585 40.606 286.572 41.9287 286.547C42.9388 286.547 43.9609 286.547 44.971 286.547L45.0071 286.496ZM97.5674 243.836C98.5414 242.779 99.6236 241.749 100.826 240.807C100.982 240.692 101.139 240.565 101.307 240.438C101.271 240.476 101.235 240.514 101.199 240.552L97.4471 244.154C97.2427 244.345 97.0383 244.51 96.8338 244.701C97.0623 244.408 97.3148 244.116 97.5674 243.836ZM134.399 204.867C134.063 205.63 133.738 206.368 133.413 207.094C133.064 207.806 132.716 208.494 132.379 209.181C132.042 209.868 131.706 210.543 131.369 211.204C131.032 211.879 130.708 212.541 130.335 213.19C129.613 214.488 128.88 215.786 128.134 217.148C129.866 216.168 130.768 215.646 132.656 214.513C128.074 221.093 123.625 226.273 118.875 231.033L119.392 232.102C120.799 230.995 122.23 229.887 123.625 228.729L127.75 225.115C120.956 233.845 113.717 241.914 105.78 249.41C97.892 256.982 89.3063 263.944 79.8428 270.664C79.3739 268.895 79.0612 267.762 78.6163 266.108C85.1818 262.379 91.4708 258.026 97.88 252.465C96.5813 252.299 95.5231 252.095 94.477 251.905C94.4529 251.319 94.477 250.772 94.5371 250.225C98.9382 247.348 103.183 244.179 107.223 240.73C107.957 238.491 108.63 236.238 109.267 233.973C113.56 230.231 117.673 226.133 121.605 221.577C122.302 220.813 122.94 219.999 123.589 219.197C124.238 218.382 124.9 217.568 125.561 216.741C125.898 216.333 126.21 215.901 126.523 215.468C126.836 215.035 127.148 214.603 127.473 214.17C128.11 213.304 128.748 212.426 129.385 211.535C129.986 210.619 130.587 209.703 131.201 208.774C131.501 208.303 131.814 207.845 132.115 207.374L132.571 206.674L133.004 205.948C133.582 204.968 134.159 203.988 134.748 202.996C135.037 202.499 135.337 202.003 135.626 201.494C135.902 200.985 136.167 200.463 136.443 199.941C135.782 201.736 135.049 203.327 134.375 204.854L134.399 204.867ZM111.805 76.1358C116.843 82.321 121.196 89.1425 124.791 96.3713C128.387 103.6 131.237 111.262 133.245 119.152C133.533 120.132 133.726 121.137 133.942 122.13L134.592 125.121C134.964 127.119 135.289 129.143 135.614 131.153L135.974 134.195L136.155 135.71C136.215 136.219 136.275 136.715 136.299 137.237L136.516 140.291C136.576 141.309 136.672 142.327 136.672 143.346C136.948 151.491 136.383 159.661 134.976 167.654C133.798 174.348 131.754 180.839 129.108 186.986C126.667 192.674 123.685 198.058 120.426 203.161C127.521 187.571 131.489 170.11 131.489 151.682C131.489 113.807 114.715 80.0429 88.5608 58.1656C89.5228 58.7129 90.4728 59.2856 91.4227 59.871C92.3486 60.4055 93.2505 61.0037 94.1523 61.5891L96.894 63.32L99.5755 65.1781L100.922 66.1071C101.367 66.4253 101.788 66.7689 102.221 67.0998C103.087 67.7743 103.953 68.4488 104.806 69.1361C105.66 69.836 106.454 70.5996 107.271 71.3378C108.919 72.8141 110.386 74.4686 111.817 76.1739L111.805 76.1358ZM99.6957 61.7037L98.7338 60.8764L97.7357 60.1001C97.0744 59.5783 96.401 59.0565 95.7276 58.5347C94.4049 57.4529 92.9378 56.5112 91.4588 55.4548C95.6073 56.1803 98.4452 57.3257 100.922 59.3238C102.125 60.3674 103.279 61.5891 104.385 63.1927C104.927 64.0072 105.48 64.8853 106.033 65.8653C106.309 66.3489 106.598 66.858 106.887 67.3925C107.163 67.9398 107.428 68.5125 107.716 69.1106C104.915 66.2344 102.329 63.8927 99.7198 61.7037L99.6957 61.7037ZM82.4883 37.5738L84.8331 38.5283C85.6147 38.8465 86.3964 39.1646 87.1539 39.5464C88.6811 40.2719 90.2202 41.01 91.7354 41.7736L96.2206 44.2553C97.6996 45.1208 99.1426 46.0625 100.61 46.9661C101.548 47.5261 102.87 48.3024 103.135 49.0024C103.832 51.0259 104.83 52.7441 105.901 54.424C106.983 56.0912 108.293 57.5548 109.58 59.0947C110.891 60.6092 112.298 62.0473 113.596 63.6254C114.258 64.4017 114.907 65.1781 115.544 65.9798C116.17 66.7816 116.735 67.647 117.288 68.4997C112.033 62.2891 105.636 57.2875 99.0344 52.6168C98.2287 52.0059 97.3629 51.4714 96.5332 50.886C95.6915 50.3133 94.8618 49.7278 94.0201 49.1424C92.3125 48.0224 90.617 46.8643 88.9216 45.668C88.0558 45.0953 87.19 44.5226 86.3362 43.9117C85.4705 43.3136 84.6287 42.6645 83.7509 42.0791C82.8731 41.4809 82.0073 40.8573 81.1295 40.2082C80.6966 39.8773 80.2637 39.5464 79.8188 39.2156C79.3739 38.8974 78.929 38.5665 78.4841 38.2483C79.4821 38.032 80.2878 37.752 80.9251 37.5993C81.5624 37.4465 82.0554 37.3829 82.5003 37.5611L82.4883 37.5738ZM51.3922 26.5397C52.1739 26.7561 52.7511 27.2015 53.3162 27.9524C53.8814 28.716 54.4225 29.7978 55.1079 31.2232C54.6269 31.0704 54.1459 30.905 53.677 30.7523C53.4365 30.6759 53.208 30.5996 52.9675 30.5232L52.258 30.3323C51.3201 30.0778 50.3822 29.8232 49.4082 29.556C47.4722 28.9833 45.4039 28.5887 42.9509 28.0542C45.1875 27.3797 46.9311 26.8452 48.2778 26.6034C49.6246 26.3743 50.5986 26.3361 51.3802 26.5525L51.3922 26.5397ZM-97.7389 149.9C-96.9453 149.963 -96.296 150.014 -95.6466 150.065C-95.6466 150.587 -95.6707 151.109 -95.6707 151.631C-95.6707 154.163 -95.5865 156.683 -95.4422 159.19C-96.2479 156.149 -97.0174 153.056 -97.7389 149.9ZM41.9288 277.32C41.2073 277.193 40.4978 277.091 39.7883 276.938C39.0789 276.785 38.3574 276.633 37.6479 276.467C36.229 276.149 34.8101 275.856 33.4032 275.487C30.5894 274.711 27.8117 273.998 25.07 273.044C24.4087 272.827 23.6872 272.649 22.9657 272.509C22.6049 272.445 22.2322 272.382 21.8714 272.344C21.5107 272.293 21.1379 272.242 20.7772 272.216L16.0274 271.809C14.4522 271.618 12.8769 271.389 11.3017 271.173C10.1232 271.033 8.95683 270.804 7.79042 270.587C10.1473 270.804 12.5162 270.956 14.9091 271.02C19.3583 271.835 23.8555 272.382 28.3648 272.662C31.1666 272.904 35.2189 272.356 36.5416 273.54C36.8783 273.845 37.2271 274.113 37.5758 274.354C37.9245 274.584 38.2732 274.787 38.634 274.978C39.3434 275.347 40.0769 275.614 40.8104 275.805C42.2775 276.174 43.7926 276.276 45.2957 276.047C46.7988 275.856 48.3139 275.462 49.829 275.004C51.3201 274.482 52.8112 273.896 54.2902 273.374C55.0959 273.107 55.8775 272.84 56.6471 272.573C57.4166 272.331 58.1862 272.115 58.9558 271.936C59.7254 271.758 60.483 271.618 61.2646 271.516C62.0221 271.376 62.7917 271.275 63.5733 271.198C64.3549 271.122 65.1486 271.084 65.9542 271.071C66.3631 271.071 66.7599 271.071 67.1808 271.071C67.5896 271.071 67.9984 271.071 68.4193 271.071C70.0908 271.109 71.8464 271.262 73.7463 271.516C61.7816 276.098 49.3961 278.605 37.0948 279.178C37.5758 279.038 38.0568 278.885 38.5257 278.72C39.115 278.516 39.6921 278.3 40.2573 278.071C40.8225 277.816 41.3876 277.549 41.9408 277.256L41.9288 277.32Z" fill="#F4EFE1"/>
<path d="M145.173 86.8345C145.281 87.5981 145.39 88.3617 145.498 89.1253C145.702 90.6525 145.931 92.1542 146.087 93.6814C146.364 96.7486 146.688 99.7521 146.797 102.806C146.833 103.545 146.917 104.308 147.049 105.085C147.109 105.466 147.193 105.848 147.278 106.23C147.362 106.612 147.434 106.994 147.542 107.363L148.817 112.224C149.189 113.853 149.538 115.508 149.887 117.137C150.272 118.766 150.5 120.433 150.789 122.087L151.198 124.569C151.33 125.396 151.414 126.236 151.522 127.064C152.412 133.72 152.713 140.452 152.592 147.134L153.735 147.299C153.831 146.357 153.951 145.416 154.072 144.474L154.3 141.636C154.432 139.739 154.565 137.818 154.408 135.921C154.336 134.929 154.288 133.949 154.24 132.982C154.192 132.014 154.18 131.047 154.108 130.093C153.999 128.184 153.951 126.3 153.963 124.404C153.915 122.52 153.927 120.637 154.023 118.702C154.084 117.735 154.096 116.78 154.156 115.8C154.204 114.821 154.288 113.828 154.372 112.822C154.432 112.199 154.48 111.575 154.504 110.952C154.516 110.328 154.504 109.704 154.504 109.068C154.48 107.808 154.396 106.535 154.264 105.263C154.156 103.977 153.891 102.73 153.615 101.457C153.326 100.198 153.001 98.9503 152.617 97.7031C152.208 96.4813 151.715 95.2723 151.186 94.0887C150.921 93.5033 150.644 92.9178 150.356 92.3324L149.911 91.4797C149.755 91.1997 149.586 90.9197 149.418 90.6525C148.745 89.558 148.035 88.4889 147.266 87.4581C146.881 86.949 146.496 86.4527 146.087 85.9563C145.666 85.4854 145.233 85.0145 144.788 84.5691C144.921 85.32 145.077 86.0709 145.185 86.8345L145.173 86.8345Z" fill="#F4EFE1"/>
<path d="M90.4492 15.9593C83.6672 12.0268 76.5245 8.69235 69.1534 6.00701L66.3756 5.03978L64.9808 4.55617C64.5118 4.39072 64.0549 4.238 63.5739 4.11073C61.698 3.55076 59.8101 3.00351 57.9222 2.46898C56.0223 1.98537 54.1104 1.55266 52.1984 1.10722L50.7555 0.789055L49.3125 0.521794L46.4145 -2.03876e-06C47.2923 0.53452 48.1701 1.03086 49.0479 1.50175L51.6814 2.88896C53.437 3.80529 55.2046 4.6198 56.9723 5.34522C58.7399 6.14701 60.5075 6.87243 62.2992 7.52149C63.2011 7.83966 64.0909 8.18328 64.9808 8.5269C65.8706 8.87053 66.7724 9.18869 67.6743 9.50686C74.8651 12.0777 82.2363 14.483 89.2347 17.8683L90.4372 15.9593L90.4492 15.9593Z" fill="#F4EFE1"/>
<path d="M148.758 66.0134C152.161 72.364 155.215 78.9056 157.668 85.6889C157.608 83.8308 157.452 81.9854 157.187 80.1401C156.886 78.3329 156.49 76.5257 156.021 74.7439C155.576 72.9495 154.95 71.2314 154.277 69.5132C153.604 67.8079 152.894 66.0898 152.016 64.4735C151.163 62.8444 150.261 61.2282 149.299 59.65C148.289 58.1101 147.23 56.5829 146.136 55.0939L145.307 53.9866L144.429 52.9176C143.839 52.2049 143.238 51.5049 142.625 50.805C142.012 50.105 141.398 49.4178 140.773 48.7305C140.136 48.056 139.474 47.4069 138.813 46.7579L137.142 47.8524C141.435 53.6176 145.355 59.6628 148.758 66.0261L148.758 66.0134Z" fill="#F4EFE1"/>
<path d="M134.088 85.7399C136.697 90.9452 138.97 96.3413 140.918 101.865C141.591 95.3104 139.378 89.4052 134.088 85.7399Z" fill="#F4EFE1"/>
<path d="M141.771 231.003C144.524 227.032 147.11 222.934 149.479 218.696L148.697 218.492C146.172 222.412 143.454 226.179 140.604 229.794L141.771 231.003Z" fill="#F4EFE1"/>
<path d="M132.271 154.031L132.151 155.648L131.959 157.264L133.751 157.213C133.751 156.666 133.763 156.131 133.751 155.584L133.678 153.955L133.522 150.71L132.536 150.799L132.296 154.044L132.271 154.031Z" fill="#F4EFE1"/>
<path d="M52.0046 288.553C53.7602 288.477 55.5158 288.349 57.2474 288.044C58.991 287.764 60.7346 287.42 62.4662 287C64.1857 286.529 65.8932 286.008 67.6007 285.422L68.8754 284.977L70.1259 284.468C70.9677 284.124 71.7974 283.768 72.6271 283.411C73.4568 283.042 74.2865 282.673 75.1042 282.291C75.9219 281.884 76.7275 281.451 77.5332 281.031L77.1364 278.995C70.5468 281.273 63.825 283.093 57.0189 284.277C50.2129 285.473 43.3588 286.249 36.4927 286.351C38.1641 286.924 39.8596 287.408 41.5791 287.789C43.2867 288.108 45.0182 288.349 46.7618 288.489C48.5054 288.667 50.249 288.629 52.0046 288.566L52.0046 288.553Z" fill="#F4EFE1"/>
</g>
</svg>
